ZillaSlab-Bold.ufo
<glyph name="parenleft" format="1">
  <advance width="289"/>
  <unicode hex="0028"/>
  <outline>
    <contour>
      <point x="184" y="718" type="curve"/>
      <point x="298" y="718" type="line"/>
      <point x="188" y="578"/>
      <point x="132" y="427"/>
      <point x="132" y="270" type="curve" smooth="yes"/>
      <point x="132" y="115"/>
      <point x="187" y="-45"/>
      <point x="298" y="-183" type="curve"/>
      <point x="182" y="-183" type="line"/>
      <point x="71" y="-36"/>
      <point x="23" y="118"/>
      <point x="23" y="270" type="curve" smooth="yes"/>
      <point x="23" y="424"/>
      <point x="74" y="576"/>
    </contour>
  </outline>
</glyph>
<glyph name="plus" format="1">
  <advance width="401"/>
  <unicode hex="002B"/>
  <outline>
    <contour>
      <point x="27" y="237" type="line"/>
      <point x="159" y="237" type="line"/>
      <point x="159" y="108" type="line"/>
      <point x="247" y="108" type="line"/>
      <point x="247" y="237" type="line"/>
      <point x="374" y="237" type="line"/>
      <point x="374" y="325" type="line"/>
      <point x="247" y="325" type="line"/>
      <point x="247" y="455" type="line"/>
      <point x="159" y="455" type="line"/>
      <point x="159" y="325" type="line"/>
      <point x="27" y="325" type="line"/>
    </contour>
  </outline>
</glyph>
<glyph name="hyphen" format="1">
  <advance width="321"/>
  <unicode hex="002D"/>
  <outline>
    <contour>
      <point x="41" y="288" type="line"/>
      <point x="280" y="288" type="line"/>
      <point x="280" y="180" type="line"/>
      <point x="41" y="180" type="line"/>
    </contour>
  </outline>
</glyph>
<glyph name="one" format="1">
  <advance width="404"/>
  <unicode hex="0031"/>
  <outline>
    <contour>
      <point x="387" y="0" type="line"/>
      <point x="387" y="114" type="line"/>
      <point x="287" y="114" type="line"/>
      <point x="287" y="521" type="line"/>
      <point x="43" y="521" type="line"/>
      <point x="43" y="407" type="line"/>
      <point x="153" y="407" type="line"/>
      <point x="153" y="114" type="line"/>
      <point x="43" y="114" type="line"/>
      <point x="43" y="0" type="line"/>
    </contour>
  </outline>
</glyph>
<glyph name="two" format="1">
  <advance width="537"/>
  <unicode hex="0032"/>
  <outline>
    <contour>
      <point x="71" y="492" type="curve"/>
      <point x="50" y="339" type="line"/>
      <point x="153" y="328" type="line"/>
      <point x="168" y="402" type="line"/>
      <point x="189" y="413"/>
      <point x="226" y="417"/>
      <point x="250" y="417" type="curve" smooth="yes"/>
      <point x="297" y="417"/>
      <point x="337" y="401"/>
      <point x="337" y="358" type="curve" smooth="yes"/>
      <point x="337" y="276"/>
      <point x="193" y="206"/>
      <point x="35" y="106" type="curve"/>
      <point x="47" y="0" type="line"/>
      <point x="501" y="0" type="line"/>
      <point x="516" y="163" type="line"/>
      <point x="409" y="173" type="line"/>
      <point x="402" y="114" type="line"/>
      <point x="190" y="114" type="line"/>
      <point x="326" y="185"/>
      <point x="481" y="248"/>
      <point x="481" y="379" type="curve" smooth="yes"/>
      <point x="481" y="457"/>
      <point x="426" y="531"/>
      <point x="268" y="531" type="curve" smooth="yes"/>
      <point x="220" y="531"/>
      <point x="148" y="524"/>
    </contour>
  </outline>
</glyph>
<glyph name="seven" format="1">
  <advance width="495"/>
  <unicode hex="0037"/>
  <outline>
    <contour>
      <point x="490" y="458" type="line"/>
      <point x="474" y="521" type="line"/>
      <point x="24" y="521" type="line"/>
      <point x="24" y="299" type="line"/>
      <point x="141" y="299" type="line"/>
      <point x="141" y="408" type="line"/>
      <point x="345" y="408" type="line"/>
      <point x="128" y="-130" type="line"/>
      <point x="260" y="-130" type="line"/>
    </contour>
  </outline>
</glyph>
<glyph name="semicolon" format="1">
  <advance width="249"/>
  <unicode hex="003B"/>
  <outline>
    <contour>
      <point x="192" y="149" type="line"/>
      <point x="66" y="149" type="line"/>
      <point x="6" y="-85" type="line"/>
      <point x="132" y="-85" type="line"/>
    </contour>
    <contour>
      <point x="61" y="289" type="line"/>
      <point x="195" y="289" type="line"/>
      <point x="195" y="451" type="line"/>
      <point x="61" y="451" type="line"/>
    </contour>
  </outline>
</glyph>
<glyph name="less" format="1">
  <advance width="397"/>
  <unicode hex="003C"/>
  <outline>
    <contour>
      <point x="344" y="14" type="line"/>
      <point x="344" y="136" type="line"/>
      <point x="156" y="282" type="line"/>
      <point x="343" y="427" type="line"/>
      <point x="343" y="549" type="line"/>
      <point x="25" y="301" type="line"/>
      <point x="25" y="257" type="line"/>
    </contour>
  </outline>
</glyph>
<glyph name="greater" format="1">
  <advance width="395"/>
  <unicode hex="003E"/>
  <outline>
    <contour>
      <point x="371" y="257" type="line"/>
      <point x="371" y="301" type="line"/>
      <point x="53" y="549" type="line"/>
      <point x="53" y="427" type="line"/>
      <point x="240" y="282" type="line"/>
      <point x="52" y="136" type="line"/>
      <point x="52" y="14" type="line"/>
    </contour>
  </outline>
</glyph>
<glyph name="I" format="1">
  <advance width="352"/>
  <unicode hex="0049"/>
  <outline>
    <contour>
      <point x="313" y="0" type="line"/>
      <point x="313" y="114" type="line"/>
      <point x="243" y="114" type="line"/>
      <point x="243" y="536" type="line"/>
      <point x="313" y="536" type="line"/>
      <point x="313" y="650" type="line"/>
      <point x="39" y="650" type="line"/>
      <point x="39" y="536" type="line"/>
      <point x="109" y="536" type="line"/>
      <point x="109" y="114" type="line"/>
      <point x="39" y="114" type="line"/>
      <point x="39" y="0" type="line"/>
    </contour>
  </outline>
</glyph>
<glyph name="J" format="1">
  <advance width="486"/>
  <unicode hex="004A"/>
  <outline>
    <contour>
      <point x="457" y="536" type="line"/>
      <point x="457" y="650" type="line"/>
      <point x="149" y="650" type="line"/>
      <point x="149" y="536" type="line"/>
      <point x="263" y="536" type="line"/>
      <point x="263" y="184" type="line" smooth="yes"/>
      <point x="263" y="144"/>
      <point x="241" y="114"/>
      <point x="187" y="114" type="curve" smooth="yes"/>
      <point x="155" y="114"/>
      <point x="122" y="125"/>
      <point x="99" y="184" type="curve"/>
      <point x="5" y="113" type="line"/>
      <point x="33" y="47"/>
      <point x="89" y="-10"/>
      <point x="200" y="-10" type="curve" smooth="yes"/>
      <point x="318" y="-10"/>
      <point x="397" y="54"/>
      <point x="397" y="185" type="curve" smooth="yes"/>
      <point x="397" y="536" type="line"/>
    </contour>
  </outline>
</glyph>
<glyph name="M" format="1">
  <advance width="900"/>
  <unicode hex="004D"/>
  <outline>
    <contour>
      <point x="869" y="536" type="line"/>
      <point x="869" y="650" type="line"/>
      <point x="675" y="650" type="line"/>
      <point x="458" y="247" type="line"/>
      <point x="454" y="247" type="line"/>
      <point x="223" y="650" type="line"/>
      <point x="31" y="650" type="line"/>
      <point x="31" y="536" type="line"/>
      <point x="111" y="536" type="line"/>
      <point x="111" y="114" type="line"/>
      <point x="41" y="114" type="line"/>
      <point x="41" y="0" type="line"/>
      <point x="298" y="0" type="line"/>
      <point x="298" y="114" type="line"/>
      <point x="236" y="114" type="line"/>
      <point x="236" y="374" type="line"/>
      <point x="240" y="374" type="line"/>
      <point x="424" y="53" type="line"/>
      <point x="480" y="53" type="line"/>
      <point x="651" y="362" type="line"/>
      <point x="655" y="362" type="line"/>
      <point x="655" y="114" type="line"/>
      <point x="598" y="114" type="line"/>
      <point x="598" y="0" type="line"/>
      <point x="859" y="0" type="line"/>
      <point x="859" y="114" type="line"/>
      <point x="789" y="114" type="line"/>
      <point x="789" y="536" type="line"/>
    </contour>
  </outline>
</glyph>
<glyph name="S" format="1">
  <advance width="557"/>
  <unicode hex="0053"/>
  <outline>
    <contour>
      <point x="526" y="197" type="curve" smooth="yes"/>
      <point x="526" y="363"/>
      <point x="378" y="379"/>
      <point x="298" y="396" type="curve" smooth="yes"/>
      <point x="239" y="409"/>
      <point x="186" y="424"/>
      <point x="186" y="479" type="curve" smooth="yes"/>
      <point x="186" y="526"/>
      <point x="226" y="542"/>
      <point x="279" y="542" type="curve" smooth="yes"/>
      <point x="311" y="542"/>
      <point x="345" y="536"/>
      <point x="379" y="513" type="curve"/>
      <point x="388" y="437" type="line"/>
      <point x="495" y="447" type="line"/>
      <point x="489" y="588" type="line"/>
      <point x="447" y="632"/>
      <point x="363" y="660"/>
      <point x="278" y="660" type="curve" smooth="yes"/>
      <point x="161" y="660"/>
      <point x="42" y="607"/>
      <point x="42" y="462" type="curve" smooth="yes"/>
      <point x="42" y="322"/>
      <point x="154" y="299"/>
      <point x="248" y="282" type="curve" smooth="yes"/>
      <point x="320" y="269"/>
      <point x="382" y="253"/>
      <point x="382" y="181" type="curve" smooth="yes"/>
      <point x="382" y="115"/>
      <point x="331" y="105"/>
      <point x="261" y="105" type="curve" smooth="yes"/>
      <point x="238" y="105"/>
      <point x="207" y="106"/>
      <point x="162" y="130" type="curve"/>
      <point x="163" y="209" type="line"/>
      <point x="56" y="219" type="line"/>
      <point x="36" y="58" type="line"/>
      <point x="87" y="13"/>
      <point x="183" y="-10"/>
      <point x="271" y="-10" type="curve" smooth="yes"/>
      <point x="429" y="-10"/>
      <point x="526" y="63"/>
    </contour>
  </outline>
</glyph>
<glyph name="V" format="1">
  <advance width="685"/>
  <unicode hex="0056"/>
  <outline>
    <contour>
      <point x="679" y="536" type="line"/>
      <point x="679" y="650" type="line"/>
      <point x="423" y="650" type="line"/>
      <point x="423" y="536" type="line"/>
      <point x="484" y="536" type="line"/>
      <point x="354" y="207" type="line"/>
      <point x="348" y="207" type="line"/>
      <point x="215" y="536" type="line"/>
      <point x="274" y="536" type="line"/>
      <point x="274" y="650" type="line"/>
      <point x="5" y="650" type="line"/>
      <point x="5" y="536" type="line"/>
      <point x="66" y="536" type="line"/>
      <point x="296" y="0" type="line"/>
      <point x="389" y="0" type="line"/>
      <point x="620" y="536" type="line"/>
    </contour>
  </outline>
</glyph>
<glyph name="X" format="1">
  <advance width="666"/>
  <unicode hex="0058"/>
  <outline>
    <contour>
      <point x="658" y="0" type="line"/>
      <point x="658" y="114" type="line"/>
      <point x="600" y="114" type="line"/>
      <point x="409" y="335" type="line"/>
      <point x="583" y="536" type="line"/>
      <point x="643" y="536" type="line"/>
      <point x="643" y="650" type="line"/>
      <point x="387" y="650" type="line"/>
      <point x="387" y="536" type="line"/>
      <point x="434" y="536" type="line"/>
      <point x="340" y="419" type="line"/>
      <point x="238" y="536" type="line"/>
      <point x="282" y="536" type="line"/>
      <point x="282" y="650" type="line"/>
      <point x="21" y="650" type="line"/>
      <point x="21" y="536" type="line"/>
      <point x="81" y="536" type="line"/>
      <point x="258" y="333" type="line"/>
      <point x="76" y="114" type="line"/>
      <point x="6" y="114" type="line"/>
      <point x="6" y="0" type="line"/>
      <point x="278" y="0" type="line"/>
      <point x="278" y="114" type="line"/>
      <point x="224" y="114" type="line"/>
      <point x="327" y="246" type="line"/>
      <point x="439" y="114" type="line"/>
      <point x="393" y="114" type="line"/>
      <point x="393" y="0" type="line"/>
    </contour>
  </outline>
</glyph>
<glyph name="backslash" format="1">
  <advance width="421"/>
  <unicode hex="005C"/>
  <outline>
    <contour>
      <point x="60" y="688" type="line"/>
      <point x="255" y="0" type="line"/>
      <point x="382" y="0" type="line"/>
      <point x="187" y="688" type="line"/>
    </contour>
  </outline>
</glyph>
<glyph name="bracketright" format="1">
  <advance width="299"/>
  <unicode hex="005D"/>
  <outline>
    <contour>
      <point x="232" y="-248" type="line"/>
      <point x="9" y="-248" type="line"/>
      <point x="9" y="-161" type="line"/>
      <point x="123" y="-161" type="line"/>
      <point x="123" y="698" type="line"/>
      <point x="9" y="698" type="line"/>
      <point x="9" y="785" type="line"/>
      <point x="232" y="785" type="line"/>
    </contour>
  </outline>
</glyph>
<glyph name="asciicircum" format="1">
  <advance width="469"/>
  <unicode hex="005E"/>
  <outline>
    <contour>
      <point x="189" y="650" type="line"/>
      <point x="28" y="367" type="line"/>
      <point x="147" y="367" type="line"/>
      <point x="230" y="525" type="line"/>
      <point x="323" y="367" type="line"/>
      <point x="441" y="367" type="line"/>
      <point x="270" y="650" type="line"/>
    </contour>
  </outline>
</glyph>
<glyph name="b" format="1">
  <advance width="551"/>
  <unicode hex="0062"/>
  <outline>
    <contour>
      <point x="530" y="236" type="curve" smooth="yes"/>
      <point x="530" y="377"/>
      <point x="451" y="460"/>
      <point x="337" y="460" type="curve" smooth="yes"/>
      <point x="255" y="460"/>
      <point x="209" y="417"/>
      <point x="185" y="365" type="curve"/>
      <point x="185" y="688" type="line"/>
      <point x="-4" y="688" type="line"/>
      <point x="-4" y="590" type="line"/>
      <point x="56" y="590" type="line"/>
      <point x="56" y="139" type="line" smooth="yes"/>
      <point x="56" y="94"/>
      <point x="49" y="47"/>
      <point x="39" y="0" type="curve"/>
      <point x="168" y="0" type="line"/>
      <point x="172" y="23"/>
      <point x="175" y="45"/>
      <point x="178" y="68" type="curve"/>
      <point x="204" y="20"/>
      <point x="252" y="-10"/>
      <point x="323" y="-10" type="curve" smooth="yes"/>
      <point x="459" y="-10"/>
      <point x="530" y="103"/>
    </contour>
    <contour>
      <point x="396" y="225" type="curve" smooth="yes"/>
      <point x="396" y="133"/>
      <point x="350" y="91"/>
      <point x="291" y="91" type="curve" smooth="yes"/>
      <point x="223" y="91"/>
      <point x="185" y="147"/>
      <point x="185" y="221" type="curve" smooth="yes"/>
      <point x="185" y="232" type="line" smooth="yes"/>
      <point x="185" y="298"/>
      <point x="224" y="358"/>
      <point x="294" y="358" type="curve" smooth="yes"/>
      <point x="356" y="358"/>
      <point x="396" y="311"/>
    </contour>
    <contour>
      <point x="270" y="566" type="move" name="top"/>
    </contour>
  </outline>
</glyph>
<glyph name="e" format="1">
  <advance width="483"/>
  <unicode hex="0065"/>
  <outline>
    <contour>
      <point x="463" y="142" type="curve"/>
      <point x="355" y="162" type="line"/>
      <point x="350" y="135"/>
      <point x="331" y="92"/>
      <point x="262" y="92" type="curve" smooth="yes"/>
      <point x="197" y="92"/>
      <point x="163" y="129"/>
      <point x="156" y="199" type="curve"/>
      <point x="452" y="199" type="line"/>
      <point x="457" y="222"/>
      <point x="459" y="244"/>
      <point x="459" y="264" type="curve" smooth="yes"/>
      <point x="457" y="381"/>
      <point x="372" y="460"/>
      <point x="247" y="460" type="curve" smooth="yes"/>
      <point x="104" y="460"/>
      <point x="21" y="356"/>
      <point x="21" y="217" type="curve" smooth="yes"/>
      <point x="21" y="66"/>
      <point x="119" y="-10"/>
      <point x="253" y="-10" type="curve" smooth="yes"/>
      <point x="383" y="-10"/>
      <point x="457" y="62"/>
    </contour>
    <contour>
      <point x="326" y="274" type="curve"/>
      <point x="157" y="274" type="line"/>
      <point x="165" y="330"/>
      <point x="194" y="368"/>
      <point x="247" y="368" type="curve" smooth="yes"/>
      <point x="308" y="368"/>
      <point x="332" y="319"/>
    </contour>
  </outline>
</glyph>
<glyph name="f" format="1">
  <advance width="343"/>
  <unicode hex="0066"/>
  <outline>
    <contour>
      <point x="269" y="698" type="curve" smooth="yes"/>
      <point x="151" y="698"/>
      <point x="88" y="614"/>
      <point x="88" y="520" type="curve" smooth="yes"/>
      <point x="88" y="451" type="line"/>
      <point x="33" y="451" type="line"/>
      <point x="33" y="359" type="line"/>
      <point x="88" y="359" type="line"/>
      <point x="88" y="97" type="line"/>
      <point x="28" y="97" type="line"/>
      <point x="28" y="0" type="line"/>
      <point x="292" y="0" type="line"/>
      <point x="292" y="97" type="line"/>
      <point x="217" y="97" type="line"/>
      <point x="217" y="359" type="line"/>
      <point x="328" y="359" type="line"/>
      <point x="328" y="451" type="line"/>
      <point x="217" y="451" type="line"/>
      <point x="217" y="541" type="line" smooth="yes"/>
      <point x="217" y="580"/>
      <point x="236" y="601"/>
      <point x="267" y="601" type="curve" smooth="yes"/>
      <point x="277" y="601"/>
      <point x="289" y="599"/>
      <point x="303" y="595" type="curve"/>
      <point x="325" y="524" type="line"/>
      <point x="425" y="535" type="line"/>
      <point x="405" y="657" type="line"/>
      <point x="363" y="688"/>
      <point x="310" y="698"/>
    </contour>
  </outline>
</glyph>
<glyph name="j" format="1">
  <advance width="265"/>
  <unicode hex="006A"/>
  <outline>
    <contour>
      <point x="211" y="16" type="curve" smooth="yes"/>
      <point x="211" y="451" type="line"/>
      <point x="12" y="451" type="line"/>
      <point x="12" y="353" type="line"/>
      <point x="82" y="353" type="line"/>
      <point x="82" y="16" type="line" smooth="yes"/>
      <point x="82" y="-128"/>
      <point x="37" y="-137"/>
      <point x="-18" y="-137" type="curve"/>
      <point x="-14" y="-222" type="line"/>
      <point x="161" y="-239"/>
      <point x="211" y="-154"/>
    </contour>
    <contour>
      <point x="82" y="531" type="line"/>
      <point x="211" y="531" type="line"/>
      <point x="211" y="665" type="line"/>
      <point x="82" y="665" type="line"/>
    </contour>
  </outline>
</glyph>
<glyph name="q" format="1">
  <advance width="551"/>
  <unicode hex="0071"/>
  <outline>
    <contour>
      <point x="555" y="-213" type="line"/>
      <point x="555" y="-113" type="line"/>
      <point x="495" y="-113" type="line"/>
      <point x="495" y="291" type="line" smooth="yes"/>
      <point x="495" y="345"/>
      <point x="502" y="397"/>
      <point x="513" y="451" type="curve"/>
      <point x="388" y="451" type="line"/>
      <point x="382" y="426"/>
      <point x="378" y="401"/>
      <point x="375" y="377" type="curve"/>
      <point x="349" y="427"/>
      <point x="301" y="460"/>
      <point x="228" y="460" type="curve" smooth="yes"/>
      <point x="92" y="460"/>
      <point x="21" y="347"/>
      <point x="21" y="214" type="curve" smooth="yes"/>
      <point x="21" y="73"/>
      <point x="100" y="-10"/>
      <point x="214" y="-10" type="curve" smooth="yes"/>
      <point x="295" y="-10"/>
      <point x="341" y="33"/>
      <point x="366" y="84" type="curve"/>
      <point x="366" y="-113" type="line"/>
      <point x="286" y="-113" type="line"/>
      <point x="286" y="-213" type="line"/>
    </contour>
    <contour>
      <point x="366" y="228" type="line" smooth="yes"/>
      <point x="366" y="161"/>
      <point x="325" y="92"/>
      <point x="255" y="92" type="curve" smooth="yes"/>
      <point x="197" y="92"/>
      <point x="155" y="139"/>
      <point x="155" y="225" type="curve" smooth="yes"/>
      <point x="155" y="317"/>
      <point x="203" y="358"/>
      <point x="262" y="358" type="curve" smooth="yes"/>
      <point x="323" y="358"/>
      <point x="366" y="314"/>
      <point x="366" y="239" type="curve" smooth="yes"/>
    </contour>
  </outline>
</glyph>
<glyph name="u" format="1">
  <advance width="585"/>
  <unicode hex="0075"/>
  <outline>
    <contour>
      <point x="571" y="0" type="line"/>
      <point x="571" y="97" type="line"/>
      <point x="506" y="97" type="line"/>
      <point x="506" y="451" type="line"/>
      <point x="304" y="451" type="line"/>
      <point x="304" y="354" type="line"/>
      <point x="377" y="354" type="line"/>
      <point x="377" y="196" type="line" smooth="yes"/>
      <point x="377" y="133"/>
      <point x="342" y="89"/>
      <point x="280" y="89" type="curve" smooth="yes"/>
      <point x="229" y="89"/>
      <point x="203" y="119"/>
      <point x="203" y="197" type="curve" smooth="yes"/>
      <point x="203" y="451" type="line"/>
      <point x="14" y="451" type="line"/>
      <point x="14" y="354" type="line"/>
      <point x="74" y="354" type="line"/>
      <point x="74" y="147" type="line" smooth="yes"/>
      <point x="74" y="40"/>
      <point x="147" y="-9"/>
      <point x="232" y="-9" type="curve" smooth="yes"/>
      <point x="298" y="-9"/>
      <point x="348" y="19"/>
      <point x="377" y="69" type="curve"/>
      <point x="377" y="0" type="line"/>
    </contour>
    <contour>
      <point x="245" y="566" type="move" name="top"/>
    </contour>
  </outline>
</glyph>
<glyph name="v" format="1">
  <advance width="527"/>
  <unicode hex="0076"/>
  <outline>
    <contour>
      <point x="520" y="354" type="line"/>
      <point x="520" y="451" type="line"/>
      <point x="314" y="451" type="line"/>
      <point x="314" y="354" type="line"/>
      <point x="350" y="354" type="line"/>
      <point x="283" y="165" type="line"/>
      <point x="277" y="165" type="line"/>
      <point x="189" y="354" type="line"/>
      <point x="232" y="354" type="line"/>
      <point x="232" y="451" type="line"/>
      <point x="2" y="451" type="line"/>
      <point x="2" y="354" type="line"/>
      <point x="50" y="354" type="line"/>
      <point x="220" y="0" type="line"/>
      <point x="313" y="0" type="line"/>
      <point x="474" y="354" type="line"/>
    </contour>
  </outline>
</glyph>
<glyph name="bar" format="1">
  <advance width="244"/>
  <unicode hex="007C"/>
  <outline>
    <contour>
      <point x="177" y="730" type="line"/>
      <point x="177" y="-80" type="line"/>
      <point x="67" y="-80" type="line"/>
      <point x="67" y="730" type="line"/>
    </contour>
  </outline>
</glyph>
<glyph name="exclamdown" format="1">
  <advance width="247"/>
  <unicode hex="00A1"/>
  <outline>
    <contour>
      <point x="201" y="-196" type="line"/>
      <point x="171" y="222" type="line"/>
      <point x="77" y="222" type="line"/>
      <point x="47" y="-196" type="line"/>
    </contour>
    <contour>
      <point x="47" y="309" type="line"/>
      <point x="198" y="309" type="line"/>
      <point x="198" y="454" type="line"/>
      <point x="47" y="454" type="line"/>
    </contour>
  </outline>
</glyph>
<glyph name="yen" format="1">
  <advance width="595"/>
  <unicode hex="00A5"/>
  <outline>
    <contour>
      <point x="264" y="423" type="line"/>
      <point x="224" y="423" type="line"/>
      <point x="305" y="306" type="line"/>
      <point x="310" y="306" type="line"/>
      <point x="390" y="423" type="line"/>
      <point x="342" y="423" type="line"/>
      <point x="342" y="521" type="line"/>
      <point x="565" y="521" type="line"/>
      <point x="565" y="423" type="line"/>
      <point x="522" y="423" type="line"/>
      <point x="423" y="286" type="line"/>
      <point x="495" y="286" type="line"/>
      <point x="495" y="219" type="line"/>
      <point x="375" y="219" type="line"/>
      <point x="365" y="204" type="line"/>
      <point x="365" y="190" type="line"/>
      <point x="495" y="190" type="line"/>
      <point x="495" y="123" type="line"/>
      <point x="365" y="123" type="line"/>
      <point x="365" y="98" type="line"/>
      <point x="452" y="98" type="line"/>
      <point x="452" y="0" type="line"/>
      <point x="155" y="0" type="line"/>
      <point x="155" y="98" type="line"/>
      <point x="236" y="98" type="line"/>
      <point x="236" y="123" type="line"/>
      <point x="107" y="123" type="line"/>
      <point x="107" y="190" type="line"/>
      <point x="236" y="190" type="line"/>
      <point x="236" y="206" type="line"/>
      <point x="226" y="219" type="line"/>
      <point x="107" y="219" type="line"/>
      <point x="107" y="286" type="line"/>
      <point x="176" y="286" type="line"/>
      <point x="74" y="423" type="line"/>
      <point x="29" y="423" type="line"/>
      <point x="29" y="521" type="line"/>
      <point x="264" y="521" type="line"/>
    </contour>
  </outline>
</glyph>
<glyph name="brokenbar" format="1">
  <advance width="240"/>
  <unicode hex="00A6"/>
  <outline>
    <contour>
      <point x="175" y="730" type="line"/>
      <point x="175" y="426" type="line"/>
      <point x="65" y="426" type="line"/>
      <point x="65" y="730" type="line"/>
    </contour>
    <contour>
      <point x="175" y="224" type="line"/>
      <point x="175" y="-80" type="line"/>
      <point x="65" y="-80" type="line"/>
      <point x="65" y="224" type="line"/>
    </contour>
  </outline>
</glyph>
<glyph name="ordfeminine" format="1">
  <advance width="375"/>
  <unicode hex="00AA"/>
  <outline>
    <contour>
      <point x="174" y="643" type="curve" smooth="yes"/>
      <point x="225" y="643"/>
      <point x="221" y="606"/>
      <point x="221" y="576" type="curve" smooth="yes"/>
      <point x="221" y="570" type="line"/>
      <point x="206" y="571"/>
      <point x="189" y="572"/>
      <point x="173" y="572" type="curve" smooth="yes"/>
      <point x="101" y="572"/>
      <point x="27" y="555"/>
      <point x="27" y="483" type="curve" smooth="yes"/>
      <point x="27" y="422"/>
      <point x="80" y="398"/>
      <point x="125" y="398" type="curve" smooth="yes"/>
      <point x="175" y="398"/>
      <point x="204" y="427"/>
      <point x="222" y="457" type="curve"/>
      <point x="226" y="421"/>
      <point x="249" y="398"/>
      <point x="291" y="398" type="curve" smooth="yes"/>
      <point x="312" y="398"/>
      <point x="333" y="404"/>
      <point x="351" y="413" type="curve"/>
      <point x="350" y="460" type="line"/>
      <point x="346" y="459"/>
      <point x="343" y="458"/>
      <point x="338" y="458" type="curve" smooth="yes"/>
      <point x="327" y="458"/>
      <point x="321" y="464"/>
      <point x="321" y="480" type="curve" smooth="yes"/>
      <point x="321" y="605" type="line" smooth="yes"/>
      <point x="321" y="668"/>
      <point x="271" y="705"/>
      <point x="185" y="705" type="curve" smooth="yes"/>
      <point x="138" y="705"/>
      <point x="99" y="694"/>
      <point x="57" y="675" type="curve"/>
      <point x="43" y="597" type="line"/>
      <point x="120" y="589" type="line"/>
      <point x="133" y="634" type="line"/>
      <point x="147" y="640"/>
      <point x="159" y="643"/>
    </contour>
    <contour>
      <point x="221" y="523" type="line" smooth="yes"/>
      <point x="217" y="480"/>
      <point x="194" y="463"/>
      <point x="166" y="463" type="curve" smooth="yes"/>
      <point x="144" y="463"/>
      <point x="134" y="473"/>
      <point x="134" y="494" type="curve" smooth="yes"/>
      <point x="134" y="524"/>
      <point x="155" y="531"/>
      <point x="180" y="531" type="curve" smooth="yes"/>
      <point x="194" y="531"/>
      <point x="208" y="529"/>
      <point x="221" y="526" type="curve"/>
    </contour>
  </outline>
</glyph>
<glyph name="macron" format="1">
  <advance width="335"/>
  <unicode hex="00AF"/>
  <outline>
    <contour>
      <point x="310" y="536" type="line"/>
      <point x="310" y="634" type="line"/>
      <point x="42" y="634" type="line"/>
      <point x="42" y="536" type="line"/>
    </contour>
  </outline>
</glyph>
<glyph name="mu" format="1">
  <advance width="592"/>
  <unicode hex="00B5"/>
  <outline>
    <contour>
      <point x="78" y="-213" type="line"/>
      <point x="78" y="353" type="line"/>
      <point x="18" y="353" type="line"/>
      <point x="18" y="451" type="line"/>
      <point x="207" y="451" type="line"/>
      <point x="207" y="197" type="line" smooth="yes"/>
      <point x="207" y="119"/>
      <point x="233" y="89"/>
      <point x="284" y="89" type="curve" smooth="yes"/>
      <point x="344" y="89"/>
      <point x="379" y="131"/>
      <point x="381" y="191" type="curve"/>
      <point x="381" y="353" type="line"/>
      <point x="308" y="353" type="line"/>
      <point x="308" y="451" type="line"/>
      <point x="510" y="451" type="line"/>
      <point x="510" y="98" type="line"/>
      <point x="575" y="98" type="line"/>
      <point x="575" y="0" type="line"/>
      <point x="381" y="0" type="line"/>
      <point x="381" y="69" type="line"/>
      <point x="352" y="19"/>
      <point x="302" y="-9"/>
      <point x="236" y="-9" type="curve" smooth="yes"/>
      <point x="226" y="-9"/>
      <point x="216" y="-8"/>
      <point x="207" y="-7" type="curve"/>
      <point x="207" y="-213" type="line"/>
    </contour>
  </outline>
</glyph>
<glyph name="periodcentered" format="1">
  <advance width="230"/>
  <unicode hex="00B7"/>
  <outline>
    <contour>
      <point x="38" y="251" type="line"/>
      <point x="191" y="251" type="line"/>
      <point x="191" y="414" type="line"/>
      <point x="38" y="414" type="line"/>
    </contour>
  </outline>
</glyph>
<glyph name="cedilla" format="1">
  <advance width="256"/>
  <unicode hex="00B8"/>
  <outline>
    <contour>
      <point x="301" y="-121" type="curve" smooth="yes"/>
      <point x="301" y="-82"/>
      <point x="279" y="-41"/>
      <point x="212" y="-41" type="curve" smooth="yes"/>
      <point x="204" y="-41" type="line"/>
      <point x="204" y="6" type="line"/>
      <point x="116" y="6" type="line"/>
      <point x="116" y="-86" type="line"/>
      <point x="153" y="-86" type="line" smooth="yes"/>
      <point x="185" y="-86"/>
      <point x="192" y="-97"/>
      <point x="192" y="-111" type="curve" smooth="yes"/>
      <point x="192" y="-125"/>
      <point x="184" y="-132"/>
      <point x="156" y="-132" type="curve" smooth="yes"/>
      <point x="119" y="-132"/>
      <point x="93" y="-119"/>
      <point x="78" y="-109" type="curve"/>
      <point x="55" y="-179" type="line"/>
      <point x="77" y="-197"/>
      <point x="122" y="-209"/>
      <point x="171" y="-209" type="curve" smooth="yes"/>
      <point x="235" y="-209"/>
      <point x="301" y="-188"/>
    </contour>
  </outline>
</glyph>
<glyph name="guillemotright" format="1">
  <advance width="471"/>
  <unicode hex="00BB"/>
  <outline>
    <contour>
      <point x="308" y="25" type="line"/>
      <point x="446" y="271" type="line"/>
      <point x="308" y="511" type="line"/>
      <point x="201" y="511" type="line"/>
      <point x="318" y="271" type="line"/>
      <point x="201" y="25" type="line"/>
    </contour>
    <contour>
      <point x="138" y="25" type="line"/>
      <point x="276" y="271" type="line"/>
      <point x="138" y="511" type="line"/>
      <point x="31" y="511" type="line"/>
      <point x="148" y="271" type="line"/>
      <point x="31" y="25" type="line"/>
    </contour>
  </outline>
</glyph>
<glyph name="Ccedilla" format="1">
  <advance width="645"/>
  <unicode hex="00C7"/>
  <outline>
    <contour>
      <point x="472" y="-121" type="curve" smooth="yes"/>
      <point x="472" y="-82"/>
      <point x="450" y="-41"/>
      <point x="383" y="-41" type="curve" smooth="yes"/>
      <point x="375" y="-41" type="line"/>
      <point x="375" y="-9" type="line"/>
      <point x="462" y="-4"/>
      <point x="555" y="26"/>
      <point x="595" y="69" type="curve"/>
      <point x="608" y="222" type="line"/>
      <point x="499" y="232" type="line"/>
      <point x="485" y="135" type="line"/>
      <point x="460" y="120"/>
      <point x="410" y="108"/>
      <point x="361" y="108" type="curve" smooth="yes"/>
      <point x="249" y="108"/>
      <point x="169" y="172"/>
      <point x="169" y="323" type="curve" smooth="yes"/>
      <point x="169" y="465"/>
      <point x="240" y="542"/>
      <point x="352" y="542" type="curve" smooth="yes"/>
      <point x="396" y="542"/>
      <point x="451" y="530"/>
      <point x="485" y="507" type="curve"/>
      <point x="499" y="421" type="line"/>
      <point x="608" y="431" type="line"/>
      <point x="592" y="582" type="line"/>
      <point x="550" y="621"/>
      <point x="469" y="660"/>
      <point x="358" y="660" type="curve" smooth="yes"/>
      <point x="111" y="660"/>
      <point x="25" y="465"/>
      <point x="25" y="314" type="curve" smooth="yes"/>
      <point x="25" y="144"/>
      <point x="134" y="22"/>
      <point x="287" y="-4" type="curve"/>
      <point x="287" y="-86" type="line"/>
      <point x="324" y="-86" type="line" smooth="yes"/>
      <point x="356" y="-86"/>
      <point x="363" y="-97"/>
      <point x="363" y="-111" type="curve" smooth="yes"/>
      <point x="363" y="-125"/>
      <point x="355" y="-132"/>
      <point x="327" y="-132" type="curve" smooth="yes"/>
      <point x="290" y="-132"/>
      <point x="264" y="-119"/>
      <point x="249" y="-109" type="curve"/>
      <point x="226" y="-179" type="line"/>
      <point x="248" y="-197"/>
      <point x="293" y="-209"/>
      <point x="342" y="-209" type="curve" smooth="yes"/>
      <point x="406" y="-209"/>
      <point x="472" y="-188"/>
    </contour>
  </outline>
</glyph>
<glyph name="Igrave" format="1">
  <advance width="352"/>
  <unicode hex="00CC"/>
  <outline>
    <contour>
      <point x="313" y="0" type="line"/>
      <point x="313" y="114" type="line"/>
      <point x="243" y="114" type="line"/>
      <point x="243" y="536" type="line"/>
      <point x="313" y="536" type="line"/>
      <point x="313" y="650" type="line"/>
      <point x="39" y="650" type="line"/>
      <point x="39" y="536" type="line"/>
      <point x="109" y="536" type="line"/>
      <point x="109" y="114" type="line"/>
      <point x="39" y="114" type="line"/>
      <point x="39" y="0" type="line"/>
    </contour>
    <contour>
      <point x="269" y="745" type="line"/>
      <point x="67" y="833" type="line"/>
      <point x="38" y="716" type="line"/>
      <point x="253" y="688" type="line"/>
    </contour>
  </outline>
</glyph>
<glyph name="Ntilde" format="1">
  <advance width="760"/>
  <unicode hex="00D1"/>
  <outline>
    <contour>
      <point x="526" y="820" type="curve"/>
      <point x="472" y="831" type="line"/>
      <point x="463" y="802"/>
      <point x="443" y="793"/>
      <point x="424" y="793" type="curve" smooth="yes"/>
      <point x="390" y="793"/>
      <point x="353" y="824"/>
      <point x="309" y="824" type="curve" smooth="yes"/>
      <point x="241" y="824"/>
      <point x="220" y="751"/>
      <point x="223" y="714" type="curve"/>
      <point x="273" y="698" type="line"/>
      <point x="280" y="724"/>
      <point x="293" y="731"/>
      <point x="315" y="731" type="curve" smooth="yes"/>
      <point x="361" y="731"/>
      <point x="392" y="700"/>
      <point x="441" y="700" type="curve" smooth="yes"/>
      <point x="510" y="700"/>
      <point x="526" y="762"/>
    </contour>
    <contour>
      <point x="733" y="536" type="line"/>
      <point x="733" y="650" type="line"/>
      <point x="444" y="650" type="line"/>
      <point x="444" y="536" type="line"/>
      <point x="538" y="536" type="line"/>
      <point x="538" y="264" type="line"/>
      <point x="534" y="264" type="line"/>
      <point x="206" y="650" type="line"/>
      <point x="29" y="650" type="line"/>
      <point x="29" y="536" type="line"/>
      <point x="110" y="536" type="line"/>
      <point x="110" y="114" type="line"/>
      <point x="40" y="114" type="line"/>
      <point x="40" y="0" type="line"/>
      <point x="325" y="0" type="line"/>
      <point x="325" y="114" type="line"/>
      <point x="235" y="114" type="line"/>
      <point x="235" y="412" type="line"/>
      <point x="239" y="412" type="line"/>
      <point x="588" y="-1" type="line"/>
      <point x="663" y="0" type="line"/>
      <point x="663" y="536" type="line"/>
    </contour>
  </outline>
</glyph>
<glyph name="Ocircumflex" format="1">
  <advance width="711"/>
  <unicode hex="00D4"/>
  <outline>
    <contour>
      <point x="688" y="326" type="curve" smooth="yes"/>
      <point x="688" y="509"/>
      <point x="565" y="660"/>
      <point x="357" y="660" type="curve" smooth="yes"/>
      <point x="153" y="660"/>
      <point x="24" y="514"/>
      <point x="24" y="324" type="curve" smooth="yes"/>
      <point x="24" y="143"/>
      <point x="141" y="-10"/>
      <point x="353" y="-10" type="curve" smooth="yes"/>
      <point x="564" y="-10"/>
      <point x="688" y="142"/>
    </contour>
    <contour>
      <point x="543" y="322" type="curve" smooth="yes"/>
      <point x="543" y="195"/>
      <point x="487" y="108"/>
      <point x="360" y="108" type="curve" smooth="yes"/>
      <point x="223" y="108"/>
      <point x="169" y="209"/>
      <point x="169" y="327" type="curve" smooth="yes"/>
      <point x="169" y="450"/>
      <point x="227" y="542"/>
      <point x="356" y="542" type="curve" smooth="yes"/>
      <point x="477" y="542"/>
      <point x="543" y="460"/>
    </contour>
    <contour>
      <point x="518" y="737" type="line"/>
      <point x="382" y="844" type="line"/>
      <point x="337" y="844" type="line"/>
      <point x="202" y="738" type="line"/>
      <point x="231" y="685" type="line"/>
      <point x="355" y="745" type="line"/>
      <point x="490" y="685" type="line"/>
    </contour>
  </outline>
</glyph>
<glyph name="Odieresis" format="1">
  <advance width="711"/>
  <unicode hex="00D6"/>
  <outline>
    <contour>
      <point x="205" y="705" type="line"/>
      <point x="334" y="705" type="line"/>
      <point x="334" y="839" type="line"/>
      <point x="205" y="839" type="line"/>
    </contour>
    <contour>
      <point x="390" y="705" type="line"/>
      <point x="519" y="705" type="line"/>
      <point x="519" y="839" type="line"/>
      <point x="390" y="839" type="line"/>
    </contour>
    <contour>
      <point x="688" y="326" type="curve" smooth="yes"/>
      <point x="688" y="509"/>
      <point x="565" y="660"/>
      <point x="357" y="660" type="curve" smooth="yes"/>
      <point x="153" y="660"/>
      <point x="24" y="514"/>
      <point x="24" y="324" type="curve" smooth="yes"/>
      <point x="24" y="143"/>
      <point x="141" y="-10"/>
      <point x="353" y="-10" type="curve" smooth="yes"/>
      <point x="564" y="-10"/>
      <point x="688" y="142"/>
    </contour>
    <contour>
      <point x="543" y="322" type="curve" smooth="yes"/>
      <point x="543" y="195"/>
      <point x="487" y="108"/>
      <point x="360" y="108" type="curve" smooth="yes"/>
      <point x="223" y="108"/>
      <point x="169" y="209"/>
      <point x="169" y="327" type="curve" smooth="yes"/>
      <point x="169" y="450"/>
      <point x="227" y="542"/>
      <point x="356" y="542" type="curve" smooth="yes"/>
      <point x="477" y="542"/>
      <point x="543" y="460"/>
    </contour>
  </outline>
</glyph>
<glyph name="multiply" format="1">
  <advance width="372"/>
  <unicode hex="00D7"/>
  <outline>
    <contour>
      <point x="94" y="120" type="line"/>
      <point x="187" y="213" type="line"/>
      <point x="278" y="122" type="line"/>
      <point x="340" y="185" type="line"/>
      <point x="249" y="276" type="line"/>
      <point x="339" y="366" type="line"/>
      <point x="277" y="428" type="line"/>
      <point x="187" y="338" type="line"/>
      <point x="95" y="430" type="line"/>
      <point x="33" y="368" type="line"/>
      <point x="125" y="276" type="line"/>
      <point x="31" y="182" type="line"/>
    </contour>
  </outline>
</glyph>
<glyph name="Oslash" format="1">
  <advance width="714"/>
  <unicode hex="00D8"/>
  <outline>
    <contour>
      <point x="689" y="326" type="curve" smooth="yes"/>
      <point x="689" y="413"/>
      <point x="661" y="494"/>
      <point x="609" y="554" type="curve"/>
      <point x="690" y="650" type="line"/>
      <point x="564" y="650" type="line"/>
      <point x="535" y="614" type="line"/>
      <point x="486" y="643"/>
      <point x="427" y="660"/>
      <point x="358" y="660" type="curve" smooth="yes"/>
      <point x="154" y="660"/>
      <point x="25" y="514"/>
      <point x="25" y="324" type="curve" smooth="yes"/>
      <point x="25" y="236"/>
      <point x="52" y="155"/>
      <point x="105" y="95" type="curve"/>
      <point x="26" y="0" type="line"/>
      <point x="141" y="0" type="line"/>
      <point x="172" y="37" type="line"/>
      <point x="221" y="7"/>
      <point x="282" y="-10"/>
      <point x="354" y="-10" type="curve" smooth="yes"/>
      <point x="565" y="-10"/>
      <point x="689" y="142"/>
    </contour>
    <contour>
      <point x="544" y="322" type="curve" smooth="yes"/>
      <point x="544" y="195"/>
      <point x="488" y="108"/>
      <point x="361" y="108" type="curve" smooth="yes"/>
      <point x="317" y="108"/>
      <point x="282" y="118"/>
      <point x="255" y="135" type="curve"/>
      <point x="519" y="447" type="line"/>
      <point x="535" y="413"/>
      <point x="544" y="371"/>
    </contour>
    <contour>
      <point x="170" y="327" type="curve" smooth="yes"/>
      <point x="170" y="450"/>
      <point x="228" y="542"/>
      <point x="357" y="542" type="curve" smooth="yes"/>
      <point x="395" y="542"/>
      <point x="428" y="533"/>
      <point x="455" y="518" type="curve"/>
      <point x="195" y="204" type="line"/>
      <point x="178" y="240"/>
      <point x="170" y="282"/>
    </contour>
  </outline>
</glyph>
<glyph name="Ucircumflex" format="1">
  <advance width="719"/>
  <unicode hex="00DB"/>
  <outline>
    <contour>
      <point x="692" y="536" type="line"/>
      <point x="692" y="650" type="line"/>
      <point x="433" y="650" type="line"/>
      <point x="433" y="536" type="line"/>
      <point x="509" y="536" type="line"/>
      <point x="509" y="269" type="line" smooth="yes"/>
      <point x="509" y="172"/>
      <point x="465" y="108"/>
      <point x="363" y="108" type="curve" smooth="yes"/>
      <point x="259" y="108"/>
      <point x="220" y="173"/>
      <point x="220" y="262" type="curve" smooth="yes"/>
      <point x="220" y="536" type="line"/>
      <point x="296" y="536" type="line"/>
      <point x="296" y="650" type="line"/>
      <point x="28" y="650" type="line"/>
      <point x="28" y="536" type="line"/>
      <point x="86" y="536" type="line"/>
      <point x="86" y="258" type="line" smooth="yes"/>
      <point x="86" y="118"/>
      <point x="158" y="-10"/>
      <point x="356" y="-10" type="curve" smooth="yes"/>
      <point x="564" y="-10"/>
      <point x="634" y="131"/>
      <point x="634" y="269" type="curve" smooth="yes"/>
      <point x="634" y="536" type="line"/>
    </contour>
    <contour>
      <point x="517" y="737" type="line"/>
      <point x="381" y="844" type="line"/>
      <point x="336" y="844" type="line"/>
      <point x="201" y="738" type="line"/>
      <point x="230" y="685" type="line"/>
      <point x="354" y="745" type="line"/>
      <point x="489" y="685" type="line"/>
    </contour>
  </outline>
</glyph>
<glyph name="Yacute" format="1">
  <advance width="646"/>
  <unicode hex="00DD"/>
  <outline>
    <contour>
      <point x="636" y="536" type="line"/>
      <point x="636" y="650" type="line"/>
      <point x="380" y="650" type="line"/>
      <point x="380" y="536" type="line"/>
      <point x="442" y="536" type="line"/>
      <point x="334" y="372" type="line"/>
      <point x="328" y="372" type="line"/>
      <point x="219" y="536" type="line"/>
      <point x="273" y="536" type="line"/>
      <point x="273" y="650" type="line"/>
      <point x="4" y="650" type="line"/>
      <point x="4" y="536" type="line"/>
      <point x="62" y="536" type="line"/>
      <point x="257" y="255" type="line"/>
      <point x="257" y="114" type="line"/>
      <point x="157" y="114" type="line"/>
      <point x="157" y="0" type="line"/>
      <point x="497" y="0" type="line"/>
      <point x="497" y="114" type="line"/>
      <point x="391" y="114" type="line"/>
      <point x="391" y="254" type="line"/>
      <point x="580" y="536" type="line"/>
    </contour>
    <contour>
      <point x="479" y="716" type="line"/>
      <point x="450" y="833" type="line"/>
      <point x="248" y="745" type="line"/>
      <point x="264" y="688" type="line"/>
    </contour>
  </outline>
</glyph>
<glyph name="agrave" format="1">
  <advance width="506"/>
  <unicode hex="00E0"/>
  <outline>
    <contour>
      <point x="68" y="419" type="curve"/>
      <point x="48" y="302" type="line"/>
      <point x="151" y="291" type="line"/>
      <point x="168" y="355" type="line"/>
      <point x="189" y="366"/>
      <point x="210" y="368"/>
      <point x="237" y="368" type="curve" smooth="yes"/>
      <point x="310" y="368"/>
      <point x="311" y="313"/>
      <point x="311" y="267" type="curve" smooth="yes"/>
      <point x="311" y="252" type="line"/>
      <point x="288" y="255"/>
      <point x="262" y="256"/>
      <point x="237" y="256" type="curve" smooth="yes"/>
      <point x="134" y="256"/>
      <point x="27" y="230"/>
      <point x="27" y="119" type="curve" smooth="yes"/>
      <point x="27" y="25"/>
      <point x="101" y="-10"/>
      <point x="166" y="-10" type="curve" smooth="yes"/>
      <point x="239" y="-10"/>
      <point x="285" y="34"/>
      <point x="311" y="80" type="curve"/>
      <point x="311" y="79" type="line"/>
      <point x="317" y="25"/>
      <point x="350" y="-10"/>
      <point x="410" y="-10" type="curve" smooth="yes"/>
      <point x="438" y="-10"/>
      <point x="467" y="-2"/>
      <point x="491" y="11" type="curve"/>
      <point x="490" y="79" type="line"/>
      <point x="483" y="77"/>
      <point x="477" y="76"/>
      <point x="471" y="76" type="curve" smooth="yes"/>
      <point x="450" y="76"/>
      <point x="440" y="85"/>
      <point x="440" y="111" type="curve" smooth="yes"/>
      <point x="440" y="307" type="line" smooth="yes"/>
      <point x="440" y="410"/>
      <point x="358" y="460"/>
      <point x="261" y="460" type="curve" smooth="yes"/>
      <point x="187" y="460"/>
      <point x="147" y="451"/>
    </contour>
    <contour>
      <point x="332" y="557" type="line"/>
      <point x="170" y="700" type="line"/>
      <point x="103" y="599" type="line"/>
      <point x="298" y="508" type="line"/>
    </contour>
    <contour>
      <point x="311" y="184" type="line" smooth="yes"/>
      <point x="305" y="113"/>
      <point x="258" y="82"/>
      <point x="213" y="82" type="curve" smooth="yes"/>
      <point x="174" y="82"/>
      <point x="160" y="105"/>
      <point x="160" y="134" type="curve" smooth="yes"/>
      <point x="160" y="183"/>
      <point x="200" y="196"/>
      <point x="246" y="196" type="curve" smooth="yes"/>
      <point x="267" y="196"/>
      <point x="290" y="193"/>
      <point x="311" y="190" type="curve"/>
    </contour>
  </outline>
</glyph>
<glyph name="igrave" format="1">
  <advance width="299"/>
  <unicode hex="00EC"/>
  <outline>
    <contour>
      <point x="32" y="98" type="line"/>
      <point x="92" y="98" type="line"/>
      <point x="92" y="353" type="line"/>
      <point x="27" y="353" type="line"/>
      <point x="27" y="451" type="line"/>
      <point x="221" y="451" type="line"/>
      <point x="221" y="98" type="line"/>
      <point x="281" y="98" type="line"/>
      <point x="281" y="0" type="line"/>
      <point x="32" y="0" type="line"/>
    </contour>
    <contour>
      <point x="207" y="557" type="line"/>
      <point x="45" y="700" type="line"/>
      <point x="-22" y="599" type="line"/>
      <point x="173" y="508" type="line"/>
    </contour>
  </outline>
</glyph>
<glyph name="idieresis" format="1">
  <advance width="299"/>
  <unicode hex="00EF"/>
  <outline>
    <contour>
      <point x="32" y="98" type="line"/>
      <point x="92" y="98" type="line"/>
      <point x="92" y="353" type="line"/>
      <point x="27" y="353" type="line"/>
      <point x="27" y="451" type="line"/>
      <point x="221" y="451" type="line"/>
      <point x="221" y="98" type="line"/>
      <point x="281" y="98" type="line"/>
      <point x="281" y="0" type="line"/>
      <point x="32" y="0" type="line"/>
    </contour>
    <contour>
      <point x="174" y="531" type="line"/>
      <point x="303" y="531" type="line"/>
      <point x="303" y="665" type="line"/>
      <point x="174" y="665" type="line"/>
    </contour>
    <contour>
      <point x="-11" y="531" type="line"/>
      <point x="118" y="531" type="line"/>
      <point x="118" y="665" type="line"/>
      <point x="-11" y="665" type="line"/>
    </contour>
  </outline>
</glyph>
<glyph name="eth" format="1">
  <advance width="528"/>
  <unicode hex="00F0"/>
  <outline>
    <contour>
      <point x="116" y="510" type="line"/>
      <point x="159" y="574" type="line"/>
      <point x="102" y="604" type="line"/>
      <point x="157" y="698" type="line"/>
      <point x="178" y="688"/>
      <point x="200" y="677"/>
      <point x="222" y="665" type="curve"/>
      <point x="258" y="718" type="line"/>
      <point x="327" y="678" type="line"/>
      <point x="290" y="623" type="line"/>
      <point x="408" y="540"/>
      <point x="503" y="419"/>
      <point x="503" y="251" type="curve" smooth="yes"/>
      <point x="503" y="225" type="line" smooth="yes"/>
      <point x="503" y="81"/>
      <point x="399" y="-10"/>
      <point x="255" y="-10" type="curve" smooth="yes"/>
      <point x="116" y="-10"/>
      <point x="20" y="75"/>
      <point x="20" y="218" type="curve" smooth="yes"/>
      <point x="20" y="364"/>
      <point x="120" y="460"/>
      <point x="248" y="460" type="curve" smooth="yes"/>
      <point x="272" y="460"/>
      <point x="294" y="456"/>
      <point x="313" y="450" type="curve"/>
      <point x="291" y="481"/>
      <point x="263" y="507"/>
      <point x="227" y="532" type="curve"/>
      <point x="184" y="468" type="line"/>
    </contour>
    <contour>
      <point x="261" y="352" type="curve" smooth="yes"/>
      <point x="196" y="352"/>
      <point x="159" y="310"/>
      <point x="159" y="227" type="curve" smooth="yes"/>
      <point x="159" y="151"/>
      <point x="191" y="98"/>
      <point x="260" y="98" type="curve" smooth="yes"/>
      <point x="324" y="98"/>
      <point x="364" y="144"/>
      <point x="364" y="220" type="curve" smooth="yes"/>
      <point x="364" y="257" type="line" smooth="yes"/>
      <point x="364" y="319"/>
      <point x="318" y="352"/>
    </contour>
  </outline>
</glyph>
<glyph name="ntilde" format="1">
  <advance width="593"/>
  <unicode hex="00F1"/>
  <outline>
    <contour>
      <point x="581" y="0" type="line"/>
      <point x="581" y="97" type="line"/>
      <point x="521" y="97" type="line"/>
      <point x="521" y="304" type="line" smooth="yes"/>
      <point x="521" y="411"/>
      <point x="448" y="460"/>
      <point x="363" y="460" type="curve" smooth="yes"/>
      <point x="297" y="460"/>
      <point x="246" y="431"/>
      <point x="218" y="382" type="curve"/>
      <point x="218" y="451" type="line"/>
      <point x="24" y="451" type="line"/>
      <point x="24" y="353" type="line"/>
      <point x="89" y="353" type="line"/>
      <point x="89" y="97" type="line"/>
      <point x="29" y="97" type="line"/>
      <point x="29" y="0" type="line"/>
      <point x="278" y="0" type="line"/>
      <point x="278" y="97" type="line"/>
      <point x="218" y="97" type="line"/>
      <point x="218" y="259" type="line"/>
      <point x="219" y="320"/>
      <point x="254" y="362"/>
      <point x="315" y="362" type="curve" smooth="yes"/>
      <point x="366" y="362"/>
      <point x="392" y="332"/>
      <point x="392" y="254" type="curve" smooth="yes"/>
      <point x="392" y="97" type="line"/>
      <point x="332" y="97" type="line"/>
      <point x="332" y="0" type="line"/>
    </contour>
    <contour>
      <point x="451" y="647" type="curve"/>
      <point x="397" y="658" type="line"/>
      <point x="388" y="629"/>
      <point x="369" y="617"/>
      <point x="350" y="617" type="curve" smooth="yes"/>
      <point x="316" y="617"/>
      <point x="278" y="655"/>
      <point x="233" y="655" type="curve" smooth="yes"/>
      <point x="167" y="655"/>
      <point x="145" y="569"/>
      <point x="148" y="531" type="curve"/>
      <point x="198" y="515" type="line"/>
      <point x="206" y="544"/>
      <point x="220" y="558"/>
      <point x="243" y="558" type="curve" smooth="yes"/>
      <point x="283" y="558"/>
      <point x="317" y="517"/>
      <point x="368" y="517" type="curve" smooth="yes"/>
      <point x="434" y="517"/>
      <point x="451" y="589"/>
    </contour>
  </outline>
</glyph>
<glyph name="ocircumflex" format="1">
  <advance width="522"/>
  <unicode hex="00F4"/>
  <outline>
    <contour>
      <point x="430" y="557" type="line"/>
      <point x="294" y="684" type="line"/>
      <point x="249" y="684" type="line"/>
      <point x="114" y="558" type="line"/>
      <point x="149" y="507" type="line"/>
      <point x="261" y="575" type="line"/>
      <point x="396" y="508" type="line"/>
    </contour>
    <contour>
      <point x="503" y="225" type="curve" smooth="yes"/>
      <point x="503" y="352"/>
      <point x="425" y="461"/>
      <point x="262" y="461" type="curve" smooth="yes"/>
      <point x="100" y="461"/>
      <point x="20" y="352"/>
      <point x="20" y="220" type="curve" smooth="yes"/>
      <point x="20" y="75"/>
      <point x="116" y="-10"/>
      <point x="255" y="-10" type="curve" smooth="yes"/>
      <point x="399" y="-10"/>
      <point x="503" y="82"/>
    </contour>
    <contour>
      <point x="370" y="229" type="curve" smooth="yes"/>
      <point x="370" y="143"/>
      <point x="326" y="89"/>
      <point x="259" y="89" type="curve" smooth="yes"/>
      <point x="189" y="89"/>
      <point x="153" y="150"/>
      <point x="153" y="227" type="curve" smooth="yes"/>
      <point x="153" y="312"/>
      <point x="194" y="362"/>
      <point x="260" y="362" type="curve" smooth="yes"/>
      <point x="321" y="362"/>
      <point x="370" y="321"/>
    </contour>
  </outline>
</glyph>
<glyph name="divide" format="1">
  <advance width="405"/>
  <unicode hex="00F7"/>
  <outline>
    <contour>
      <point x="376" y="237" type="line"/>
      <point x="376" y="325" type="line"/>
      <point x="29" y="325" type="line"/>
      <point x="29" y="237" type="line"/>
    </contour>
    <contour>
      <point x="126" y="361" type="line"/>
      <point x="279" y="361" type="line"/>
      <point x="279" y="524" type="line"/>
      <point x="126" y="524" type="line"/>
    </contour>
    <contour>
      <point x="126" y="39" type="line"/>
      <point x="279" y="39" type="line"/>
      <point x="279" y="202" type="line"/>
      <point x="126" y="202" type="line"/>
    </contour>
  </outline>
</glyph>
<glyph name="Abreve" format="1">
  <advance width="687"/>
  <unicode hex="0102"/>
  <outline>
    <contour>
      <point x="687" y="0" type="line"/>
      <point x="687" y="114" type="line"/>
      <point x="625" y="114" type="line"/>
      <point x="391" y="650" type="line"/>
      <point x="168" y="650" type="line"/>
      <point x="168" y="536" type="line"/>
      <point x="258" y="536" type="line"/>
      <point x="72" y="114" type="line"/>
      <point x="13" y="114" type="line"/>
      <point x="13" y="0" type="line"/>
      <point x="269" y="0" type="line"/>
      <point x="269" y="114" type="line"/>
      <point x="208" y="114" type="line"/>
      <point x="235" y="180" type="line"/>
      <point x="456" y="180" type="line"/>
      <point x="480" y="114" type="line"/>
      <point x="428" y="114" type="line"/>
      <point x="428" y="0" type="line"/>
    </contour>
    <contour>
      <point x="420" y="276" type="line"/>
      <point x="273" y="276" type="line"/>
      <point x="346" y="459" type="line"/>
      <point x="352" y="459" type="line"/>
    </contour>
    <contour>
      <point x="490" y="833" type="curve"/>
      <point x="388" y="833" type="line"/>
      <point x="388" y="801"/>
      <point x="378" y="772"/>
      <point x="350" y="772" type="curve" smooth="yes"/>
      <point x="324" y="772"/>
      <point x="313" y="797"/>
      <point x="313" y="833" type="curve"/>
      <point x="211" y="833" type="line"/>
      <point x="211" y="741"/>
      <point x="262" y="695"/>
      <point x="350" y="695" type="curve" smooth="yes"/>
      <point x="435" y="695"/>
      <point x="490" y="738"/>
    </contour>
  </outline>
</glyph>
<glyph name="Cacute" format="1">
  <advance width="644"/>
  <unicode hex="0106"/>
  <outline>
    <contour>
      <point x="594" y="69" type="curve"/>
      <point x="607" y="222" type="line"/>
      <point x="498" y="232" type="line"/>
      <point x="484" y="135" type="line"/>
      <point x="459" y="120"/>
      <point x="409" y="108"/>
      <point x="360" y="108" type="curve" smooth="yes"/>
      <point x="248" y="108"/>
      <point x="168" y="172"/>
      <point x="168" y="323" type="curve" smooth="yes"/>
      <point x="168" y="465"/>
      <point x="239" y="542"/>
      <point x="351" y="542" type="curve" smooth="yes"/>
      <point x="395" y="542"/>
      <point x="450" y="530"/>
      <point x="484" y="507" type="curve"/>
      <point x="498" y="421" type="line"/>
      <point x="607" y="431" type="line"/>
      <point x="591" y="582" type="line"/>
      <point x="549" y="621"/>
      <point x="468" y="660"/>
      <point x="357" y="660" type="curve" smooth="yes"/>
      <point x="110" y="660"/>
      <point x="24" y="465"/>
      <point x="24" y="314" type="curve" smooth="yes"/>
      <point x="24" y="121"/>
      <point x="165" y="-10"/>
      <point x="351" y="-10" type="curve" smooth="yes"/>
      <point x="444" y="-10"/>
      <point x="551" y="23"/>
    </contour>
    <contour>
      <point x="520" y="716" type="line"/>
      <point x="491" y="833" type="line"/>
      <point x="289" y="745" type="line"/>
      <point x="305" y="688" type="line"/>
    </contour>
  </outline>
</glyph>
<glyph name="Dcaron" format="1">
  <advance width="698"/>
  <unicode hex="010E"/>
  <outline>
    <contour>
      <point x="457" y="791" type="line"/>
      <point x="428" y="844" type="line"/>
      <point x="306" y="784" type="line"/>
      <point x="169" y="844" type="line"/>
      <point x="141" y="792" type="line"/>
      <point x="277" y="685" type="line"/>
      <point x="322" y="685" type="line"/>
    </contour>
    <contour>
      <point x="673" y="328" type="curve" smooth="yes"/>
      <point x="673" y="520"/>
      <point x="560" y="650"/>
      <point x="337" y="650" type="curve" smooth="yes"/>
      <point x="39" y="650" type="line"/>
      <point x="39" y="536" type="line"/>
      <point x="109" y="536" type="line"/>
      <point x="109" y="114" type="line"/>
      <point x="39" y="114" type="line"/>
      <point x="39" y="0" type="line"/>
      <point x="345" y="0" type="line" smooth="yes"/>
      <point x="550" y="0"/>
      <point x="673" y="130"/>
    </contour>
    <contour>
      <point x="529" y="326" type="curve" smooth="yes"/>
      <point x="529" y="177"/>
      <point x="459" y="114"/>
      <point x="334" y="114" type="curve" smooth="yes"/>
      <point x="243" y="114" type="line"/>
      <point x="243" y="536" type="line"/>
      <point x="334" y="536" type="line" smooth="yes"/>
      <point x="461" y="536"/>
      <point x="529" y="469"/>
    </contour>
  </outline>
</glyph>
<glyph name="dcaron" format="1">
  <advance width="580"/>
  <unicode hex="010F"/>
  <outline>
    <contour>
      <point x="675" y="681" type="line"/>
      <point x="554" y="681" type="line"/>
      <point x="541" y="457" type="line"/>
      <point x="639" y="457" type="line"/>
    </contour>
    <contour>
      <point x="556" y="0" type="line"/>
      <point x="556" y="97" type="line"/>
      <point x="496" y="97" type="line"/>
      <point x="496" y="688" type="line"/>
      <point x="277" y="688" type="line"/>
      <point x="277" y="590" type="line"/>
      <point x="367" y="590" type="line"/>
      <point x="367" y="382" type="line"/>
      <point x="342" y="428"/>
      <point x="297" y="460"/>
      <point x="223" y="460" type="curve" smooth="yes"/>
      <point x="88" y="460"/>
      <point x="22" y="351"/>
      <point x="22" y="217" type="curve" smooth="yes"/>
      <point x="22" y="77"/>
      <point x="95" y="-10"/>
      <point x="213" y="-10" type="curve" smooth="yes"/>
      <point x="295" y="-10"/>
      <point x="341" y="32"/>
      <point x="367" y="84" type="curve"/>
      <point x="367" y="0" type="line"/>
    </contour>
    <contour>
      <point x="367" y="228" type="line" smooth="yes"/>
      <point x="367" y="161"/>
      <point x="325" y="92"/>
      <point x="257" y="92" type="curve" smooth="yes"/>
      <point x="202" y="92"/>
      <point x="156" y="139"/>
      <point x="156" y="225" type="curve" smooth="yes"/>
      <point x="156" y="317"/>
      <point x="207" y="358"/>
      <point x="264" y="358" type="curve" smooth="yes"/>
      <point x="323" y="358"/>
      <point x="367" y="314"/>
      <point x="367" y="239" type="curve" smooth="yes"/>
    </contour>
  </outline>
</glyph>
<glyph name="ebreve" format="1">
  <advance width="483"/>
  <unicode hex="0115"/>
  <outline>
    <contour>
      <point x="463" y="142" type="curve"/>
      <point x="355" y="162" type="line"/>
      <point x="350" y="135"/>
      <point x="331" y="92"/>
      <point x="262" y="92" type="curve" smooth="yes"/>
      <point x="197" y="92"/>
      <point x="163" y="129"/>
      <point x="156" y="199" type="curve"/>
      <point x="452" y="199" type="line"/>
      <point x="457" y="222"/>
      <point x="459" y="244"/>
      <point x="459" y="264" type="curve" smooth="yes"/>
      <point x="457" y="381"/>
      <point x="372" y="460"/>
      <point x="247" y="460" type="curve" smooth="yes"/>
      <point x="104" y="460"/>
      <point x="21" y="356"/>
      <point x="21" y="217" type="curve" smooth="yes"/>
      <point x="21" y="66"/>
      <point x="119" y="-10"/>
      <point x="253" y="-10" type="curve" smooth="yes"/>
      <point x="383" y="-10"/>
      <point x="457" y="62"/>
    </contour>
    <contour>
      <point x="326" y="274" type="curve"/>
      <point x="157" y="274" type="line"/>
      <point x="165" y="330"/>
      <point x="194" y="368"/>
      <point x="247" y="368" type="curve" smooth="yes"/>
      <point x="308" y="368"/>
      <point x="332" y="319"/>
    </contour>
    <contour>
      <point x="394" y="653" type="curve"/>
      <point x="292" y="653" type="line"/>
      <point x="292" y="621"/>
      <point x="282" y="592"/>
      <point x="254" y="592" type="curve" smooth="yes"/>
      <point x="228" y="592"/>
      <point x="217" y="617"/>
      <point x="217" y="653" type="curve"/>
      <point x="115" y="653" type="line"/>
      <point x="115" y="561"/>
      <point x="165" y="515"/>
      <point x="252" y="515" type="curve" smooth="yes"/>
      <point x="336" y="515"/>
      <point x="394" y="558"/>
    </contour>
  </outline>
</glyph>
<glyph name="Edotaccent" format="1">
  <advance width="592"/>
  <unicode hex="0116"/>
  <outline>
    <contour>
      <point x="266" y="705" type="line"/>
      <point x="395" y="705" type="line"/>
      <point x="395" y="839" type="line"/>
      <point x="266" y="839" type="line"/>
    </contour>
    <contour>
      <point x="541" y="0" type="line"/>
      <point x="561" y="190" type="line"/>
      <point x="447" y="200" type="line"/>
      <point x="427" y="114" type="line"/>
      <point x="243" y="114" type="line"/>
      <point x="243" y="270" type="line"/>
      <point x="517" y="270" type="line"/>
      <point x="517" y="383" type="line"/>
      <point x="243" y="383" type="line"/>
      <point x="243" y="536" type="line"/>
      <point x="421" y="536" type="line"/>
      <point x="441" y="450" type="line"/>
      <point x="555" y="460" type="line"/>
      <point x="535" y="650" type="line"/>
      <point x="39" y="650" type="line"/>
      <point x="39" y="536" type="line"/>
      <point x="109" y="536" type="line"/>
      <point x="109" y="114" type="line"/>
      <point x="39" y="114" type="line"/>
      <point x="39" y="0" type="line"/>
    </contour>
  </outline>
</glyph>
<glyph name="Eogonek" format="1">
  <advance width="591"/>
  <unicode hex="0118"/>
  <outline>
    <contour>
      <point x="540" y="0" type="line"/>
      <point x="560" y="190" type="line"/>
      <point x="446" y="200" type="line"/>
      <point x="426" y="114" type="line"/>
      <point x="242" y="114" type="line"/>
      <point x="242" y="270" type="line"/>
      <point x="516" y="270" type="line"/>
      <point x="516" y="383" type="line"/>
      <point x="242" y="383" type="line"/>
      <point x="242" y="536" type="line"/>
      <point x="420" y="536" type="line"/>
      <point x="440" y="450" type="line"/>
      <point x="554" y="460" type="line"/>
      <point x="534" y="650" type="line"/>
      <point x="38" y="650" type="line"/>
      <point x="38" y="536" type="line"/>
      <point x="108" y="536" type="line"/>
      <point x="108" y="114" type="line"/>
      <point x="38" y="114" type="line"/>
      <point x="38" y="0" type="line"/>
      <point x="434" y="0" type="line"/>
      <point x="393" y="-25"/>
      <point x="361" y="-66"/>
      <point x="361" y="-117" type="curve" smooth="yes"/>
      <point x="361" y="-181"/>
      <point x="414" y="-208"/>
      <point x="479" y="-208" type="curve" smooth="yes"/>
      <point x="517" y="-208"/>
      <point x="546" y="-199"/>
      <point x="569" y="-188" type="curve"/>
      <point x="560" y="-106" type="line"/>
      <point x="547" y="-114"/>
      <point x="529" y="-118"/>
      <point x="514" y="-118" type="curve" smooth="yes"/>
      <point x="490" y="-118"/>
      <point x="471" y="-109"/>
      <point x="471" y="-74" type="curve" smooth="yes"/>
      <point x="471" y="-52"/>
      <point x="478" y="-25"/>
      <point x="514" y="0" type="curve"/>
    </contour>
  </outline>
</glyph>
<glyph name="Gbreve" format="1">
  <advance width="682"/>
  <unicode hex="011E"/>
  <outline>
    <contour>
      <point x="505" y="833" type="curve"/>
      <point x="403" y="833" type="line"/>
      <point x="403" y="801"/>
      <point x="393" y="772"/>
      <point x="365" y="772" type="curve" smooth="yes"/>
      <point x="339" y="772"/>
      <point x="328" y="797"/>
      <point x="328" y="833" type="curve"/>
      <point x="226" y="833" type="line"/>
      <point x="226" y="741"/>
      <point x="277" y="695"/>
      <point x="365" y="695" type="curve" smooth="yes"/>
      <point x="450" y="695"/>
      <point x="505" y="738"/>
    </contour>
    <contour>
      <point x="658" y="246" type="line"/>
      <point x="658" y="359" type="line"/>
      <point x="364" y="359" type="line"/>
      <point x="364" y="246" type="line"/>
      <point x="491" y="246" type="line"/>
      <point x="491" y="242" type="line"/>
      <point x="491" y="157"/>
      <point x="435" y="108"/>
      <point x="347" y="108" type="curve" smooth="yes"/>
      <point x="242" y="108"/>
      <point x="169" y="178"/>
      <point x="169" y="322" type="curve" smooth="yes"/>
      <point x="169" y="471"/>
      <point x="247" y="542"/>
      <point x="354" y="542" type="curve" smooth="yes"/>
      <point x="398" y="542"/>
      <point x="458" y="530"/>
      <point x="492" y="507" type="curve"/>
      <point x="510" y="431" type="line"/>
      <point x="618" y="441" type="line"/>
      <point x="600" y="582" type="line"/>
      <point x="557" y="625"/>
      <point x="465" y="660"/>
      <point x="360" y="660" type="curve" smooth="yes"/>
      <point x="140" y="660"/>
      <point x="25" y="506"/>
      <point x="25" y="320" type="curve" smooth="yes"/>
      <point x="25" y="133"/>
      <point x="141" y="-10"/>
      <point x="323" y="-10" type="curve" smooth="yes"/>
      <point x="407" y="-10"/>
      <point x="469" y="21"/>
      <point x="509" y="68" type="curve"/>
      <point x="522" y="0" type="line"/>
      <point x="626" y="0" type="line"/>
      <point x="626" y="246" type="line"/>
    </contour>
  </outline>
</glyph>
<glyph name="hcircumflex" format="1">
  <advance width="582"/>
  <unicode hex="0125"/>
  <outline>
    <contour>
      <point x="277" y="753" type="line"/>
      <point x="141" y="880" type="line"/>
      <point x="96" y="880" type="line"/>
      <point x="-39" y="754" type="line"/>
      <point x="-4" y="703" type="line"/>
      <point x="108" y="771" type="line"/>
      <point x="243" y="704" type="line"/>
    </contour>
    <contour>
      <point x="568" y="0" type="line"/>
      <point x="568" y="97" type="line"/>
      <point x="508" y="97" type="line"/>
      <point x="508" y="304" type="line" smooth="yes"/>
      <point x="508" y="411"/>
      <point x="435" y="460"/>
      <point x="350" y="460" type="curve" smooth="yes"/>
      <point x="284" y="460"/>
      <point x="233" y="431"/>
      <point x="205" y="382" type="curve"/>
      <point x="205" y="688" type="line"/>
      <point x="16" y="688" type="line"/>
      <point x="16" y="590" type="line"/>
      <point x="76" y="590" type="line"/>
      <point x="76" y="97" type="line"/>
      <point x="16" y="97" type="line"/>
      <point x="16" y="0" type="line"/>
      <point x="265" y="0" type="line"/>
      <point x="265" y="97" type="line"/>
      <point x="205" y="97" type="line"/>
      <point x="205" y="264" type="line"/>
      <point x="208" y="322"/>
      <point x="241" y="362"/>
      <point x="300" y="362" type="curve" smooth="yes"/>
      <point x="351" y="362"/>
      <point x="379" y="332"/>
      <point x="379" y="254" type="curve" smooth="yes"/>
      <point x="379" y="97" type="line"/>
      <point x="319" y="97" type="line"/>
      <point x="319" y="0" type="line"/>
    </contour>
  </outline>
</glyph>
<glyph name="Hbar" format="1">
  <advance width="761"/>
  <unicode hex="0126"/>
  <outline>
    <contour>
      <point x="38" y="424" type="line"/>
      <point x="109" y="424" type="line"/>
      <point x="109" y="114" type="line"/>
      <point x="39" y="114" type="line"/>
      <point x="39" y="0" type="line"/>
      <point x="313" y="0" type="line"/>
      <point x="313" y="114" type="line"/>
      <point x="243" y="114" type="line"/>
      <point x="243" y="273" type="line"/>
      <point x="518" y="273" type="line"/>
      <point x="518" y="114" type="line"/>
      <point x="448" y="114" type="line"/>
      <point x="448" y="0" type="line"/>
      <point x="722" y="0" type="line"/>
      <point x="722" y="114" type="line"/>
      <point x="652" y="114" type="line"/>
      <point x="652" y="424" type="line"/>
      <point x="718" y="424" type="line"/>
      <point x="718" y="501" type="line"/>
      <point x="652" y="501" type="line"/>
      <point x="652" y="536" type="line"/>
      <point x="722" y="536" type="line"/>
      <point x="722" y="650" type="line"/>
      <point x="448" y="650" type="line"/>
      <point x="448" y="536" type="line"/>
      <point x="518" y="536" type="line"/>
      <point x="518" y="501" type="line"/>
      <point x="243" y="501" type="line"/>
      <point x="243" y="536" type="line"/>
      <point x="313" y="536" type="line"/>
      <point x="313" y="650" type="line"/>
      <point x="39" y="650" type="line"/>
      <point x="39" y="536" type="line"/>
      <point x="109" y="536" type="line"/>
      <point x="109" y="501" type="line"/>
      <point x="38" y="501" type="line"/>
    </contour>
    <contour>
      <point x="243" y="386" type="line"/>
      <point x="243" y="424" type="line"/>
      <point x="518" y="424" type="line"/>
      <point x="518" y="386" type="line"/>
    </contour>
  </outline>
</glyph>
<glyph name="Itilde" format="1">
  <advance width="352"/>
  <unicode hex="0128"/>
  <outline>
    <contour>
      <point x="313" y="0" type="line"/>
      <point x="313" y="114" type="line"/>
      <point x="243" y="114" type="line"/>
      <point x="243" y="536" type="line"/>
      <point x="313" y="536" type="line"/>
      <point x="313" y="650" type="line"/>
      <point x="39" y="650" type="line"/>
      <point x="39" y="536" type="line"/>
      <point x="109" y="536" type="line"/>
      <point x="109" y="114" type="line"/>
      <point x="39" y="114" type="line"/>
      <point x="39" y="0" type="line"/>
    </contour>
    <contour>
      <point x="332" y="820" type="curve"/>
      <point x="278" y="831" type="line"/>
      <point x="269" y="802"/>
      <point x="249" y="793"/>
      <point x="230" y="793" type="curve" smooth="yes"/>
      <point x="196" y="793"/>
      <point x="159" y="824"/>
      <point x="115" y="824" type="curve" smooth="yes"/>
      <point x="47" y="824"/>
      <point x="26" y="751"/>
      <point x="29" y="714" type="curve"/>
      <point x="79" y="698" type="line"/>
      <point x="86" y="724"/>
      <point x="99" y="731"/>
      <point x="121" y="731" type="curve" smooth="yes"/>
      <point x="167" y="731"/>
      <point x="198" y="700"/>
      <point x="247" y="700" type="curve" smooth="yes"/>
      <point x="316" y="700"/>
      <point x="332" y="762"/>
    </contour>
  </outline>
</glyph>
<glyph name="ij" format="1">
  <advance width="564"/>
  <unicode hex="0133"/>
  <outline>
    <contour>
      <point x="281" y="0" type="line"/>
      <point x="281" y="97" type="line"/>
      <point x="221" y="97" type="line"/>
      <point x="221" y="451" type="line"/>
      <point x="27" y="451" type="line"/>
      <point x="27" y="353" type="line"/>
      <point x="92" y="353" type="line"/>
      <point x="92" y="97" type="line"/>
      <point x="32" y="97" type="line"/>
      <point x="32" y="0" type="line"/>
    </contour>
    <contour>
      <point x="87" y="531" type="line"/>
      <point x="216" y="531" type="line"/>
      <point x="216" y="665" type="line"/>
      <point x="87" y="665" type="line"/>
    </contour>
    <contour>
      <point x="510" y="16" type="curve" smooth="yes"/>
      <point x="510" y="451" type="line"/>
      <point x="311" y="451" type="line"/>
      <point x="311" y="353" type="line"/>
      <point x="381" y="353" type="line"/>
      <point x="381" y="16" type="line" smooth="yes"/>
      <point x="381" y="-128"/>
      <point x="336" y="-137"/>
      <point x="281" y="-137" type="curve"/>
      <point x="285" y="-222" type="line"/>
      <point x="460" y="-239"/>
      <point x="510" y="-154"/>
    </contour>
    <contour>
      <point x="381" y="531" type="line"/>
      <point x="510" y="531" type="line"/>
      <point x="510" y="665" type="line"/>
      <point x="381" y="665" type="line"/>
    </contour>
  </outline>
</glyph>
<glyph name="Jcircumflex" format="1">
  <advance width="487"/>
  <unicode hex="0134"/>
  <outline>
    <contour>
      <point x="457" y="536" type="line"/>
      <point x="457" y="650" type="line"/>
      <point x="149" y="650" type="line"/>
      <point x="149" y="536" type="line"/>
      <point x="263" y="536" type="line"/>
      <point x="263" y="184" type="line" smooth="yes"/>
      <point x="263" y="144"/>
      <point x="241" y="114"/>
      <point x="187" y="114" type="curve" smooth="yes"/>
      <point x="155" y="114"/>
      <point x="122" y="125"/>
      <point x="99" y="184" type="curve"/>
      <point x="5" y="113" type="line"/>
      <point x="33" y="47"/>
      <point x="89" y="-10"/>
      <point x="200" y="-10" type="curve" smooth="yes"/>
      <point x="318" y="-10"/>
      <point x="397" y="54"/>
      <point x="397" y="185" type="curve" smooth="yes"/>
      <point x="397" y="536" type="line"/>
    </contour>
    <contour>
      <point x="469" y="737" type="line"/>
      <point x="333" y="844" type="line"/>
      <point x="288" y="844" type="line"/>
      <point x="153" y="738" type="line"/>
      <point x="182" y="685" type="line"/>
      <point x="306" y="745" type="line"/>
      <point x="441" y="685" type="line"/>
    </contour>
  </outline>
</glyph>
<glyph name="jcircumflex" format="1">
  <advance width="265"/>
  <unicode hex="0135"/>
  <outline>
    <contour>
      <point x="12" y="451" type="line"/>
      <point x="211" y="451" type="line"/>
      <point x="211" y="16" type="line" smooth="yes"/>
      <point x="211" y="-154"/>
      <point x="161" y="-239"/>
      <point x="-14" y="-222" type="curve"/>
      <point x="-18" y="-137" type="line"/>
      <point x="37" y="-137"/>
      <point x="82" y="-128"/>
      <point x="82" y="16" type="curve" smooth="yes"/>
      <point x="82" y="353" type="line"/>
      <point x="12" y="353" type="line"/>
    </contour>
    <contour>
      <point x="289" y="557" type="line"/>
      <point x="153" y="684" type="line"/>
      <point x="108" y="684" type="line"/>
      <point x="-27" y="558" type="line"/>
      <point x="8" y="507" type="line"/>
      <point x="120" y="575" type="line"/>
      <point x="255" y="508" type="line"/>
    </contour>
  </outline>
</glyph>
<glyph name="Lcommaaccent" format="1">
  <advance width="558"/>
  <unicode hex="013B"/>
  <outline>
    <contour>
      <point x="370" y="-58" type="line"/>
      <point x="249" y="-58" type="line"/>
      <point x="246" y="-213" type="line"/>
      <point x="344" y="-213" type="line"/>
    </contour>
    <contour>
      <point x="527" y="0" type="line"/>
      <point x="547" y="230" type="line"/>
      <point x="433" y="240" type="line"/>
      <point x="413" y="114" type="line"/>
      <point x="243" y="114" type="line"/>
      <point x="243" y="536" type="line"/>
      <point x="334" y="536" type="line"/>
      <point x="334" y="650" type="line"/>
      <point x="39" y="650" type="line"/>
      <point x="39" y="536" type="line"/>
      <point x="109" y="536" type="line"/>
      <point x="109" y="114" type="line"/>
      <point x="39" y="114" type="line"/>
      <point x="39" y="0" type="line"/>
    </contour>
  </outline>
</glyph>
<glyph name="lcaron" format="1">
  <advance width="295"/>
  <unicode hex="013E"/>
  <outline>
    <contour>
      <point x="380" y="681" type="line"/>
      <point x="259" y="681" type="line"/>
      <point x="246" y="457" type="line"/>
      <point x="344" y="457" type="line"/>
    </contour>
    <contour>
      <point x="267" y="0" type="line"/>
      <point x="267" y="97" type="line"/>
      <point x="207" y="97" type="line"/>
      <point x="207" y="688" type="line"/>
      <point x="13" y="688" type="line"/>
      <point x="13" y="590" type="line"/>
      <point x="78" y="590" type="line"/>
      <point x="78" y="97" type="line"/>
      <point x="18" y="97" type="line"/>
      <point x="18" y="0" type="line"/>
    </contour>
  </outline>
</glyph>
<glyph name="ldot" format="1">
  <advance width="334"/>
  <unicode hex="0140"/>
  <outline>
    <contour>
      <point x="267" y="0" type="line"/>
      <point x="267" y="97" type="line"/>
      <point x="207" y="97" type="line"/>
      <point x="207" y="688" type="line"/>
      <point x="13" y="688" type="line"/>
      <point x="13" y="590" type="line"/>
      <point x="78" y="590" type="line"/>
      <point x="78" y="97" type="line"/>
      <point x="18" y="97" type="line"/>
      <point x="18" y="0" type="line"/>
    </contour>
    <contour>
      <point x="246" y="271" type="line"/>
      <point x="375" y="271" type="line"/>
      <point x="375" y="405" type="line"/>
      <point x="246" y="405" type="line"/>
    </contour>
  </outline>
</glyph>
<glyph name="Lslash" format="1">
  <advance width="560"/>
  <unicode hex="0141"/>
  <outline>
    <contour>
      <point x="529" y="0" type="line"/>
      <point x="549" y="230" type="line"/>
      <point x="435" y="240" type="line"/>
      <point x="415" y="114" type="line"/>
      <point x="245" y="114" type="line"/>
      <point x="245" y="298" type="line"/>
      <point x="394" y="345" type="line"/>
      <point x="394" y="445" type="line"/>
      <point x="245" y="398" type="line"/>
      <point x="245" y="536" type="line"/>
      <point x="336" y="536" type="line"/>
      <point x="336" y="650" type="line"/>
      <point x="41" y="650" type="line"/>
      <point x="41" y="536" type="line"/>
      <point x="111" y="536" type="line"/>
      <point x="111" y="356" type="line"/>
      <point x="44" y="335" type="line"/>
      <point x="44" y="235" type="line"/>
      <point x="111" y="256" type="line"/>
      <point x="111" y="114" type="line"/>
      <point x="41" y="114" type="line"/>
      <point x="41" y="0" type="line"/>
    </contour>
  </outline>
</glyph>
<glyph name="ncaron" format="1">
  <advance width="593"/>
  <unicode hex="0148"/>
  <outline>
    <contour>
      <point x="457" y="633" type="line"/>
      <point x="422" y="684" type="line"/>
      <point x="310" y="616" type="line"/>
      <point x="175" y="683" type="line"/>
      <point x="141" y="634" type="line"/>
      <point x="277" y="507" type="line"/>
      <point x="322" y="507" type="line"/>
    </contour>
    <contour>
      <point x="581" y="0" type="line"/>
      <point x="581" y="97" type="line"/>
      <point x="521" y="97" type="line"/>
      <point x="521" y="304" type="line" smooth="yes"/>
      <point x="521" y="411"/>
      <point x="448" y="460"/>
      <point x="363" y="460" type="curve" smooth="yes"/>
      <point x="297" y="460"/>
      <point x="246" y="431"/>
      <point x="218" y="382" type="curve"/>
      <point x="218" y="451" type="line"/>
      <point x="24" y="451" type="line"/>
      <point x="24" y="353" type="line"/>
      <point x="89" y="353" type="line"/>
      <point x="89" y="97" type="line"/>
      <point x="29" y="97" type="line"/>
      <point x="29" y="0" type="line"/>
      <point x="278" y="0" type="line"/>
      <point x="278" y="97" type="line"/>
      <point x="218" y="97" type="line"/>
      <point x="218" y="259" type="line"/>
      <point x="219" y="320"/>
      <point x="254" y="362"/>
      <point x="315" y="362" type="curve" smooth="yes"/>
      <point x="366" y="362"/>
      <point x="392" y="332"/>
      <point x="392" y="254" type="curve" smooth="yes"/>
      <point x="392" y="97" type="line"/>
      <point x="332" y="97" type="line"/>
      <point x="332" y="0" type="line"/>
    </contour>
  </outline>
</glyph>
<glyph name="Eng" format="1">
  <advance width="760"/>
  <unicode hex="014A"/>
  <outline>
    <contour>
      <point x="733" y="536" type="line"/>
      <point x="733" y="650" type="line"/>
      <point x="444" y="650" type="line"/>
      <point x="444" y="536" type="line"/>
      <point x="538" y="536" type="line"/>
      <point x="538" y="264" type="line"/>
      <point x="534" y="264" type="line"/>
      <point x="206" y="650" type="line"/>
      <point x="29" y="650" type="line"/>
      <point x="29" y="536" type="line"/>
      <point x="110" y="536" type="line"/>
      <point x="110" y="114" type="line"/>
      <point x="40" y="114" type="line"/>
      <point x="40" y="0" type="line"/>
      <point x="325" y="0" type="line"/>
      <point x="325" y="114" type="line"/>
      <point x="235" y="114" type="line"/>
      <point x="235" y="412" type="line"/>
      <point x="239" y="412" type="line"/>
      <point x="529" y="69" type="line"/>
      <point x="529" y="-8" type="line" smooth="yes"/>
      <point x="529" y="-48"/>
      <point x="507" y="-78"/>
      <point x="453" y="-78" type="curve" smooth="yes"/>
      <point x="421" y="-78"/>
      <point x="388" y="-67"/>
      <point x="365" y="-8" type="curve"/>
      <point x="271" y="-79" type="line"/>
      <point x="299" y="-145"/>
      <point x="355" y="-202"/>
      <point x="466" y="-202" type="curve" smooth="yes"/>
      <point x="584" y="-202"/>
      <point x="663" y="-138"/>
      <point x="663" y="-7" type="curve" smooth="yes"/>
      <point x="663" y="536" type="line"/>
    </contour>
  </outline>
</glyph>
<glyph name="omacron" format="1">
  <advance width="522"/>
  <unicode hex="014D"/>
  <outline>
    <contour>
      <point x="394" y="536" type="line"/>
      <point x="394" y="634" type="line"/>
      <point x="126" y="634" type="line"/>
      <point x="126" y="536" type="line"/>
    </contour>
    <contour>
      <point x="503" y="225" type="curve" smooth="yes"/>
      <point x="503" y="352"/>
      <point x="425" y="461"/>
      <point x="262" y="461" type="curve" smooth="yes"/>
      <point x="100" y="461"/>
      <point x="20" y="352"/>
      <point x="20" y="220" type="curve" smooth="yes"/>
      <point x="20" y="75"/>
      <point x="116" y="-10"/>
      <point x="255" y="-10" type="curve" smooth="yes"/>
      <point x="399" y="-10"/>
      <point x="503" y="82"/>
    </contour>
    <contour>
      <point x="370" y="229" type="curve" smooth="yes"/>
      <point x="370" y="143"/>
      <point x="326" y="89"/>
      <point x="259" y="89" type="curve" smooth="yes"/>
      <point x="189" y="89"/>
      <point x="153" y="150"/>
      <point x="153" y="227" type="curve" smooth="yes"/>
      <point x="153" y="312"/>
      <point x="194" y="362"/>
      <point x="260" y="362" type="curve" smooth="yes"/>
      <point x="321" y="362"/>
      <point x="370" y="321"/>
    </contour>
  </outline>
</glyph>
<glyph name="obreve" format="1">
  <advance width="522"/>
  <unicode hex="014F"/>
  <outline>
    <contour>
      <point x="503" y="225" type="curve" smooth="yes"/>
      <point x="503" y="352"/>
      <point x="425" y="461"/>
      <point x="262" y="461" type="curve" smooth="yes"/>
      <point x="100" y="461"/>
      <point x="20" y="352"/>
      <point x="20" y="220" type="curve" smooth="yes"/>
      <point x="20" y="75"/>
      <point x="116" y="-10"/>
      <point x="255" y="-10" type="curve" smooth="yes"/>
      <point x="399" y="-10"/>
      <point x="503" y="82"/>
    </contour>
    <contour>
      <point x="370" y="229" type="curve" smooth="yes"/>
      <point x="370" y="143"/>
      <point x="326" y="89"/>
      <point x="259" y="89" type="curve" smooth="yes"/>
      <point x="189" y="89"/>
      <point x="153" y="150"/>
      <point x="153" y="227" type="curve" smooth="yes"/>
      <point x="153" y="312"/>
      <point x="194" y="362"/>
      <point x="260" y="362" type="curve" smooth="yes"/>
      <point x="321" y="362"/>
      <point x="370" y="321"/>
    </contour>
    <contour>
      <point x="407" y="653" type="curve"/>
      <point x="305" y="653" type="line"/>
      <point x="305" y="621"/>
      <point x="295" y="592"/>
      <point x="267" y="592" type="curve" smooth="yes"/>
      <point x="241" y="592"/>
      <point x="230" y="617"/>
      <point x="230" y="653" type="curve"/>
      <point x="128" y="653" type="line"/>
      <point x="128" y="561"/>
      <point x="178" y="515"/>
      <point x="265" y="515" type="curve" smooth="yes"/>
      <point x="349" y="515"/>
      <point x="407" y="558"/>
    </contour>
  </outline>
</glyph>
<glyph name="Ohungarumlaut" format="1">
  <advance width="711"/>
  <unicode hex="0150"/>
  <outline>
    <contour>
      <point x="688" y="326" type="curve" smooth="yes"/>
      <point x="688" y="509"/>
      <point x="565" y="660"/>
      <point x="357" y="660" type="curve" smooth="yes"/>
      <point x="153" y="660"/>
      <point x="24" y="514"/>
      <point x="24" y="324" type="curve" smooth="yes"/>
      <point x="24" y="143"/>
      <point x="141" y="-10"/>
      <point x="353" y="-10" type="curve" smooth="yes"/>
      <point x="564" y="-10"/>
      <point x="688" y="142"/>
    </contour>
    <contour>
      <point x="543" y="322" type="curve" smooth="yes"/>
      <point x="543" y="195"/>
      <point x="487" y="108"/>
      <point x="360" y="108" type="curve" smooth="yes"/>
      <point x="223" y="108"/>
      <point x="169" y="209"/>
      <point x="169" y="327" type="curve" smooth="yes"/>
      <point x="169" y="450"/>
      <point x="227" y="542"/>
      <point x="356" y="542" type="curve" smooth="yes"/>
      <point x="477" y="542"/>
      <point x="543" y="460"/>
    </contour>
    <contour>
      <point x="617" y="716" type="line"/>
      <point x="588" y="833" type="line"/>
      <point x="386" y="745" type="line"/>
      <point x="402" y="688" type="line"/>
    </contour>
    <contour>
      <point x="463" y="821" type="line"/>
      <point x="379" y="906" type="line"/>
      <point x="250" y="727" type="line"/>
      <point x="293" y="687" type="line"/>
    </contour>
  </outline>
</glyph>
<glyph name="OE" format="1">
  <advance width="996"/>
  <unicode hex="0152"/>
  <outline>
    <contour>
      <point x="951" y="0" type="line"/>
      <point x="971" y="190" type="line"/>
      <point x="857" y="200" type="line"/>
      <point x="837" y="114" type="line"/>
      <point x="646" y="114" type="line"/>
      <point x="646" y="270" type="line"/>
      <point x="920" y="270" type="line"/>
      <point x="920" y="383" type="line"/>
      <point x="646" y="383" type="line"/>
      <point x="646" y="536" type="line"/>
      <point x="831" y="536" type="line"/>
      <point x="851" y="450" type="line"/>
      <point x="965" y="460" type="line"/>
      <point x="945" y="650" type="line"/>
      <point x="512" y="650" type="line"/>
      <point x="512" y="619" type="line"/>
      <point x="470" y="644"/>
      <point x="422" y="660"/>
      <point x="357" y="660" type="curve" smooth="yes"/>
      <point x="162" y="660"/>
      <point x="23" y="514"/>
      <point x="23" y="324" type="curve" smooth="yes"/>
      <point x="23" y="143"/>
      <point x="149" y="-10"/>
      <point x="357" y="-10" type="curve" smooth="yes"/>
      <point x="423" y="-10"/>
      <point x="471" y="5"/>
      <point x="512" y="29" type="curve"/>
      <point x="512" y="0" type="line"/>
    </contour>
    <contour>
      <point x="512" y="165" type="line"/>
      <point x="484" y="129"/>
      <point x="429" y="108"/>
      <point x="367" y="108" type="curve" smooth="yes"/>
      <point x="225" y="108"/>
      <point x="168" y="219"/>
      <point x="168" y="329" type="curve" smooth="yes"/>
      <point x="168" y="450"/>
      <point x="236" y="542"/>
      <point x="363" y="542" type="curve" smooth="yes"/>
      <point x="422" y="542"/>
      <point x="472" y="522"/>
      <point x="512" y="483" type="curve"/>
    </contour>
  </outline>
</glyph>
<glyph name="oe" format="1">
  <advance width="826"/>
  <unicode hex="0153"/>
  <outline>
    <contour>
      <point x="806" y="142" type="curve"/>
      <point x="698" y="162" type="line"/>
      <point x="693" y="135"/>
      <point x="674" y="92"/>
      <point x="605" y="92" type="curve" smooth="yes"/>
      <point x="544" y="92"/>
      <point x="510" y="125"/>
      <point x="500" y="187" type="curve"/>
      <point x="502" y="199" type="line"/>
      <point x="795" y="199" type="line"/>
      <point x="800" y="222"/>
      <point x="802" y="244"/>
      <point x="802" y="264" type="curve" smooth="yes"/>
      <point x="800" y="381"/>
      <point x="715" y="460"/>
      <point x="590" y="460" type="curve" smooth="yes"/>
      <point x="524" y="460"/>
      <point x="471" y="438"/>
      <point x="433" y="401" type="curve"/>
      <point x="394" y="438"/>
      <point x="337" y="461"/>
      <point x="262" y="461" type="curve" smooth="yes"/>
      <point x="100" y="461"/>
      <point x="20" y="352"/>
      <point x="20" y="220" type="curve" smooth="yes"/>
      <point x="20" y="75"/>
      <point x="116" y="-10"/>
      <point x="255" y="-10" type="curve" smooth="yes"/>
      <point x="324" y="-10"/>
      <point x="384" y="11"/>
      <point x="427" y="49" type="curve"/>
      <point x="469" y="9"/>
      <point x="528" y="-10"/>
      <point x="596" y="-10" type="curve" smooth="yes"/>
      <point x="726" y="-10"/>
      <point x="800" y="62"/>
    </contour>
    <contour>
      <point x="364" y="217" type="curve" smooth="yes"/>
      <point x="364" y="205"/>
      <point x="364" y="195"/>
      <point x="365" y="184" type="curve"/>
      <point x="352" y="125"/>
      <point x="313" y="89"/>
      <point x="259" y="89" type="curve" smooth="yes"/>
      <point x="189" y="89"/>
      <point x="153" y="150"/>
      <point x="153" y="227" type="curve" smooth="yes"/>
      <point x="153" y="312"/>
      <point x="194" y="362"/>
      <point x="260" y="362" type="curve" smooth="yes"/>
      <point x="312" y="362"/>
      <point x="356" y="331"/>
      <point x="367" y="264" type="curve"/>
      <point x="365" y="249"/>
      <point x="364" y="233"/>
    </contour>
    <contour>
      <point x="669" y="274" type="curve"/>
      <point x="500" y="274" type="line"/>
      <point x="508" y="330"/>
      <point x="537" y="368"/>
      <point x="590" y="368" type="curve" smooth="yes"/>
      <point x="651" y="368"/>
      <point x="675" y="319"/>
    </contour>
  </outline>
</glyph>
<glyph name="Racute" format="1">
  <advance width="637"/>
  <unicode hex="0154"/>
  <outline>
    <contour>
      <point x="626" y="0" type="line"/>
      <point x="626" y="114" type="line"/>
      <point x="548" y="114" type="line"/>
      <point x="460" y="276" type="line"/>
      <point x="534" y="305"/>
      <point x="584" y="365"/>
      <point x="584" y="453" type="curve" smooth="yes"/>
      <point x="584" y="584"/>
      <point x="494" y="650"/>
      <point x="333" y="650" type="curve" smooth="yes"/>
      <point x="39" y="650" type="line"/>
      <point x="39" y="536" type="line"/>
      <point x="109" y="536" type="line"/>
      <point x="109" y="114" type="line"/>
      <point x="39" y="114" type="line"/>
      <point x="39" y="0" type="line"/>
      <point x="313" y="0" type="line"/>
      <point x="313" y="114" type="line"/>
      <point x="243" y="114" type="line"/>
      <point x="243" y="248" type="line"/>
      <point x="331" y="248" type="line"/>
      <point x="460" y="0" type="line"/>
    </contour>
    <contour>
      <point x="440" y="450" type="curve" smooth="yes"/>
      <point x="440" y="388"/>
      <point x="409" y="354"/>
      <point x="307" y="354" type="curve" smooth="yes"/>
      <point x="243" y="354" type="line"/>
      <point x="243" y="536" type="line"/>
      <point x="309" y="536" type="line" smooth="yes"/>
      <point x="407" y="536"/>
      <point x="440" y="515"/>
    </contour>
    <contour>
      <point x="452" y="716" type="line"/>
      <point x="423" y="833" type="line"/>
      <point x="221" y="745" type="line"/>
      <point x="237" y="688" type="line"/>
    </contour>
  </outline>
</glyph>
<glyph name="rcaron" format="1">
  <advance width="441"/>
  <unicode hex="0159"/>
  <outline>
    <contour>
      <point x="396" y="633" type="line"/>
      <point x="361" y="684" type="line"/>
      <point x="249" y="616" type="line"/>
      <point x="114" y="683" type="line"/>
      <point x="80" y="634" type="line"/>
      <point x="216" y="507" type="line"/>
      <point x="261" y="507" type="line"/>
    </contour>
    <contour>
      <point x="314" y="457" type="curve" smooth="yes"/>
      <point x="253" y="457"/>
      <point x="223" y="417"/>
      <point x="208" y="365" type="curve"/>
      <point x="208" y="451" type="line"/>
      <point x="24" y="451" type="line"/>
      <point x="24" y="353" type="line"/>
      <point x="89" y="353" type="line"/>
      <point x="89" y="97" type="line"/>
      <point x="29" y="97" type="line"/>
      <point x="29" y="0" type="line"/>
      <point x="298" y="0" type="line"/>
      <point x="298" y="97" type="line"/>
      <point x="218" y="97" type="line"/>
      <point x="218" y="285" type="line" smooth="yes"/>
      <point x="218" y="329"/>
      <point x="244" y="352"/>
      <point x="273" y="352" type="curve" smooth="yes"/>
      <point x="285" y="352"/>
      <point x="295" y="348"/>
      <point x="308" y="340" type="curve"/>
      <point x="325" y="263" type="line"/>
      <point x="423" y="274" type="line"/>
      <point x="403" y="432" type="line"/>
      <point x="372" y="450"/>
      <point x="339" y="457"/>
    </contour>
  </outline>
</glyph>
<glyph name="scircumflex" format="1">
  <advance width="459"/>
  <unicode hex="015D"/>
  <outline>
    <contour>
      <point x="397" y="557" type="line"/>
      <point x="261" y="684" type="line"/>
      <point x="216" y="684" type="line"/>
      <point x="81" y="558" type="line"/>
      <point x="116" y="507" type="line"/>
      <point x="228" y="575" type="line"/>
      <point x="363" y="508" type="line"/>
    </contour>
    <contour>
      <point x="435" y="138" type="curve" smooth="yes"/>
      <point x="435" y="312"/>
      <point x="172" y="246"/>
      <point x="172" y="324" type="curve" smooth="yes"/>
      <point x="172" y="354"/>
      <point x="199" y="367"/>
      <point x="232" y="367" type="curve"/>
      <point x="253" y="367"/>
      <point x="279" y="364"/>
      <point x="303" y="356" type="curve"/>
      <point x="311" y="293" type="line"/>
      <point x="411" y="304" type="line"/>
      <point x="400" y="419" type="line"/>
      <point x="344" y="448"/>
      <point x="291" y="460"/>
      <point x="231" y="460" type="curve" smooth="yes"/>
      <point x="139" y="460"/>
      <point x="33" y="431"/>
      <point x="33" y="320" type="curve" smooth="yes"/>
      <point x="33" y="141"/>
      <point x="305" y="209"/>
      <point x="305" y="132" type="curve" smooth="yes"/>
      <point x="305" y="100"/>
      <point x="263" y="84"/>
      <point x="214" y="84" type="curve" smooth="yes"/>
      <point x="200" y="84"/>
      <point x="170" y="85"/>
      <point x="146" y="93" type="curve"/>
      <point x="146" y="149" type="line"/>
      <point x="46" y="160" type="line"/>
      <point x="28" y="34" type="line"/>
      <point x="88" y="3"/>
      <point x="156" y="-10"/>
      <point x="221" y="-10" type="curve" smooth="yes"/>
      <point x="347" y="-10"/>
      <point x="435" y="38"/>
    </contour>
  </outline>
</glyph>
<glyph name="Tcommaaccent" format="1">
  <advance width="651"/>
  <unicode hex="0162"/>
  <outline>
    <contour>
      <point x="385" y="-58" type="line"/>
      <point x="264" y="-58" type="line"/>
      <point x="261" y="-213" type="line"/>
      <point x="359" y="-213" type="line"/>
    </contour>
    <contour>
      <point x="629" y="430" type="line"/>
      <point x="609" y="650" type="line"/>
      <point x="41" y="650" type="line"/>
      <point x="21" y="430" type="line"/>
      <point x="135" y="420" type="line"/>
      <point x="155" y="536" type="line"/>
      <point x="258" y="536" type="line"/>
      <point x="258" y="114" type="line"/>
      <point x="158" y="114" type="line"/>
      <point x="158" y="0" type="line"/>
      <point x="498" y="0" type="line"/>
      <point x="498" y="114" type="line"/>
      <point x="392" y="114" type="line"/>
      <point x="392" y="536" type="line"/>
      <point x="495" y="536" type="line"/>
      <point x="515" y="420" type="line"/>
    </contour>
  </outline>
</glyph>
<glyph name="tbar" format="1">
  <advance width="401"/>
  <unicode hex="0167"/>
  <outline>
    <contour>
      <point x="18" y="213" type="line"/>
      <point x="73" y="213" type="line"/>
      <point x="73" y="135" type="line" smooth="yes"/>
      <point x="73" y="42"/>
      <point x="141" y="-10"/>
      <point x="241" y="-10" type="curve" smooth="yes"/>
      <point x="335" y="-10"/>
      <point x="396" y="36"/>
      <point x="409" y="140" type="curve"/>
      <point x="315" y="169" type="line"/>
      <point x="307" y="102"/>
      <point x="272" y="98"/>
      <point x="256" y="98" type="curve" smooth="yes"/>
      <point x="224" y="98"/>
      <point x="202" y="114"/>
      <point x="202" y="157" type="curve" smooth="yes"/>
      <point x="202" y="213" type="line"/>
      <point x="346" y="213" type="line"/>
      <point x="346" y="300" type="line"/>
      <point x="202" y="300" type="line"/>
      <point x="202" y="359" type="line"/>
      <point x="364" y="359" type="line"/>
      <point x="364" y="451" type="line"/>
      <point x="202" y="451" type="line"/>
      <point x="202" y="588" type="line"/>
      <point x="73" y="588" type="line"/>
      <point x="73" y="451" type="line"/>
      <point x="9" y="451" type="line"/>
      <point x="9" y="359" type="line"/>
      <point x="73" y="359" type="line"/>
      <point x="73" y="300" type="line"/>
      <point x="18" y="300" type="line"/>
    </contour>
  </outline>
</glyph>
<glyph name="Utilde" format="1">
  <advance width="719"/>
  <unicode hex="0168"/>
  <outline>
    <contour>
      <point x="522" y="820" type="curve"/>
      <point x="468" y="831" type="line"/>
      <point x="459" y="802"/>
      <point x="439" y="793"/>
      <point x="420" y="793" type="curve" smooth="yes"/>
      <point x="386" y="793"/>
      <point x="349" y="824"/>
      <point x="305" y="824" type="curve" smooth="yes"/>
      <point x="237" y="824"/>
      <point x="216" y="751"/>
      <point x="219" y="714" type="curve"/>
      <point x="269" y="698" type="line"/>
      <point x="276" y="724"/>
      <point x="289" y="731"/>
      <point x="311" y="731" type="curve" smooth="yes"/>
      <point x="357" y="731"/>
      <point x="388" y="700"/>
      <point x="437" y="700" type="curve" smooth="yes"/>
      <point x="506" y="700"/>
      <point x="522" y="762"/>
    </contour>
    <contour>
      <point x="692" y="536" type="line"/>
      <point x="692" y="650" type="line"/>
      <point x="433" y="650" type="line"/>
      <point x="433" y="536" type="line"/>
      <point x="509" y="536" type="line"/>
      <point x="509" y="269" type="line" smooth="yes"/>
      <point x="509" y="172"/>
      <point x="465" y="108"/>
      <point x="363" y="108" type="curve" smooth="yes"/>
      <point x="259" y="108"/>
      <point x="220" y="173"/>
      <point x="220" y="262" type="curve" smooth="yes"/>
      <point x="220" y="536" type="line"/>
      <point x="296" y="536" type="line"/>
      <point x="296" y="650" type="line"/>
      <point x="28" y="650" type="line"/>
      <point x="28" y="536" type="line"/>
      <point x="86" y="536" type="line"/>
      <point x="86" y="258" type="line" smooth="yes"/>
      <point x="86" y="118"/>
      <point x="158" y="-10"/>
      <point x="356" y="-10" type="curve" smooth="yes"/>
      <point x="564" y="-10"/>
      <point x="634" y="131"/>
      <point x="634" y="269" type="curve" smooth="yes"/>
      <point x="634" y="536" type="line"/>
    </contour>
  </outline>
</glyph>
<glyph name="uogonek" format="1">
  <advance width="585"/>
  <unicode hex="0173"/>
  <outline>
    <contour>
      <point x="571" y="0" type="line"/>
      <point x="571" y="97" type="line"/>
      <point x="506" y="97" type="line"/>
      <point x="506" y="451" type="line"/>
      <point x="304" y="451" type="line"/>
      <point x="304" y="354" type="line"/>
      <point x="377" y="354" type="line"/>
      <point x="377" y="196" type="line" smooth="yes"/>
      <point x="377" y="133"/>
      <point x="342" y="89"/>
      <point x="280" y="89" type="curve" smooth="yes"/>
      <point x="229" y="89"/>
      <point x="203" y="119"/>
      <point x="203" y="197" type="curve" smooth="yes"/>
      <point x="203" y="451" type="line"/>
      <point x="14" y="451" type="line"/>
      <point x="14" y="354" type="line"/>
      <point x="74" y="354" type="line"/>
      <point x="74" y="147" type="line" smooth="yes"/>
      <point x="74" y="40"/>
      <point x="147" y="-9"/>
      <point x="232" y="-9" type="curve" smooth="yes"/>
      <point x="298" y="-9"/>
      <point x="348" y="19"/>
      <point x="377" y="69" type="curve"/>
      <point x="377" y="0" type="line"/>
      <point x="428" y="0" type="line"/>
      <point x="387" y="-25"/>
      <point x="355" y="-66"/>
      <point x="355" y="-117" type="curve" smooth="yes"/>
      <point x="355" y="-181"/>
      <point x="408" y="-208"/>
      <point x="473" y="-208" type="curve" smooth="yes"/>
      <point x="511" y="-208"/>
      <point x="540" y="-199"/>
      <point x="563" y="-188" type="curve"/>
      <point x="554" y="-106" type="line"/>
      <point x="541" y="-114"/>
      <point x="523" y="-118"/>
      <point x="508" y="-118" type="curve" smooth="yes"/>
      <point x="484" y="-118"/>
      <point x="465" y="-109"/>
      <point x="465" y="-74" type="curve" smooth="yes"/>
      <point x="465" y="-52"/>
      <point x="472" y="-25"/>
      <point x="508" y="0" type="curve"/>
    </contour>
  </outline>
</glyph>
<glyph name="Wcircumflex" format="1">
  <advance width="988"/>
  <unicode hex="0174"/>
  <outline>
    <contour>
      <point x="977" y="536" type="line"/>
      <point x="977" y="650" type="line"/>
      <point x="721" y="650" type="line"/>
      <point x="721" y="536" type="line"/>
      <point x="791" y="536" type="line"/>
      <point x="705" y="216" type="line"/>
      <point x="699" y="216" type="line"/>
      <point x="584" y="536" type="line"/>
      <point x="630" y="536" type="line"/>
      <point x="630" y="650" type="line"/>
      <point x="371" y="650" type="line"/>
      <point x="371" y="536" type="line"/>
      <point x="422" y="536" type="line"/>
      <point x="306" y="222" type="line"/>
      <point x="300" y="222" type="line"/>
      <point x="203" y="536" type="line"/>
      <point x="263" y="536" type="line"/>
      <point x="263" y="650" type="line"/>
      <point x="4" y="650" type="line"/>
      <point x="4" y="536" type="line"/>
      <point x="60" y="536" type="line"/>
      <point x="250" y="0" type="line"/>
      <point x="347" y="0" type="line"/>
      <point x="493" y="420" type="line"/>
      <point x="498" y="420" type="line"/>
      <point x="651" y="0" type="line"/>
      <point x="746" y="0" type="line"/>
      <point x="925" y="536" type="line"/>
    </contour>
    <contour>
      <point x="664" y="737" type="line"/>
      <point x="528" y="844" type="line"/>
      <point x="483" y="844" type="line"/>
      <point x="348" y="738" type="line"/>
      <point x="377" y="685" type="line"/>
      <point x="501" y="745" type="line"/>
      <point x="636" y="685" type="line"/>
    </contour>
  </outline>
</glyph>
<glyph name="wcircumflex" format="1">
  <advance width="761"/>
  <unicode hex="0175"/>
  <outline>
    <contour>
      <point x="551" y="557" type="line"/>
      <point x="415" y="684" type="line"/>
      <point x="370" y="684" type="line"/>
      <point x="235" y="558" type="line"/>
      <point x="270" y="507" type="line"/>
      <point x="382" y="575" type="line"/>
      <point x="517" y="508" type="line"/>
    </contour>
    <contour>
      <point x="752" y="354" type="line"/>
      <point x="752" y="451" type="line"/>
      <point x="536" y="451" type="line"/>
      <point x="536" y="354" type="line"/>
      <point x="595" y="354" type="line"/>
      <point x="558" y="182" type="line"/>
      <point x="552" y="182" type="line"/>
      <point x="429" y="451" type="line"/>
      <point x="352" y="451" type="line"/>
      <point x="246" y="178" type="line"/>
      <point x="240" y="178" type="line"/>
      <point x="185" y="354" type="line"/>
      <point x="247" y="354" type="line"/>
      <point x="247" y="451" type="line"/>
      <point x="7" y="451" type="line"/>
      <point x="7" y="354" type="line"/>
      <point x="48" y="354" type="line"/>
      <point x="173" y="0" type="line"/>
      <point x="264" y="0" type="line"/>
      <point x="370" y="270" type="line"/>
      <point x="376" y="270" type="line"/>
      <point x="493" y="0" type="line"/>
      <point x="589" y="0" type="line"/>
      <point x="711" y="354" type="line"/>
    </contour>
  </outline>
</glyph>
<glyph name="Ydieresis" format="1">
  <advance width="646"/>
  <unicode hex="0178"/>
  <outline>
    <contour>
      <point x="636" y="536" type="line"/>
      <point x="636" y="650" type="line"/>
      <point x="380" y="650" type="line"/>
      <point x="380" y="536" type="line"/>
      <point x="442" y="536" type="line"/>
      <point x="334" y="372" type="line"/>
      <point x="328" y="372" type="line"/>
      <point x="219" y="536" type="line"/>
      <point x="273" y="536" type="line"/>
      <point x="273" y="650" type="line"/>
      <point x="4" y="650" type="line"/>
      <point x="4" y="536" type="line"/>
      <point x="62" y="536" type="line"/>
      <point x="257" y="255" type="line"/>
      <point x="257" y="114" type="line"/>
      <point x="157" y="114" type="line"/>
      <point x="157" y="0" type="line"/>
      <point x="497" y="0" type="line"/>
      <point x="497" y="114" type="line"/>
      <point x="391" y="114" type="line"/>
      <point x="391" y="254" type="line"/>
      <point x="580" y="536" type="line"/>
    </contour>
    <contour>
      <point x="169" y="705" type="line"/>
      <point x="298" y="705" type="line"/>
      <point x="298" y="839" type="line"/>
      <point x="169" y="839" type="line"/>
    </contour>
    <contour>
      <point x="354" y="705" type="line"/>
      <point x="483" y="705" type="line"/>
      <point x="483" y="839" type="line"/>
      <point x="354" y="839" type="line"/>
    </contour>
  </outline>
</glyph>
<glyph name="Zdotaccent" format="1">
  <advance width="589"/>
  <unicode hex="017B"/>
  <outline>
    <contour>
      <point x="246" y="705" type="line"/>
      <point x="375" y="705" type="line"/>
      <point x="375" y="839" type="line"/>
      <point x="246" y="839" type="line"/>
    </contour>
    <contour>
      <point x="550" y="0" type="line"/>
      <point x="570" y="224" type="line"/>
      <point x="456" y="234" type="line"/>
      <point x="436" y="114" type="line"/>
      <point x="214" y="114" type="line"/>
      <point x="214" y="116" type="line"/>
      <point x="549" y="589" type="line"/>
      <point x="547" y="650" type="line"/>
      <point x="61" y="650" type="line"/>
      <point x="41" y="445" type="line"/>
      <point x="155" y="435" type="line"/>
      <point x="175" y="536" type="line"/>
      <point x="351" y="536" type="line"/>
      <point x="351" y="535" type="line"/>
      <point x="21" y="69" type="line"/>
      <point x="24" y="0" type="line"/>
    </contour>
  </outline>
</glyph>
<glyph name="uni01C6" format="1">
  <advance width="1047"/>
  <unicode hex="01C6"/>
  <outline>
    <contour>
      <point x="556" y="0" type="line"/>
      <point x="556" y="97" type="line"/>
      <point x="496" y="97" type="line"/>
      <point x="496" y="688" type="line"/>
      <point x="277" y="688" type="line"/>
      <point x="277" y="590" type="line"/>
      <point x="367" y="590" type="line"/>
      <point x="367" y="382" type="line"/>
      <point x="342" y="428"/>
      <point x="297" y="460"/>
      <point x="223" y="460" type="curve" smooth="yes"/>
      <point x="88" y="460"/>
      <point x="22" y="351"/>
      <point x="22" y="217" type="curve" smooth="yes"/>
      <point x="22" y="77"/>
      <point x="95" y="-10"/>
      <point x="213" y="-10" type="curve" smooth="yes"/>
      <point x="295" y="-10"/>
      <point x="341" y="32"/>
      <point x="367" y="84" type="curve"/>
      <point x="367" y="0" type="line"/>
    </contour>
    <contour>
      <point x="367" y="228" type="line" smooth="yes"/>
      <point x="367" y="161"/>
      <point x="325" y="92"/>
      <point x="257" y="92" type="curve" smooth="yes"/>
      <point x="202" y="92"/>
      <point x="156" y="139"/>
      <point x="156" y="225" type="curve" smooth="yes"/>
      <point x="156" y="317"/>
      <point x="207" y="358"/>
      <point x="264" y="358" type="curve" smooth="yes"/>
      <point x="323" y="358"/>
      <point x="367" y="314"/>
      <point x="367" y="239" type="curve" smooth="yes"/>
    </contour>
    <contour>
      <point x="973" y="633" type="line"/>
      <point x="938" y="684" type="line"/>
      <point x="826" y="616" type="line"/>
      <point x="691" y="683" type="line"/>
      <point x="657" y="634" type="line"/>
      <point x="793" y="507" type="line"/>
      <point x="838" y="507" type="line"/>
    </contour>
    <contour>
      <point x="1000" y="0" type="line"/>
      <point x="1028" y="158" type="line"/>
      <point x="926" y="168" type="line"/>
      <point x="905" y="97" type="line"/>
      <point x="760" y="97" type="line"/>
      <point x="1009" y="383" type="line"/>
      <point x="999" y="451" type="line"/>
      <point x="603" y="451" type="line"/>
      <point x="587" y="293" type="line"/>
      <point x="680" y="285" type="line"/>
      <point x="700" y="354" type="line"/>
      <point x="835" y="354" type="line"/>
      <point x="593" y="68" type="line"/>
      <point x="606" y="0" type="line"/>
    </contour>
  </outline>
</glyph>
<glyph name="uni01C7" format="1">
  <advance width="1044"/>
  <unicode hex="01C7"/>
  <outline>
    <contour>
      <point x="527" y="0" type="line"/>
      <point x="547" y="230" type="line"/>
      <point x="433" y="240" type="line"/>
      <point x="413" y="114" type="line"/>
      <point x="243" y="114" type="line"/>
      <point x="243" y="536" type="line"/>
      <point x="334" y="536" type="line"/>
      <point x="334" y="650" type="line"/>
      <point x="39" y="650" type="line"/>
      <point x="39" y="536" type="line"/>
      <point x="109" y="536" type="line"/>
      <point x="109" y="114" type="line"/>
      <point x="39" y="114" type="line"/>
      <point x="39" y="0" type="line"/>
    </contour>
    <contour>
      <point x="1015" y="536" type="line"/>
      <point x="1015" y="650" type="line"/>
      <point x="707" y="650" type="line"/>
      <point x="707" y="536" type="line"/>
      <point x="821" y="536" type="line"/>
      <point x="821" y="184" type="line" smooth="yes"/>
      <point x="821" y="144"/>
      <point x="799" y="114"/>
      <point x="745" y="114" type="curve" smooth="yes"/>
      <point x="713" y="114"/>
      <point x="680" y="125"/>
      <point x="657" y="184" type="curve"/>
      <point x="563" y="113" type="line"/>
      <point x="591" y="47"/>
      <point x="647" y="-10"/>
      <point x="758" y="-10" type="curve" smooth="yes"/>
      <point x="876" y="-10"/>
      <point x="955" y="54"/>
      <point x="955" y="185" type="curve" smooth="yes"/>
      <point x="955" y="536" type="line"/>
    </contour>
  </outline>
</glyph>
<glyph name="uni01C9" format="1">
  <advance width="550"/>
  <unicode hex="01C9"/>
  <outline>
    <contour>
      <point x="267" y="0" type="line"/>
      <point x="267" y="97" type="line"/>
      <point x="207" y="97" type="line"/>
      <point x="207" y="688" type="line"/>
      <point x="13" y="688" type="line"/>
      <point x="13" y="590" type="line"/>
      <point x="78" y="590" type="line"/>
      <point x="78" y="97" type="line"/>
      <point x="18" y="97" type="line"/>
      <point x="18" y="0" type="line"/>
    </contour>
    <contour>
      <point x="496" y="16" type="curve" smooth="yes"/>
      <point x="496" y="451" type="line"/>
      <point x="297" y="451" type="line"/>
      <point x="297" y="353" type="line"/>
      <point x="367" y="353" type="line"/>
      <point x="367" y="16" type="line" smooth="yes"/>
      <point x="367" y="-128"/>
      <point x="322" y="-137"/>
      <point x="267" y="-137" type="curve"/>
      <point x="271" y="-222" type="line"/>
      <point x="446" y="-239"/>
      <point x="496" y="-154"/>
    </contour>
    <contour>
      <point x="367" y="531" type="line"/>
      <point x="496" y="531" type="line"/>
      <point x="496" y="665" type="line"/>
      <point x="367" y="665" type="line"/>
    </contour>
  </outline>
</glyph>
<glyph name="uni01CA" format="1">
  <advance width="1233"/>
  <unicode hex="01CA"/>
  <outline>
    <contour>
      <point x="733" y="536" type="line"/>
      <point x="733" y="650" type="line"/>
      <point x="444" y="650" type="line"/>
      <point x="444" y="536" type="line"/>
      <point x="538" y="536" type="line"/>
      <point x="538" y="264" type="line"/>
      <point x="534" y="264" type="line"/>
      <point x="206" y="650" type="line"/>
      <point x="29" y="650" type="line"/>
      <point x="29" y="536" type="line"/>
      <point x="110" y="536" type="line"/>
      <point x="110" y="114" type="line"/>
      <point x="40" y="114" type="line"/>
      <point x="40" y="0" type="line"/>
      <point x="325" y="0" type="line"/>
      <point x="325" y="114" type="line"/>
      <point x="235" y="114" type="line"/>
      <point x="235" y="412" type="line"/>
      <point x="239" y="412" type="line"/>
      <point x="588" y="-1" type="line"/>
      <point x="663" y="0" type="line"/>
      <point x="663" y="536" type="line"/>
    </contour>
    <contour>
      <point x="1204" y="536" type="line"/>
      <point x="1204" y="650" type="line"/>
      <point x="896" y="650" type="line"/>
      <point x="896" y="536" type="line"/>
      <point x="1010" y="536" type="line"/>
      <point x="1010" y="184" type="line" smooth="yes"/>
      <point x="1010" y="144"/>
      <point x="988" y="114"/>
      <point x="934" y="114" type="curve" smooth="yes"/>
      <point x="902" y="114"/>
      <point x="869" y="125"/>
      <point x="846" y="184" type="curve"/>
      <point x="752" y="113" type="line"/>
      <point x="780" y="47"/>
      <point x="836" y="-10"/>
      <point x="947" y="-10" type="curve" smooth="yes"/>
      <point x="1065" y="-10"/>
      <point x="1144" y="54"/>
      <point x="1144" y="185" type="curve" smooth="yes"/>
      <point x="1144" y="536" type="line"/>
    </contour>
  </outline>
</glyph>
<glyph name="uni01CC" format="1">
  <advance width="854"/>
  <unicode hex="01CC"/>
  <outline>
    <contour>
      <point x="581" y="0" type="line"/>
      <point x="581" y="97" type="line"/>
      <point x="521" y="97" type="line"/>
      <point x="521" y="304" type="line" smooth="yes"/>
      <point x="521" y="411"/>
      <point x="448" y="460"/>
      <point x="363" y="460" type="curve" smooth="yes"/>
      <point x="297" y="460"/>
      <point x="246" y="431"/>
      <point x="218" y="382" type="curve"/>
      <point x="218" y="451" type="line"/>
      <point x="24" y="451" type="line"/>
      <point x="24" y="353" type="line"/>
      <point x="89" y="353" type="line"/>
      <point x="89" y="97" type="line"/>
      <point x="29" y="97" type="line"/>
      <point x="29" y="0" type="line"/>
      <point x="278" y="0" type="line"/>
      <point x="278" y="97" type="line"/>
      <point x="218" y="97" type="line"/>
      <point x="218" y="259" type="line"/>
      <point x="219" y="320"/>
      <point x="254" y="362"/>
      <point x="315" y="362" type="curve" smooth="yes"/>
      <point x="366" y="362"/>
      <point x="392" y="332"/>
      <point x="392" y="254" type="curve" smooth="yes"/>
      <point x="392" y="97" type="line"/>
      <point x="332" y="97" type="line"/>
      <point x="332" y="0" type="line"/>
    </contour>
    <contour>
      <point x="800" y="16" type="curve" smooth="yes"/>
      <point x="800" y="451" type="line"/>
      <point x="601" y="451" type="line"/>
      <point x="601" y="353" type="line"/>
      <point x="671" y="353" type="line"/>
      <point x="671" y="16" type="line" smooth="yes"/>
      <point x="671" y="-128"/>
      <point x="626" y="-137"/>
      <point x="571" y="-137" type="curve"/>
      <point x="575" y="-222" type="line"/>
      <point x="750" y="-239"/>
      <point x="800" y="-154"/>
    </contour>
    <contour>
      <point x="671" y="531" type="line"/>
      <point x="800" y="531" type="line"/>
      <point x="800" y="665" type="line"/>
      <point x="671" y="665" type="line"/>
    </contour>
  </outline>
</glyph>
<glyph name="uni01F2" format="1">
  <advance width="1175"/>
  <unicode hex="01F2"/>
  <outline>
    <contour>
      <point x="673" y="328" type="curve" smooth="yes"/>
      <point x="673" y="520"/>
      <point x="560" y="650"/>
      <point x="337" y="650" type="curve" smooth="yes"/>
      <point x="39" y="650" type="line"/>
      <point x="39" y="536" type="line"/>
      <point x="109" y="536" type="line"/>
      <point x="109" y="114" type="line"/>
      <point x="39" y="114" type="line"/>
      <point x="39" y="0" type="line"/>
      <point x="345" y="0" type="line" smooth="yes"/>
      <point x="550" y="0"/>
      <point x="673" y="130"/>
    </contour>
    <contour>
      <point x="529" y="326" type="curve" smooth="yes"/>
      <point x="529" y="177"/>
      <point x="459" y="114"/>
      <point x="334" y="114" type="curve" smooth="yes"/>
      <point x="243" y="114" type="line"/>
      <point x="243" y="536" type="line"/>
      <point x="334" y="536" type="line" smooth="yes"/>
      <point x="461" y="536"/>
      <point x="529" y="469"/>
    </contour>
    <contour>
      <point x="1128" y="0" type="line"/>
      <point x="1156" y="158" type="line"/>
      <point x="1054" y="168" type="line"/>
      <point x="1033" y="97" type="line"/>
      <point x="888" y="97" type="line"/>
      <point x="1137" y="383" type="line"/>
      <point x="1127" y="451" type="line"/>
      <point x="731" y="451" type="line"/>
      <point x="715" y="293" type="line"/>
      <point x="808" y="285" type="line"/>
      <point x="828" y="354" type="line"/>
      <point x="963" y="354" type="line"/>
      <point x="721" y="68" type="line"/>
      <point x="734" y="0" type="line"/>
    </contour>
  </outline>
</glyph>
<glyph name="tilde" format="1">
  <advance width="374"/>
  <unicode hex="02DC"/>
  <outline>
    <contour>
      <point x="340" y="647" type="curve"/>
      <point x="286" y="658" type="line"/>
      <point x="277" y="629"/>
      <point x="258" y="617"/>
      <point x="239" y="617" type="curve" smooth="yes"/>
      <point x="205" y="617"/>
      <point x="167" y="655"/>
      <point x="122" y="655" type="curve" smooth="yes"/>
      <point x="56" y="655"/>
      <point x="34" y="569"/>
      <point x="37" y="531" type="curve"/>
      <point x="87" y="515" type="line"/>
      <point x="95" y="544"/>
      <point x="109" y="558"/>
      <point x="132" y="558" type="curve" smooth="yes"/>
      <point x="172" y="558"/>
      <point x="206" y="517"/>
      <point x="257" y="517" type="curve" smooth="yes"/>
      <point x="323" y="517"/>
      <point x="340" y="589"/>
    </contour>
  </outline>
</glyph>
<glyph name="dotbelowcmb" format="1">
  <advance width="833"/>
  <unicode hex="0323"/>
  <outline>
    <contour>
      <point x="67" y="-196" type="line"/>
      <point x="196" y="-196" type="line"/>
      <point x="196" y="-62" type="line"/>
      <point x="67" y="-62" type="line"/>
    </contour>
  </outline>
</glyph>
<glyph name="uni1E47" format="1">
  <advance width="593"/>
  <unicode hex="1E47"/>
  <outline>
    <contour>
      <point x="581" y="0" type="line"/>
      <point x="581" y="97" type="line"/>
      <point x="521" y="97" type="line"/>
      <point x="521" y="304" type="line" smooth="yes"/>
      <point x="521" y="411"/>
      <point x="448" y="460"/>
      <point x="363" y="460" type="curve" smooth="yes"/>
      <point x="297" y="460"/>
      <point x="246" y="431"/>
      <point x="218" y="382" type="curve"/>
      <point x="218" y="451" type="line"/>
      <point x="24" y="451" type="line"/>
      <point x="24" y="353" type="line"/>
      <point x="89" y="353" type="line"/>
      <point x="89" y="97" type="line"/>
      <point x="29" y="97" type="line"/>
      <point x="29" y="0" type="line"/>
      <point x="278" y="0" type="line"/>
      <point x="278" y="97" type="line"/>
      <point x="218" y="97" type="line"/>
      <point x="218" y="259" type="line"/>
      <point x="219" y="320"/>
      <point x="254" y="362"/>
      <point x="315" y="362" type="curve" smooth="yes"/>
      <point x="366" y="362"/>
      <point x="392" y="332"/>
      <point x="392" y="254" type="curve" smooth="yes"/>
      <point x="392" y="97" type="line"/>
      <point x="332" y="97" type="line"/>
      <point x="332" y="0" type="line"/>
    </contour>
    <contour>
      <point x="240" y="-196" type="line"/>
      <point x="369" y="-196" type="line"/>
      <point x="369" y="-62" type="line"/>
      <point x="240" y="-62" type="line"/>
    </contour>
  </outline>
</glyph>
<glyph name="wgrave" format="1">
  <advance width="761"/>
  <unicode hex="1E81"/>
  <outline>
    <contour>
      <point x="752" y="354" type="line"/>
      <point x="752" y="451" type="line"/>
      <point x="536" y="451" type="line"/>
      <point x="536" y="354" type="line"/>
      <point x="595" y="354" type="line"/>
      <point x="558" y="182" type="line"/>
      <point x="552" y="182" type="line"/>
      <point x="429" y="451" type="line"/>
      <point x="352" y="451" type="line"/>
      <point x="246" y="178" type="line"/>
      <point x="240" y="178" type="line"/>
      <point x="185" y="354" type="line"/>
      <point x="247" y="354" type="line"/>
      <point x="247" y="451" type="line"/>
      <point x="7" y="451" type="line"/>
      <point x="7" y="354" type="line"/>
      <point x="48" y="354" type="line"/>
      <point x="173" y="0" type="line"/>
      <point x="264" y="0" type="line"/>
      <point x="370" y="270" type="line"/>
      <point x="376" y="270" type="line"/>
      <point x="493" y="0" type="line"/>
      <point x="589" y="0" type="line"/>
      <point x="711" y="354" type="line"/>
    </contour>
    <contour>
      <point x="450" y="557" type="line"/>
      <point x="288" y="700" type="line"/>
      <point x="221" y="599" type="line"/>
      <point x="416" y="508" type="line"/>
    </contour>
  </outline>
</glyph>
<glyph name="Wacute" format="1">
  <advance width="988"/>
  <unicode hex="1E82"/>
  <outline>
    <contour>
      <point x="638" y="716" type="line"/>
      <point x="609" y="833" type="line"/>
      <point x="407" y="745" type="line"/>
      <point x="423" y="688" type="line"/>
    </contour>
    <contour>
      <point x="977" y="536" type="line"/>
      <point x="977" y="650" type="line"/>
      <point x="721" y="650" type="line"/>
      <point x="721" y="536" type="line"/>
      <point x="791" y="536" type="line"/>
      <point x="705" y="216" type="line"/>
      <point x="699" y="216" type="line"/>
      <point x="584" y="536" type="line"/>
      <point x="630" y="536" type="line"/>
      <point x="630" y="650" type="line"/>
      <point x="371" y="650" type="line"/>
      <point x="371" y="536" type="line"/>
      <point x="422" y="536" type="line"/>
      <point x="306" y="222" type="line"/>
      <point x="300" y="222" type="line"/>
      <point x="203" y="536" type="line"/>
      <point x="263" y="536" type="line"/>
      <point x="263" y="650" type="line"/>
      <point x="4" y="650" type="line"/>
      <point x="4" y="536" type="line"/>
      <point x="60" y="536" type="line"/>
      <point x="250" y="0" type="line"/>
      <point x="347" y="0" type="line"/>
      <point x="493" y="420" type="line"/>
      <point x="498" y="420" type="line"/>
      <point x="651" y="0" type="line"/>
      <point x="746" y="0" type="line"/>
      <point x="925" y="536" type="line"/>
    </contour>
  </outline>
</glyph>
<glyph name="Wdieresis" format="1">
  <advance width="988"/>
  <unicode hex="1E84"/>
  <outline>
    <contour>
      <point x="346" y="705" type="line"/>
      <point x="475" y="705" type="line"/>
      <point x="475" y="839" type="line"/>
      <point x="346" y="839" type="line"/>
    </contour>
    <contour>
      <point x="531" y="705" type="line"/>
      <point x="660" y="705" type="line"/>
      <point x="660" y="839" type="line"/>
      <point x="531" y="839" type="line"/>
    </contour>
    <contour>
      <point x="977" y="536" type="line"/>
      <point x="977" y="650" type="line"/>
      <point x="721" y="650" type="line"/>
      <point x="721" y="536" type="line"/>
      <point x="791" y="536" type="line"/>
      <point x="705" y="216" type="line"/>
      <point x="699" y="216" type="line"/>
      <point x="584" y="536" type="line"/>
      <point x="630" y="536" type="line"/>
      <point x="630" y="650" type="line"/>
      <point x="371" y="650" type="line"/>
      <point x="371" y="536" type="line"/>
      <point x="422" y="536" type="line"/>
      <point x="306" y="222" type="line"/>
      <point x="300" y="222" type="line"/>
      <point x="203" y="536" type="line"/>
      <point x="263" y="536" type="line"/>
      <point x="263" y="650" type="line"/>
      <point x="4" y="650" type="line"/>
      <point x="4" y="536" type="line"/>
      <point x="60" y="536" type="line"/>
      <point x="250" y="0" type="line"/>
      <point x="347" y="0" type="line"/>
      <point x="493" y="420" type="line"/>
      <point x="498" y="420" type="line"/>
      <point x="651" y="0" type="line"/>
      <point x="746" y="0" type="line"/>
      <point x="925" y="536" type="line"/>
    </contour>
  </outline>
</glyph>
<glyph name="ygrave" format="1">
  <advance width="529"/>
  <unicode hex="1EF3"/>
  <outline>
    <contour>
      <point x="523" y="354" type="line"/>
      <point x="523" y="451" type="line"/>
      <point x="317" y="451" type="line"/>
      <point x="317" y="354" type="line"/>
      <point x="356" y="354" type="line"/>
      <point x="288" y="146" type="line"/>
      <point x="282" y="146" type="line"/>
      <point x="190" y="354" type="line"/>
      <point x="235" y="354" type="line"/>
      <point x="235" y="451" type="line"/>
      <point x="5" y="451" type="line"/>
      <point x="5" y="354" type="line"/>
      <point x="51" y="354" type="line"/>
      <point x="209" y="-7" type="line"/>
      <point x="173" y="-113" type="line"/>
      <point x="101" y="-113" type="line"/>
      <point x="101" y="-213" type="line"/>
      <point x="350" y="-213" type="line"/>
      <point x="350" y="-113" type="line"/>
      <point x="291" y="-113" type="line"/>
      <point x="334" y="0" type="line"/>
      <point x="479" y="354" type="line"/>
    </contour>
    <contour>
      <point x="354" y="557" type="line"/>
      <point x="192" y="700" type="line"/>
      <point x="125" y="599" type="line"/>
      <point x="320" y="508" type="line"/>
    </contour>
  </outline>
</glyph>
<glyph name="quoteleft" format="1">
  <advance width="230"/>
  <unicode hex="2018"/>
  <outline>
    <contour>
      <point x="213" y="639" type="line"/>
      <point x="87" y="639" type="line"/>
      <point x="27" y="405" type="line"/>
      <point x="153" y="405" type="line"/>
    </contour>
  </outline>
</glyph>
<glyph name="quoteright" format="1">
  <advance width="222"/>
  <unicode hex="2019"/>
  <outline>
    <contour>
      <point x="23" y="496" type="line"/>
      <point x="149" y="496" type="line"/>
      <point x="209" y="730" type="line"/>
      <point x="83" y="730" type="line"/>
    </contour>
  </outline>
</glyph>
<glyph name="quotedblleft" format="1">
  <advance width="401"/>
  <unicode hex="201C"/>
  <outline>
    <contour>
      <point x="213" y="669" type="line"/>
      <point x="87" y="669" type="line"/>
      <point x="27" y="435" type="line"/>
      <point x="153" y="435" type="line"/>
    </contour>
    <contour>
      <point x="389" y="669" type="line"/>
      <point x="263" y="669" type="line"/>
      <point x="203" y="435" type="line"/>
      <point x="329" y="435" type="line"/>
    </contour>
  </outline>
</glyph>
<glyph name="ellipsis" format="1">
  <advance width="660"/>
  <unicode hex="2026"/>
  <outline>
    <contour>
      <point x="37" y="0" type="line"/>
      <point x="190" y="0" type="line"/>
      <point x="190" y="163" type="line"/>
      <point x="37" y="163" type="line"/>
    </contour>
    <contour>
      <point x="253" y="0" type="line"/>
      <point x="406" y="0" type="line"/>
      <point x="406" y="163" type="line"/>
      <point x="253" y="163" type="line"/>
    </contour>
    <contour>
      <point x="469" y="0" type="line"/>
      <point x="622" y="0" type="line"/>
      <point x="622" y="163" type="line"/>
      <point x="469" y="163" type="line"/>
    </contour>
  </outline>
</glyph>
<glyph name="guilsinglleft" format="1">
  <advance width="301"/>
  <unicode hex="2039"/>
  <outline>
    <contour>
      <point x="270" y="25" type="line"/>
      <point x="153" y="271" type="line"/>
      <point x="270" y="511" type="line"/>
      <point x="163" y="511" type="line"/>
      <point x="25" y="271" type="line"/>
      <point x="163" y="25" type="line"/>
    </contour>
  </outline>
</glyph>
<glyph name="guilsinglright" format="1">
  <advance width="301"/>
  <unicode hex="203A"/>
  <outline>
    <contour>
      <point x="138" y="25" type="line"/>
      <point x="276" y="271" type="line"/>
      <point x="138" y="511" type="line"/>
      <point x="31" y="511" type="line"/>
      <point x="148" y="271" type="line"/>
      <point x="31" y="25" type="line"/>
    </contour>
  </outline>
</glyph>
<glyph name="fraction" format="1">
  <advance width="160"/>
  <unicode hex="2044"/>
  <outline>
    <contour>
      <point x="310" y="650" type="line"/>
      <point x="119" y="325" type="line"/>
      <point x="-62" y="0" type="line"/>
      <point x="-150" y="0" type="line"/>
      <point x="48" y="337" type="line"/>
      <point x="222" y="650" type="line"/>
    </contour>
  </outline>
</glyph>
<glyph name="zerosuperior" format="1">
  <advance width="391"/>
  <unicode hex="2070"/>
  <outline>
    <contour>
      <point x="26" y="592" type="curve" smooth="yes"/>
      <point x="26" y="685"/>
      <point x="64" y="785"/>
      <point x="196" y="785" type="curve" smooth="yes"/>
      <point x="329" y="785"/>
      <point x="365" y="682"/>
      <point x="365" y="596" type="curve" smooth="yes"/>
      <point x="365" y="493"/>
      <point x="315" y="409"/>
      <point x="192" y="409" type="curve" smooth="yes"/>
      <point x="70" y="409"/>
      <point x="26" y="493"/>
    </contour>
    <contour>
      <point x="135" y="600" type="curve" smooth="yes"/>
      <point x="135" y="540"/>
      <point x="145" y="487"/>
      <point x="193" y="487" type="curve" smooth="yes"/>
      <point x="239" y="487"/>
      <point x="256" y="533"/>
      <point x="256" y="599" type="curve" smooth="yes"/>
      <point x="256" y="664"/>
      <point x="241" y="707"/>
      <point x="195" y="707" type="curve" smooth="yes"/>
      <point x="147" y="707"/>
      <point x="135" y="660"/>
    </contour>
  </outline>
</glyph>
<glyph name="foursuperior" format="1">
  <advance width="370"/>
  <unicode hex="2074"/>
  <outline>
    <contour>
      <point x="189" y="415" type="line"/>
      <point x="290" y="415" type="line"/>
      <point x="290" y="480" type="line"/>
      <point x="341" y="480" type="line"/>
      <point x="348" y="558" type="line"/>
      <point x="290" y="558" type="line"/>
      <point x="290" y="779" type="line"/>
      <point x="120" y="779" type="line"/>
      <point x="14" y="553" type="line"/>
      <point x="24" y="480" type="line"/>
      <point x="189" y="480" type="line"/>
    </contour>
    <contour>
      <point x="173" y="704" type="line"/>
      <point x="189" y="704" type="line"/>
      <point x="189" y="558" type="line"/>
      <point x="102" y="558" type="line"/>
    </contour>
  </outline>
</glyph>
<glyph name="sixsuperior" format="1">
  <advance width="348"/>
  <unicode hex="2076"/>
  <outline>
    <contour>
      <point x="197" y="710" type="curve" smooth="yes"/>
      <point x="221" y="710"/>
      <point x="236" y="703"/>
      <point x="255" y="681" type="curve"/>
      <point x="309" y="738" type="line"/>
      <point x="279" y="769"/>
      <point x="239" y="785"/>
      <point x="190" y="785" type="curve" smooth="yes"/>
      <point x="73" y="785"/>
      <point x="26" y="693"/>
      <point x="26" y="589" type="curve" smooth="yes"/>
      <point x="26" y="484"/>
      <point x="73" y="409"/>
      <point x="174" y="409" type="curve" smooth="yes"/>
      <point x="259" y="409"/>
      <point x="321" y="461"/>
      <point x="321" y="539" type="curve" smooth="yes"/>
      <point x="321" y="591"/>
      <point x="294" y="654"/>
      <point x="213" y="654" type="curve" smooth="yes"/>
      <point x="172" y="654"/>
      <point x="148" y="638"/>
      <point x="135" y="618" type="curve"/>
      <point x="140" y="695"/>
      <point x="162" y="710"/>
    </contour>
    <contour>
      <point x="178" y="583" type="curve" smooth="yes"/>
      <point x="208" y="583"/>
      <point x="218" y="564"/>
      <point x="218" y="535" type="curve" smooth="yes"/>
      <point x="218" y="504"/>
      <point x="206" y="487"/>
      <point x="177" y="487" type="curve" smooth="yes"/>
      <point x="150" y="487"/>
      <point x="138" y="502"/>
      <point x="135" y="543" type="curve"/>
      <point x="137" y="570"/>
      <point x="153" y="583"/>
    </contour>
  </outline>
</glyph>
<glyph name="ninesuperior" format="1">
  <advance width="349"/>
  <unicode hex="2079"/>
  <outline>
    <contour>
      <point x="151" y="484" type="curve" smooth="yes"/>
      <point x="136" y="484"/>
      <point x="112" y="491"/>
      <point x="93" y="513" type="curve"/>
      <point x="39" y="456" type="line"/>
      <point x="69" y="425"/>
      <point x="108" y="409"/>
      <point x="160" y="409" type="curve" smooth="yes"/>
      <point x="275" y="409"/>
      <point x="322" y="488"/>
      <point x="322" y="600" type="curve" smooth="yes"/>
      <point x="322" y="712"/>
      <point x="275" y="785"/>
      <point x="174" y="785" type="curve" smooth="yes"/>
      <point x="89" y="785"/>
      <point x="27" y="733"/>
      <point x="27" y="655" type="curve" smooth="yes"/>
      <point x="27" y="603"/>
      <point x="54" y="540"/>
      <point x="135" y="540" type="curve" smooth="yes"/>
      <point x="175" y="540"/>
      <point x="200" y="555"/>
      <point x="213" y="576" type="curve"/>
      <point x="210" y="500"/>
      <point x="192" y="484"/>
    </contour>
    <contour>
      <point x="170" y="611" type="curve" smooth="yes"/>
      <point x="140" y="611"/>
      <point x="130" y="630"/>
      <point x="130" y="659" type="curve" smooth="yes"/>
      <point x="130" y="690"/>
      <point x="142" y="707"/>
      <point x="171" y="707" type="curve" smooth="yes"/>
      <point x="198" y="707"/>
      <point x="209" y="692"/>
      <point x="213" y="649" type="curve"/>
      <point x="211" y="623"/>
      <point x="194" y="611"/>
    </contour>
  </outline>
</glyph>
<glyph name="minussuperior" format="1">
  <advance width="304"/>
  <unicode hex="207B"/>
  <outline>
    <contour>
      <point x="36" y="567" type="line"/>
      <point x="268" y="567" type="line"/>
      <point x="268" y="628" type="line"/>
      <point x="36" y="628" type="line"/>
    </contour>
  </outline>
</glyph>
<glyph name="oneinferior" format="1">
  <advance width="282"/>
  <unicode hex="2081"/>
  <outline>
    <contour>
      <point x="29" y="75" type="line"/>
      <point x="102" y="75" type="line"/>
      <point x="102" y="289" type="line"/>
      <point x="29" y="289" type="line"/>
      <point x="29" y="364" type="line"/>
      <point x="203" y="364" type="line"/>
      <point x="203" y="75" type="line"/>
      <point x="268" y="75" type="line"/>
      <point x="268" y="0" type="line"/>
      <point x="29" y="0" type="line"/>
    </contour>
  </outline>
</glyph>
<glyph name="twoinferior" format="1">
  <advance width="368"/>
  <unicode hex="2082"/>
  <outline>
    <contour>
      <point x="110" y="239" type="line"/>
      <point x="120" y="284" type="line"/>
      <point x="135" y="292"/>
      <point x="152" y="295"/>
      <point x="166" y="295" type="curve" smooth="yes"/>
      <point x="196" y="295"/>
      <point x="215" y="280"/>
      <point x="215" y="259" type="curve" smooth="yes"/>
      <point x="215" y="208"/>
      <point x="106" y="132"/>
      <point x="25" y="70" type="curve"/>
      <point x="34" y="0" type="line"/>
      <point x="337" y="0" type="line"/>
      <point x="347" y="120" type="line"/>
      <point x="266" y="130" type="line"/>
      <point x="254" y="75" type="line"/>
      <point x="149" y="75" type="line"/>
      <point x="202" y="112"/>
      <point x="326" y="190"/>
      <point x="326" y="272" type="curve" smooth="yes"/>
      <point x="326" y="318"/>
      <point x="288" y="370"/>
      <point x="183" y="370" type="curve" smooth="yes"/>
      <point x="134" y="370"/>
      <point x="83" y="359"/>
      <point x="47" y="344" type="curve"/>
      <point x="33" y="245" type="line"/>
    </contour>
  </outline>
</glyph>
<glyph name="seveninferior" format="1">
  <advance width="321"/>
  <unicode hex="2087"/>
  <outline>
    <contour>
      <point x="20" y="364" type="line"/>
      <point x="20" y="229" type="line"/>
      <point x="107" y="229" type="line"/>
      <point x="107" y="290" type="line"/>
      <point x="205" y="290" type="line"/>
      <point x="83" y="-1" type="line"/>
      <point x="182" y="-1" type="line"/>
      <point x="314" y="324" type="line"/>
      <point x="303" y="364" type="line"/>
    </contour>
  </outline>
</glyph>
<glyph name="nineinferior" format="1">
  <advance width="348"/>
  <unicode hex="2089"/>
  <outline>
    <contour>
      <point x="151" y="69" type="curve" smooth="yes"/>
      <point x="136" y="69"/>
      <point x="112" y="76"/>
      <point x="93" y="98" type="curve"/>
      <point x="39" y="41" type="line"/>
      <point x="69" y="10"/>
      <point x="108" y="-6"/>
      <point x="160" y="-6" type="curve" smooth="yes"/>
      <point x="275" y="-6"/>
      <point x="322" y="73"/>
      <point x="322" y="185" type="curve" smooth="yes"/>
      <point x="322" y="297"/>
      <point x="275" y="370"/>
      <point x="174" y="370" type="curve" smooth="yes"/>
      <point x="89" y="370"/>
      <point x="27" y="318"/>
      <point x="27" y="240" type="curve" smooth="yes"/>
      <point x="27" y="188"/>
      <point x="54" y="125"/>
      <point x="135" y="125" type="curve" smooth="yes"/>
      <point x="175" y="125"/>
      <point x="200" y="140"/>
      <point x="213" y="161" type="curve"/>
      <point x="210" y="85"/>
      <point x="192" y="69"/>
    </contour>
    <contour>
      <point x="170" y="196" type="curve" smooth="yes"/>
      <point x="140" y="196"/>
      <point x="130" y="215"/>
      <point x="130" y="244" type="curve" smooth="yes"/>
      <point x="130" y="275"/>
      <point x="142" y="292"/>
      <point x="171" y="292" type="curve" smooth="yes"/>
      <point x="198" y="292"/>
      <point x="209" y="277"/>
      <point x="213" y="234" type="curve"/>
      <point x="211" y="208"/>
      <point x="194" y="196"/>
    </contour>
  </outline>
</glyph>
<glyph name="plus.inferior" format="1">
  <advance width="275"/>
  <unicode hex="208A"/>
  <outline>
    <contour>
      <point x="22" y="152" type="line"/>
      <point x="106" y="152" type="line"/>
      <point x="106" y="70" type="line"/>
      <point x="173" y="70" type="line"/>
      <point x="173" y="152" type="line"/>
      <point x="254" y="152" type="line"/>
      <point x="254" y="213" type="line"/>
      <point x="173" y="213" type="line"/>
      <point x="173" y="296" type="line"/>
      <point x="106" y="296" type="line"/>
      <point x="106" y="213" type="line"/>
      <point x="22" y="213" type="line"/>
    </contour>
  </outline>
</glyph>
<glyph name="minus.inferior" format="1">
  <advance width="304"/>
  <unicode hex="208B"/>
  <outline>
    <contour>
      <point x="36" y="152" type="line"/>
      <point x="268" y="152" type="line"/>
      <point x="268" y="213" type="line"/>
      <point x="36" y="213" type="line"/>
    </contour>
  </outline>
</glyph>
<glyph name="parenleft.inferior" format="1">
  <advance width="225"/>
  <unicode hex="208D"/>
  <outline>
    <contour>
      <point x="126" y="402" type="curve"/>
      <point x="210" y="402" type="line"/>
      <point x="144" y="324"/>
      <point x="110" y="239"/>
      <point x="110" y="151" type="curve" smooth="yes"/>
      <point x="110" y="64"/>
      <point x="143" y="-25"/>
      <point x="210" y="-102" type="curve"/>
      <point x="125" y="-102" type="line"/>
      <point x="58" y="-20"/>
      <point x="29" y="66"/>
      <point x="29" y="151" type="curve" smooth="yes"/>
      <point x="29" y="237"/>
      <point x="60" y="323"/>
    </contour>
  </outline>
</glyph>
<glyph name="o.inferior" format="1">
  <advance width="371"/>
  <unicode hex="2092"/>
  <outline>
    <contour>
      <point x="19" y="142" type="curve" smooth="yes"/>
      <point x="19" y="228"/>
      <point x="74" y="300"/>
      <point x="186" y="300" type="curve" smooth="yes"/>
      <point x="299" y="300"/>
      <point x="353" y="228"/>
      <point x="353" y="147" type="curve" smooth="yes"/>
      <point x="353" y="52"/>
      <point x="279" y="-7"/>
      <point x="181" y="-7" type="curve" smooth="yes"/>
      <point x="87" y="-7"/>
      <point x="19" y="48"/>
    </contour>
    <contour>
      <point x="127" y="148" type="curve" smooth="yes"/>
      <point x="127" y="101"/>
      <point x="145" y="69"/>
      <point x="184" y="69" type="curve" smooth="yes"/>
      <point x="221" y="69"/>
      <point x="245" y="97"/>
      <point x="245" y="149" type="curve" smooth="yes"/>
      <point x="245" y="205"/>
      <point x="217" y="224"/>
      <point x="185" y="224" type="curve" smooth="yes"/>
      <point x="149" y="224"/>
      <point x="127" y="199"/>
    </contour>
  </outline>
</glyph>
<glyph name="x.inferior" format="1">
  <advance width="388"/>
  <unicode hex="2093"/>
  <outline>
    <contour>
      <point x="21" y="68" type="line"/>
      <point x="62" y="68" type="line"/>
      <point x="143" y="144" type="line"/>
      <point x="53" y="225" type="line"/>
      <point x="26" y="225" type="line"/>
      <point x="26" y="294" type="line"/>
      <point x="185" y="294" type="line"/>
      <point x="185" y="225" type="line"/>
      <point x="169" y="225" type="line"/>
      <point x="203" y="190" type="line"/>
      <point x="240" y="225" type="line"/>
      <point x="222" y="225" type="line"/>
      <point x="222" y="294" type="line"/>
      <point x="358" y="294" type="line"/>
      <point x="358" y="225" type="line"/>
      <point x="330" y="225" type="line"/>
      <point x="251" y="154" type="line"/>
      <point x="343" y="68" type="line"/>
      <point x="368" y="68" type="line"/>
      <point x="368" y="0" type="line"/>
      <point x="208" y="0" type="line"/>
      <point x="208" y="68" type="line"/>
      <point x="228" y="68" type="line"/>
      <point x="190" y="106" type="line"/>
      <point x="152" y="68" type="line"/>
      <point x="169" y="68" type="line"/>
      <point x="169" y="0" type="line"/>
      <point x="21" y="0" type="line"/>
    </contour>
  </outline>
</glyph>
<glyph name="k.inferior" format="1">
  <advance width="395"/>
  <unicode hex="2096"/>
  <outline>
    <contour>
      <point x="208" y="294" type="line"/>
      <point x="364" y="294" type="line"/>
      <point x="364" y="225" type="line"/>
      <point x="331" y="225" type="line"/>
      <point x="275" y="158" type="line"/>
      <point x="356" y="68" type="line"/>
      <point x="377" y="68" type="line"/>
      <point x="377" y="0" type="line"/>
      <point x="218" y="0" type="line"/>
      <point x="218" y="68" type="line"/>
      <point x="243" y="68" type="line"/>
      <point x="196" y="118" type="line"/>
      <point x="156" y="118" type="line"/>
      <point x="156" y="68" type="line"/>
      <point x="178" y="68" type="line"/>
      <point x="178" y="0" type="line"/>
      <point x="20" y="0" type="line"/>
      <point x="20" y="68" type="line"/>
      <point x="56" y="68" type="line"/>
      <point x="56" y="379" type="line"/>
      <point x="16" y="379" type="line"/>
      <point x="16" y="447" type="line"/>
      <point x="156" y="447" type="line"/>
      <point x="156" y="182" type="line"/>
      <point x="203" y="182" type="line"/>
      <point x="238" y="225" type="line"/>
      <point x="208" y="225" type="line"/>
    </contour>
  </outline>
</glyph>
<glyph name="n.inferior" format="1">
  <advance width="421"/>
  <unicode hex="2099"/>
  <outline>
    <contour>
      <point x="230" y="68" type="line"/>
      <point x="266" y="68" type="line"/>
      <point x="266" y="164" type="line" smooth="yes"/>
      <point x="266" y="212"/>
      <point x="253" y="231"/>
      <point x="221" y="231" type="curve" smooth="yes"/>
      <point x="184" y="231"/>
      <point x="165" y="205"/>
      <point x="165" y="164" type="curve" smooth="yes"/>
      <point x="165" y="68" type="line"/>
      <point x="201" y="68" type="line"/>
      <point x="201" y="0" type="line"/>
      <point x="29" y="0" type="line"/>
      <point x="29" y="68" type="line"/>
      <point x="65" y="68" type="line"/>
      <point x="65" y="225" type="line"/>
      <point x="25" y="225" type="line"/>
      <point x="25" y="294" type="line"/>
      <point x="165" y="294" type="line"/>
      <point x="165" y="250" type="line"/>
      <point x="183" y="282"/>
      <point x="216" y="300"/>
      <point x="259" y="300" type="curve" smooth="yes"/>
      <point x="316" y="300"/>
      <point x="367" y="268"/>
      <point x="367" y="200" type="curve" smooth="yes"/>
      <point x="367" y="68" type="line"/>
      <point x="403" y="68" type="line"/>
      <point x="403" y="0" type="line"/>
      <point x="230" y="0" type="line"/>
    </contour>
    <contour>
      <point x="221" y="368" type="move" name="top"/>
    </contour>
  </outline>
</glyph>
<glyph name="t.inferior" format="1">
  <advance width="299"/>
  <unicode hex="209C"/>
  <outline>
    <contour>
      <point x="13" y="294" type="line"/>
      <point x="54" y="294" type="line"/>
      <point x="54" y="382" type="line"/>
      <point x="154" y="382" type="line"/>
      <point x="154" y="294" type="line"/>
      <point x="260" y="294" type="line"/>
      <point x="260" y="225" type="line"/>
      <point x="154" y="225" type="line"/>
      <point x="154" y="104" type="line" smooth="yes"/>
      <point x="154" y="77"/>
      <point x="169" y="69"/>
      <point x="185" y="69" type="curve" smooth="yes"/>
      <point x="192" y="69"/>
      <point x="216" y="71"/>
      <point x="220" y="114" type="curve"/>
      <point x="292" y="93" type="line"/>
      <point x="284" y="24"/>
      <point x="240" y="-7"/>
      <point x="174" y="-7" type="curve" smooth="yes"/>
      <point x="104" y="-7"/>
      <point x="54" y="27"/>
      <point x="54" y="88" type="curve" smooth="yes"/>
      <point x="54" y="225" type="line"/>
      <point x="13" y="225" type="line"/>
    </contour>
  </outline>
</glyph>
<glyph name="cruzeiro" format="1">
  <advance width="661"/>
  <unicode hex="20A2"/>
  <outline>
    <contour>
      <point x="600" y="69" type="curve"/>
      <point x="613" y="222" type="line"/>
      <point x="504" y="232" type="line"/>
      <point x="490" y="135" type="line"/>
      <point x="471" y="124"/>
      <point x="440" y="114"/>
      <point x="405" y="110" type="curve"/>
      <point x="405" y="245" type="line" smooth="yes"/>
      <point x="405" y="273"/>
      <point x="423" y="289"/>
      <point x="447" y="289" type="curve" smooth="yes"/>
      <point x="457" y="289"/>
      <point x="468" y="286"/>
      <point x="479" y="280" type="curve"/>
      <point x="488" y="239" type="line"/>
      <point x="568" y="248" type="line"/>
      <point x="557" y="366" type="line"/>
      <point x="531" y="380"/>
      <point x="504" y="386"/>
      <point x="484" y="386" type="curve" smooth="yes"/>
      <point x="432" y="386"/>
      <point x="407" y="350"/>
      <point x="395" y="304" type="curve"/>
      <point x="395" y="381" type="line"/>
      <point x="211" y="381" type="line"/>
      <point x="211" y="283" type="line"/>
      <point x="276" y="283" type="line"/>
      <point x="276" y="125" type="line"/>
      <point x="213" y="153"/>
      <point x="174" y="216"/>
      <point x="174" y="323" type="curve" smooth="yes"/>
      <point x="174" y="465"/>
      <point x="245" y="542"/>
      <point x="357" y="542" type="curve" smooth="yes"/>
      <point x="401" y="542"/>
      <point x="456" y="530"/>
      <point x="490" y="507" type="curve"/>
      <point x="504" y="421" type="line"/>
      <point x="613" y="431" type="line"/>
      <point x="597" y="582" type="line"/>
      <point x="555" y="621"/>
      <point x="474" y="660"/>
      <point x="363" y="660" type="curve" smooth="yes"/>
      <point x="116" y="660"/>
      <point x="30" y="465"/>
      <point x="30" y="314" type="curve" smooth="yes"/>
      <point x="30" y="121"/>
      <point x="171" y="-10"/>
      <point x="357" y="-10" type="curve" smooth="yes"/>
      <point x="450" y="-10"/>
      <point x="557" y="23"/>
    </contour>
  </outline>
</glyph>
<glyph name="naira" format="1">
  <advance width="783"/>
  <unicode hex="20A6"/>
  <outline>
    <contour>
      <point x="746" y="536" type="line"/>
      <point x="746" y="650" type="line"/>
      <point x="457" y="650" type="line"/>
      <point x="457" y="536" type="line"/>
      <point x="551" y="536" type="line"/>
      <point x="551" y="429" type="line"/>
      <point x="407" y="429" type="line"/>
      <point x="219" y="650" type="line"/>
      <point x="42" y="650" type="line"/>
      <point x="42" y="536" type="line"/>
      <point x="123" y="536" type="line"/>
      <point x="123" y="429" type="line"/>
      <point x="43" y="429" type="line"/>
      <point x="43" y="351" type="line"/>
      <point x="123" y="351" type="line"/>
      <point x="123" y="309" type="line"/>
      <point x="43" y="309" type="line"/>
      <point x="43" y="231" type="line"/>
      <point x="123" y="231" type="line"/>
      <point x="123" y="114" type="line"/>
      <point x="53" y="114" type="line"/>
      <point x="53" y="0" type="line"/>
      <point x="338" y="0" type="line"/>
      <point x="338" y="114" type="line"/>
      <point x="248" y="114" type="line"/>
      <point x="248" y="231" type="line"/>
      <point x="405" y="231" type="line"/>
      <point x="601" y="-1" type="line"/>
      <point x="676" y="0" type="line"/>
      <point x="676" y="231" type="line"/>
      <point x="745" y="231" type="line"/>
      <point x="745" y="309" type="line"/>
      <point x="676" y="309" type="line"/>
      <point x="676" y="351" type="line"/>
      <point x="745" y="351" type="line"/>
      <point x="745" y="429" type="line"/>
      <point x="676" y="429" type="line"/>
      <point x="676" y="536" type="line"/>
    </contour>
    <contour>
      <point x="248" y="351" type="line"/>
      <point x="303" y="351" type="line"/>
      <point x="339" y="309" type="line"/>
      <point x="248" y="309" type="line"/>
    </contour>
    <contour>
      <point x="473" y="351" type="line"/>
      <point x="551" y="351" type="line"/>
      <point x="551" y="309" type="line"/>
      <point x="508" y="309" type="line"/>
    </contour>
  </outline>
</glyph>
<glyph name="dong" format="1">
  <advance width="550"/>
  <unicode hex="20AB"/>
  <outline>
    <contour>
      <point x="199" y="638" type="line"/>
      <point x="343" y="638" type="line"/>
      <point x="343" y="688" type="line"/>
      <point x="461" y="688" type="line"/>
      <point x="461" y="638" type="line"/>
      <point x="511" y="638" type="line"/>
      <point x="511" y="561" type="line"/>
      <point x="461" y="561" type="line"/>
      <point x="461" y="222" type="line"/>
      <point x="515" y="222" type="line"/>
      <point x="515" y="145" type="line"/>
      <point x="343" y="145" type="line"/>
      <point x="343" y="210" type="line"/>
      <point x="320" y="169"/>
      <point x="277" y="137"/>
      <point x="203" y="137" type="curve" smooth="yes"/>
      <point x="96" y="137"/>
      <point x="29" y="206"/>
      <point x="29" y="317" type="curve" smooth="yes"/>
      <point x="29" y="422"/>
      <point x="89" y="508"/>
      <point x="212" y="508" type="curve" smooth="yes"/>
      <point x="279" y="508"/>
      <point x="320" y="483"/>
      <point x="343" y="447" type="curve"/>
      <point x="343" y="561" type="line"/>
      <point x="199" y="561" type="line"/>
    </contour>
    <contour>
      <point x="64" y="87" type="line"/>
      <point x="487" y="87" type="line"/>
      <point x="487" y="0" type="line"/>
      <point x="64" y="0" type="line"/>
    </contour>
    <contour>
      <point x="249" y="424" type="curve" smooth="yes"/>
      <point x="198" y="424"/>
      <point x="156" y="395"/>
      <point x="156" y="323" type="curve" smooth="yes"/>
      <point x="156" y="255"/>
      <point x="193" y="222"/>
      <point x="243" y="222" type="curve" smooth="yes"/>
      <point x="305" y="222"/>
      <point x="343" y="272"/>
      <point x="343" y="325" type="curve" smooth="yes"/>
      <point x="343" y="334" type="line" smooth="yes"/>
      <point x="343" y="393"/>
      <point x="303" y="424"/>
    </contour>
  </outline>
</glyph>
<glyph name="uni20AE" format="1">
  <advance width="664"/>
  <unicode hex="20AE"/>
  <outline>
    <contour>
      <point x="636" y="430" type="line"/>
      <point x="616" y="650" type="line"/>
      <point x="48" y="650" type="line"/>
      <point x="28" y="430" type="line"/>
      <point x="142" y="420" type="line"/>
      <point x="162" y="536" type="line"/>
      <point x="265" y="536" type="line"/>
      <point x="265" y="397" type="line"/>
      <point x="179" y="376" type="line"/>
      <point x="179" y="286" type="line"/>
      <point x="265" y="307" type="line"/>
      <point x="265" y="277" type="line"/>
      <point x="179" y="256" type="line"/>
      <point x="179" y="166" type="line"/>
      <point x="265" y="187" type="line"/>
      <point x="265" y="114" type="line"/>
      <point x="165" y="114" type="line"/>
      <point x="165" y="0" type="line"/>
      <point x="505" y="0" type="line"/>
      <point x="505" y="114" type="line"/>
      <point x="399" y="114" type="line"/>
      <point x="399" y="220" type="line"/>
      <point x="492" y="243" type="line"/>
      <point x="492" y="333" type="line"/>
      <point x="399" y="310" type="line"/>
      <point x="399" y="340" type="line"/>
      <point x="492" y="363" type="line"/>
      <point x="492" y="453" type="line"/>
      <point x="399" y="430" type="line"/>
      <point x="399" y="536" type="line"/>
      <point x="502" y="536" type="line"/>
      <point x="522" y="420" type="line"/>
    </contour>
  </outline>
</glyph>
<glyph name="uni20B1" format="1">
  <advance width="666"/>
  <unicode hex="20B1"/>
  <outline>
    <contour>
      <point x="53" y="443" type="line"/>
      <point x="118" y="443" type="line"/>
      <point x="118" y="421" type="line"/>
      <point x="53" y="421" type="line"/>
      <point x="53" y="353" type="line"/>
      <point x="118" y="353" type="line"/>
      <point x="118" y="114" type="line"/>
      <point x="48" y="114" type="line"/>
      <point x="48" y="0" type="line"/>
      <point x="352" y="0" type="line"/>
      <point x="352" y="114" type="line"/>
      <point x="252" y="114" type="line"/>
      <point x="252" y="218" type="line"/>
      <point x="352" y="218" type="line" smooth="yes"/>
      <point x="452" y="218"/>
      <point x="543" y="262"/>
      <point x="578" y="353" type="curve"/>
      <point x="639" y="353" type="line"/>
      <point x="639" y="421" type="line"/>
      <point x="592" y="421" type="line"/>
      <point x="593" y="426"/>
      <point x="593" y="432"/>
      <point x="593" y="438" type="curve" smooth="yes"/>
      <point x="593" y="443" type="line"/>
      <point x="639" y="443" type="line"/>
      <point x="639" y="511" type="line"/>
      <point x="582" y="511" type="line"/>
      <point x="555" y="598"/>
      <point x="474" y="650"/>
      <point x="346" y="650" type="curve" smooth="yes"/>
      <point x="48" y="650" type="line"/>
      <point x="48" y="536" type="line"/>
      <point x="118" y="536" type="line"/>
      <point x="118" y="511" type="line"/>
      <point x="53" y="511" type="line"/>
    </contour>
    <contour>
      <point x="449" y="436" type="line" smooth="yes"/>
      <point x="449" y="431"/>
      <point x="449" y="426"/>
      <point x="448" y="421" type="curve"/>
      <point x="252" y="421" type="line"/>
      <point x="252" y="443" type="line"/>
      <point x="449" y="443" type="line"/>
    </contour>
    <contour>
      <point x="252" y="536" type="line"/>
      <point x="329" y="536" type="line" smooth="yes"/>
      <point x="372" y="536"/>
      <point x="402" y="527"/>
      <point x="421" y="511" type="curve"/>
      <point x="252" y="511" type="line"/>
    </contour>
    <contour>
      <point x="327" y="331" type="curve"/>
      <point x="252" y="331" type="line"/>
      <point x="252" y="353" type="line"/>
      <point x="414" y="353" type="line"/>
      <point x="395" y="339"/>
      <point x="367" y="331"/>
    </contour>
  </outline>
</glyph>
<glyph name="uni20B4" format="1">
  <advance width="611"/>
  <unicode hex="20B4"/>
  <outline>
    <contour>
      <point x="28" y="355" type="line"/>
      <point x="218" y="355" type="line"/>
      <point x="188" y="345"/>
      <point x="158" y="333"/>
      <point x="133" y="316" type="curve"/>
      <point x="28" y="316" type="line"/>
      <point x="28" y="262" type="line"/>
      <point x="81" y="262" type="line"/>
      <point x="68" y="239"/>
      <point x="61" y="211"/>
      <point x="61" y="176" type="curve" smooth="yes"/>
      <point x="61" y="47"/>
      <point x="183" y="-10"/>
      <point x="304" y="-10" type="curve" smooth="yes"/>
      <point x="397" y="-10"/>
      <point x="493" y="23"/>
      <point x="536" y="69" type="curve"/>
      <point x="549" y="212" type="line"/>
      <point x="440" y="222" type="line"/>
      <point x="426" y="135" type="line"/>
      <point x="401" y="120"/>
      <point x="362" y="108"/>
      <point x="313" y="108" type="curve" smooth="yes"/>
      <point x="228" y="108"/>
      <point x="205" y="141"/>
      <point x="205" y="185" type="curve" smooth="yes"/>
      <point x="205" y="220"/>
      <point x="218" y="244"/>
      <point x="238" y="262" type="curve"/>
      <point x="580" y="262" type="line"/>
      <point x="580" y="316" type="line"/>
      <point x="369" y="316" type="line"/>
      <point x="405" y="326"/>
      <point x="441" y="337"/>
      <point x="471" y="355" type="curve"/>
      <point x="580" y="355" type="line"/>
      <point x="580" y="410" type="line"/>
      <point x="526" y="410" type="line"/>
      <point x="538" y="431"/>
      <point x="545" y="457"/>
      <point x="545" y="490" type="curve" smooth="yes"/>
      <point x="545" y="622"/>
      <point x="437" y="660"/>
      <point x="330" y="660" type="curve" smooth="yes"/>
      <point x="250" y="660"/>
      <point x="170" y="639"/>
      <point x="107" y="621" type="curve"/>
      <point x="85" y="448" type="line"/>
      <point x="188" y="437" type="line"/>
      <point x="205" y="523" type="line"/>
      <point x="253" y="539"/>
      <point x="280" y="542"/>
      <point x="305" y="542" type="curve" smooth="yes"/>
      <point x="362" y="542"/>
      <point x="401" y="527"/>
      <point x="401" y="477" type="curve" smooth="yes"/>
      <point x="401" y="446"/>
      <point x="386" y="426"/>
      <point x="363" y="410" type="curve"/>
      <point x="28" y="410" type="line"/>
    </contour>
  </outline>
</glyph>
<glyph name="uni20BA" format="1">
  <advance width="605"/>
  <unicode hex="20BA"/>
  <outline>
    <contour>
      <point x="52" y="247" type="line"/>
      <point x="123" y="277" type="line"/>
      <point x="123" y="317" type="line"/>
      <point x="52" y="287" type="line"/>
      <point x="52" y="367" type="line"/>
      <point x="123" y="397" type="line"/>
      <point x="123" y="536" type="line"/>
      <point x="53" y="536" type="line"/>
      <point x="53" y="650" type="line"/>
      <point x="337" y="650" type="line"/>
      <point x="337" y="536" type="line"/>
      <point x="257" y="536" type="line"/>
      <point x="257" y="455" type="line"/>
      <point x="417" y="524" type="line"/>
      <point x="417" y="444" type="line"/>
      <point x="257" y="375" type="line"/>
      <point x="257" y="335" type="line"/>
      <point x="417" y="404" type="line"/>
      <point x="417" y="324" type="line"/>
      <point x="257" y="255" type="line"/>
      <point x="257" y="114" type="line"/>
      <point x="277" y="114" type="line" smooth="yes"/>
      <point x="380" y="114"/>
      <point x="449" y="165"/>
      <point x="449" y="334" type="curve"/>
      <point x="580" y="334" type="line"/>
      <point x="580" y="122"/>
      <point x="481" y="0"/>
      <point x="277" y="0" type="curve" smooth="yes"/>
      <point x="53" y="0" type="line"/>
      <point x="53" y="114" type="line"/>
      <point x="123" y="114" type="line"/>
      <point x="123" y="197" type="line"/>
      <point x="52" y="167" type="line"/>
    </contour>
  </outline>
</glyph>
<glyph name="Omega" format="1">
  <advance width="688"/>
  <unicode hex="2126"/>
  <outline>
    <contour>
      <point x="347" y="543" type="curve" smooth="yes"/>
      <point x="481" y="543"/>
      <point x="508" y="463"/>
      <point x="508" y="365" type="curve" smooth="yes"/>
      <point x="508" y="261"/>
      <point x="478" y="212"/>
      <point x="390" y="212" type="curve"/>
      <point x="390" y="0" type="line"/>
      <point x="654" y="0" type="line"/>
      <point x="654" y="108" type="line"/>
      <point x="489" y="108" type="line"/>
      <point x="489" y="136" type="line"/>
      <point x="583" y="146"/>
      <point x="654" y="239"/>
      <point x="654" y="372" type="curve" smooth="yes"/>
      <point x="654" y="569"/>
      <point x="500" y="660"/>
      <point x="346" y="660" type="curve"/>
      <point x="191" y="660"/>
      <point x="34" y="567"/>
      <point x="34" y="375" type="curve" smooth="yes"/>
      <point x="34" y="222"/>
      <point x="133" y="146"/>
      <point x="199" y="136" type="curve"/>
      <point x="199" y="108" type="line"/>
      <point x="34" y="108" type="line"/>
      <point x="34" y="0" type="line"/>
      <point x="308" y="0" type="line"/>
      <point x="308" y="212" type="line"/>
      <point x="232" y="218"/>
      <point x="179" y="245"/>
      <point x="179" y="366" type="curve" smooth="yes"/>
      <point x="179" y="464"/>
      <point x="214" y="543"/>
    </contour>
  </outline>
</glyph>
<glyph name="uni2196" format="1">
  <advance width="632"/>
  <unicode hex="2196"/>
  <outline>
    <contour>
      <point x="57" y="614" type="line"/>
      <point x="31" y="588" type="line"/>
      <point x="67" y="246" type="line"/>
      <point x="147" y="325" type="line"/>
      <point x="152" y="415" type="line"/>
      <point x="524" y="44" type="line"/>
      <point x="601" y="120" type="line"/>
      <point x="229" y="492" type="line"/>
      <point x="318" y="495" type="line"/>
      <point x="397" y="574" type="line"/>
    </contour>
  </outline>
</glyph>
<glyph name="uni2197" format="1">
  <advance width="632"/>
  <unicode hex="2197"/>
  <outline>
    <contour>
      <point x="235" y="574" type="line"/>
      <point x="314" y="495" type="line"/>
      <point x="403" y="492" type="line"/>
      <point x="31" y="120" type="line"/>
      <point x="108" y="44" type="line"/>
      <point x="480" y="415" type="line"/>
      <point x="485" y="325" type="line"/>
      <point x="565" y="246" type="line"/>
      <point x="601" y="588" type="line"/>
      <point x="575" y="614" type="line"/>
    </contour>
  </outline>
</glyph>
<glyph name="uni2199" format="1">
  <advance width="632"/>
  <unicode hex="2199"/>
  <outline>
    <contour>
      <point x="397" y="84" type="line"/>
      <point x="318" y="163" type="line"/>
      <point x="229" y="166" type="line"/>
      <point x="601" y="538" type="line"/>
      <point x="524" y="614" type="line"/>
      <point x="152" y="242" type="line"/>
      <point x="147" y="333" type="line"/>
      <point x="67" y="412" type="line"/>
      <point x="31" y="70" type="line"/>
      <point x="57" y="44" type="line"/>
    </contour>
  </outline>
</glyph>
<glyph name="greaterequal" format="1">
  <advance width="398"/>
  <unicode hex="2265"/>
  <outline>
    <contour>
      <point x="47" y="94" type="line"/>
      <point x="47" y="206" type="line"/>
      <point x="232" y="314" type="line"/>
      <point x="48" y="417" type="line"/>
      <point x="48" y="529" type="line"/>
      <point x="366" y="341" type="line"/>
      <point x="366" y="277" type="line"/>
    </contour>
    <contour>
      <point x="367" y="0" type="line"/>
      <point x="47" y="0" type="line"/>
      <point x="47" y="88" type="line"/>
      <point x="367" y="88" type="line"/>
    </contour>
  </outline>
</glyph>
<glyph name="uni25B2" format="1">
  <advance width="650"/>
  <unicode hex="25B2"/>
  <outline>
    <contour>
      <point x="612" y="23" type="line"/>
      <point x="325" y="481" type="line"/>
      <point x="38" y="23" type="line"/>
    </contour>
  </outline>
</glyph>
<glyph name="uni25B8" format="1">
  <advance width="418"/>
  <unicode hex="25B8"/>
  <outline>
    <contour>
      <point x="381" y="234" type="line"/>
      <point x="94" y="522" type="line"/>
      <point x="94" y="-53" type="line"/>
    </contour>
  </outline>
</glyph>
<glyph name="uni25BC" format="1">
  <advance width="650"/>
  <unicode hex="25BC"/>
  <outline>
    <contour>
      <point x="38" y="480" type="line"/>
      <point x="325" y="22" type="line"/>
      <point x="612" y="480" type="line"/>
    </contour>
  </outline>
</glyph>
<glyph name="uni2610" format="1">
  <advance width="879"/>
  <unicode hex="2610"/>
  <outline>
    <contour>
      <point x="101" y="0" type="line"/>
      <point x="778" y="0" type="line"/>
      <point x="778" y="651" type="line"/>
      <point x="101" y="651" type="line"/>
    </contour>
    <contour>
      <point x="201" y="551" type="line"/>
      <point x="679" y="551" type="line"/>
      <point x="679" y="99" type="line"/>
      <point x="201" y="99" type="line"/>
    </contour>
  </outline>
</glyph>
<glyph name="uni261F" format="1">
  <advance width="536"/>
  <unicode hex="261F"/>
  <outline>
    <contour>
      <point x="72" y="696" type="line"/>
      <point x="72" y="542" type="line"/>
      <point x="88" y="540"/>
      <point x="105" y="539"/>
      <point x="122" y="538" type="curve"/>
      <point x="69" y="401"/>
      <point x="66" y="351"/>
      <point x="66" y="313" type="curve" smooth="yes"/>
      <point x="66" y="268"/>
      <point x="76" y="199"/>
      <point x="76" y="199" type="curve"/>
      <point x="74" y="187"/>
      <point x="74" y="163"/>
      <point x="74" y="143" type="curve" smooth="yes"/>
      <point x="74" y="105"/>
      <point x="81" y="74"/>
      <point x="120" y="74" type="curve" smooth="yes"/>
      <point x="132" y="74"/>
      <point x="143" y="81"/>
      <point x="151" y="89" type="curve"/>
      <point x="165" y="71"/>
      <point x="178" y="67"/>
      <point x="191" y="67" type="curve" smooth="yes"/>
      <point x="202" y="67"/>
      <point x="212" y="71"/>
      <point x="219" y="78" type="curve"/>
      <point x="233" y="62"/>
      <point x="247" y="57"/>
      <point x="259" y="57" type="curve" smooth="yes"/>
      <point x="266" y="57"/>
      <point x="273" y="59"/>
      <point x="280" y="63" type="curve"/>
      <point x="281" y="-39" type="line" smooth="yes"/>
      <point x="281" y="-84"/>
      <point x="308" y="-98"/>
      <point x="332" y="-98" type="curve" smooth="yes"/>
      <point x="360" y="-98"/>
      <point x="384" y="-81"/>
      <point x="384" y="-39" type="curve" smooth="yes"/>
      <point x="384" y="109" type="line"/>
      <point x="390" y="107"/>
      <point x="396" y="106"/>
      <point x="403" y="106" type="curve" smooth="yes"/>
      <point x="422" y="106"/>
      <point x="449" y="120"/>
      <point x="449" y="120" type="curve"/>
      <point x="469" y="170"/>
      <point x="477" y="219"/>
      <point x="477" y="266" type="curve" smooth="yes"/>
      <point x="477" y="372"/>
      <point x="427" y="466"/>
      <point x="381" y="538" type="curve"/>
      <point x="395" y="539"/>
      <point x="410" y="540"/>
      <point x="424" y="542" type="curve"/>
      <point x="424" y="696" type="line"/>
    </contour>
    <contour>
      <point x="340" y="535" type="curve"/>
      <point x="388" y="452"/>
      <point x="445" y="353"/>
      <point x="445" y="255" type="curve" smooth="yes"/>
      <point x="445" y="216"/>
      <point x="437" y="177"/>
      <point x="416" y="140" type="curve"/>
      <point x="416" y="140"/>
      <point x="408" y="139"/>
      <point x="403" y="139" type="curve" smooth="yes"/>
      <point x="398" y="139"/>
      <point x="394" y="142"/>
      <point x="394" y="158" type="curve"/>
      <point x="406" y="202"/>
      <point x="409" y="232"/>
      <point x="409" y="252" type="curve" smooth="yes"/>
      <point x="409" y="283"/>
      <point x="401" y="293"/>
      <point x="397" y="300" type="curve"/>
      <point x="349" y="321"/>
      <point x="327" y="328"/>
      <point x="292" y="363" type="curve"/>
      <point x="277" y="363"/>
      <point x="270" y="358"/>
      <point x="261" y="348" type="curve"/>
      <point x="283" y="324"/>
      <point x="316" y="292"/>
      <point x="348" y="276" type="curve"/>
      <point x="348" y="-42" type="line" smooth="yes"/>
      <point x="348" y="-58"/>
      <point x="340" y="-65"/>
      <point x="332" y="-65" type="curve" smooth="yes"/>
      <point x="325" y="-65"/>
      <point x="317" y="-60"/>
      <point x="317" y="-42" type="curve" smooth="yes"/>
      <point x="315" y="256" type="line"/>
      <point x="295" y="276"/>
      <point x="276" y="283"/>
      <point x="260" y="283" type="curve" smooth="yes"/>
      <point x="244" y="283"/>
      <point x="234" y="278"/>
      <point x="226" y="273" type="curve"/>
      <point x="226" y="273"/>
      <point x="205" y="283"/>
      <point x="190" y="283" type="curve" smooth="yes"/>
      <point x="178" y="283"/>
      <point x="162" y="277"/>
      <point x="149" y="266" type="curve"/>
      <point x="149" y="266"/>
      <point x="134" y="270"/>
      <point x="126" y="270" type="curve" smooth="yes"/>
      <point x="120" y="270"/>
      <point x="111" y="269"/>
      <point x="104" y="266" type="curve"/>
      <point x="104" y="266"/>
      <point x="102" y="267"/>
      <point x="102" y="313" type="curve" smooth="yes"/>
      <point x="102" y="347"/>
      <point x="107" y="399"/>
      <point x="161" y="536" type="curve"/>
      <point x="195" y="534"/>
      <point x="230" y="533"/>
      <point x="265" y="533" type="curve" smooth="yes"/>
      <point x="290" y="533"/>
      <point x="315" y="534"/>
    </contour>
    <contour>
      <point x="278" y="95" type="line"/>
      <point x="278" y="95"/>
      <point x="265" y="89"/>
      <point x="259" y="89" type="curve" smooth="yes"/>
      <point x="257" y="89"/>
      <point x="241" y="91"/>
      <point x="241" y="95" type="curve" smooth="yes"/>
      <point x="237" y="247" type="line"/>
      <point x="244" y="247"/>
      <point x="272" y="247"/>
      <point x="278" y="243" type="curve"/>
    </contour>
    <contour>
      <point x="210" y="105" type="line"/>
      <point x="210" y="105"/>
      <point x="197" y="98"/>
      <point x="191" y="98" type="curve" smooth="yes"/>
      <point x="186" y="98"/>
      <point x="176" y="100"/>
      <point x="173" y="105" type="curve"/>
      <point x="169" y="247" type="line"/>
      <point x="186" y="247" type="line" smooth="yes"/>
      <point x="193" y="247"/>
      <point x="209" y="246"/>
      <point x="210" y="245" type="curve"/>
    </contour>
    <contour>
      <point x="142" y="113" type="line"/>
      <point x="142" y="113"/>
      <point x="125" y="107"/>
      <point x="122" y="107" type="curve" smooth="yes"/>
      <point x="115" y="107"/>
      <point x="107" y="122"/>
      <point x="107" y="143" type="curve" smooth="yes"/>
      <point x="107" y="153"/>
      <point x="107" y="164"/>
      <point x="108" y="174" type="curve"/>
      <point x="108" y="186"/>
      <point x="109" y="198"/>
      <point x="109" y="207" type="curve" smooth="yes"/>
      <point x="109" y="230" type="line"/>
      <point x="113" y="232"/>
      <point x="121" y="232"/>
      <point x="125" y="232" type="curve" smooth="yes"/>
      <point x="127" y="232"/>
      <point x="140" y="232"/>
      <point x="142" y="231" type="curve"/>
    </contour>
  </outline>
</glyph>
<glyph name="uni301A" format="1">
  <advance width="479"/>
  <unicode hex="301A"/>
  <outline>
    <contour>
      <point x="67" y="-248" type="line"/>
      <point x="460" y="-248" type="line"/>
      <point x="460" y="-161" type="line"/>
      <point x="346" y="-161" type="line"/>
      <point x="346" y="698" type="line"/>
      <point x="460" y="698" type="line"/>
      <point x="460" y="785" type="line"/>
      <point x="67" y="785" type="line"/>
    </contour>
    <contour>
      <point x="176" y="698" type="line"/>
      <point x="237" y="698" type="line"/>
      <point x="237" y="-161" type="line"/>
      <point x="176" y="-161" type="line"/>
    </contour>
  </outline>
</glyph>
<glyph name="uni301B" format="1">
  <advance width="479"/>
  <unicode hex="301B"/>
  <outline>
    <contour>
      <point x="412" y="-248" type="line"/>
      <point x="19" y="-248" type="line"/>
      <point x="19" y="-161" type="line"/>
      <point x="133" y="-161" type="line"/>
      <point x="133" y="698" type="line"/>
      <point x="19" y="698" type="line"/>
      <point x="19" y="785" type="line"/>
      <point x="412" y="785" type="line"/>
    </contour>
    <contour>
      <point x="303" y="-161" type="line"/>
      <point x="303" y="698" type="line"/>
      <point x="242" y="698" type="line"/>
      <point x="242" y="-161" type="line"/>
    </contour>
  </outline>
</glyph>
<glyph name="f_f_l" format="1">
  <advance width="900"/>
  <unicode hex="FB04"/>
  <outline>
    <contour>
      <point x="390" y="98" type="line"/>
      <point x="330" y="98" type="line"/>
      <point x="330" y="0" type="line"/>
      <point x="594" y="0" type="line"/>
      <point x="594" y="98" type="line"/>
      <point x="519" y="98" type="line"/>
      <point x="519" y="353" type="line"/>
      <point x="610" y="353" type="line"/>
      <point x="610" y="451" type="line"/>
      <point x="519" y="451" type="line"/>
      <point x="519" y="519" type="line" smooth="yes"/>
      <point x="519" y="576"/>
      <point x="562" y="602"/>
      <point x="607" y="602" type="curve" smooth="yes"/>
      <point x="642" y="602"/>
      <point x="669" y="590"/>
      <point x="693" y="568" type="curve"/>
      <point x="693" y="98" type="line"/>
      <point x="633" y="98" type="line"/>
      <point x="633" y="0" type="line"/>
      <point x="882" y="0" type="line"/>
      <point x="882" y="98" type="line"/>
      <point x="822" y="98" type="line"/>
      <point x="822" y="688" type="line"/>
      <point x="693" y="688" type="line"/>
      <point x="693" y="660" type="line"/>
      <point x="658" y="688"/>
      <point x="617" y="698"/>
      <point x="575" y="698" type="curve" smooth="yes"/>
      <point x="517" y="698"/>
      <point x="470" y="677"/>
      <point x="437" y="642" type="curve"/>
      <point x="398" y="671"/>
      <point x="346" y="688"/>
      <point x="288" y="688" type="curve" smooth="yes"/>
      <point x="164" y="688"/>
      <point x="88" y="609"/>
      <point x="88" y="503" type="curve" smooth="yes"/>
      <point x="88" y="451" type="line"/>
      <point x="33" y="451" type="line"/>
      <point x="33" y="353" type="line"/>
      <point x="88" y="353" type="line"/>
      <point x="88" y="98" type="line"/>
      <point x="28" y="98" type="line"/>
      <point x="28" y="0" type="line"/>
      <point x="292" y="0" type="line"/>
      <point x="292" y="98" type="line"/>
      <point x="217" y="98" type="line"/>
      <point x="217" y="353" type="line"/>
      <point x="390" y="353" type="line"/>
    </contour>
    <contour>
      <point x="217" y="509" type="line" smooth="yes"/>
      <point x="217" y="566"/>
      <point x="254" y="592"/>
      <point x="309" y="592" type="curve" smooth="yes"/>
      <point x="339" y="592"/>
      <point x="369" y="582"/>
      <point x="396" y="564" type="curve"/>
      <point x="392" y="548"/>
      <point x="390" y="531"/>
      <point x="390" y="513" type="curve" smooth="yes"/>
      <point x="390" y="451" type="line"/>
      <point x="217" y="451" type="line"/>
    </contour>
  </outline>
</glyph>
<glyph name="B.c2sc" format="1">
  <advance width="543"/>
  <outline>
    <contour>
      <point x="333" y="521" type="line" smooth="yes"/>
      <point x="431" y="521"/>
      <point x="500" y="473"/>
      <point x="500" y="399" type="curve" smooth="yes"/>
      <point x="500" y="346"/>
      <point x="465" y="301"/>
      <point x="399" y="291" type="curve"/>
      <point x="399" y="288" type="line"/>
      <point x="481" y="276"/>
      <point x="518" y="223"/>
      <point x="518" y="155" type="curve" smooth="yes"/>
      <point x="518" y="72"/>
      <point x="463" y="0"/>
      <point x="336" y="0" type="curve" smooth="yes"/>
      <point x="39" y="0" type="line"/>
      <point x="39" y="98" type="line"/>
      <point x="94" y="98" type="line"/>
      <point x="94" y="423" type="line"/>
      <point x="39" y="423" type="line"/>
      <point x="39" y="521" type="line"/>
    </contour>
    <contour>
      <point x="301" y="98" type="line" smooth="yes"/>
      <point x="357" y="98"/>
      <point x="380" y="119"/>
      <point x="380" y="160" type="curve" smooth="yes"/>
      <point x="380" y="205"/>
      <point x="351" y="221"/>
      <point x="305" y="221" type="curve" smooth="yes"/>
      <point x="223" y="221" type="line"/>
      <point x="223" y="98" type="line"/>
    </contour>
    <contour>
      <point x="287" y="310" type="line" smooth="yes"/>
      <point x="350" y="310"/>
      <point x="361" y="338"/>
      <point x="361" y="367" type="curve" smooth="yes"/>
      <point x="361" y="414"/>
      <point x="331" y="423"/>
      <point x="298" y="423" type="curve" smooth="yes"/>
      <point x="223" y="423" type="line"/>
      <point x="223" y="310" type="line"/>
    </contour>
  </outline>
</glyph>
<glyph name="Eogonek.c2sc" format="1">
  <advance width="515"/>
  <outline>
    <contour>
      <point x="479" y="-182" type="curve"/>
      <point x="470" y="-103" type="line"/>
      <point x="457" y="-110"/>
      <point x="440" y="-114"/>
      <point x="426" y="-114" type="curve" smooth="yes"/>
      <point x="403" y="-114"/>
      <point x="384" y="-106"/>
      <point x="384" y="-72" type="curve" smooth="yes"/>
      <point x="384" y="-51"/>
      <point x="391" y="-24"/>
      <point x="428" y="0" type="curve"/>
      <point x="469" y="0" type="line"/>
      <point x="489" y="152" type="line"/>
      <point x="376" y="162" type="line"/>
      <point x="366" y="98" type="line"/>
      <point x="222" y="98" type="line"/>
      <point x="222" y="213" type="line"/>
      <point x="444" y="213" type="line"/>
      <point x="444" y="310" type="line"/>
      <point x="222" y="310" type="line"/>
      <point x="222" y="423" type="line"/>
      <point x="368" y="423" type="line"/>
      <point x="378" y="360" type="line"/>
      <point x="487" y="371" type="line"/>
      <point x="471" y="521" type="line"/>
      <point x="38" y="521" type="line"/>
      <point x="38" y="423" type="line"/>
      <point x="93" y="423" type="line"/>
      <point x="93" y="98" type="line"/>
      <point x="38" y="98" type="line"/>
      <point x="38" y="0" type="line"/>
      <point x="351" y="0" type="line"/>
      <point x="310" y="-24"/>
      <point x="279" y="-64"/>
      <point x="279" y="-113" type="curve" smooth="yes"/>
      <point x="279" y="-175"/>
      <point x="330" y="-201"/>
      <point x="392" y="-201" type="curve" smooth="yes"/>
      <point x="429" y="-201"/>
      <point x="456" y="-192"/>
    </contour>
  </outline>
</glyph>
<glyph name="FL1003" format="1">
  <advance width="712"/>
  <outline>
    <contour>
      <point x="688" y="326" type="curve" smooth="yes"/>
      <point x="688" y="509"/>
      <point x="565" y="660"/>
      <point x="357" y="660" type="curve" smooth="yes"/>
      <point x="153" y="660"/>
      <point x="24" y="514"/>
      <point x="24" y="324" type="curve" smooth="yes"/>
      <point x="24" y="143"/>
      <point x="141" y="-10"/>
      <point x="353" y="-10" type="curve" smooth="yes"/>
      <point x="564" y="-10"/>
      <point x="688" y="142"/>
    </contour>
    <contour>
      <point x="543" y="322" type="curve" smooth="yes"/>
      <point x="543" y="195"/>
      <point x="487" y="108"/>
      <point x="360" y="108" type="curve" smooth="yes"/>
      <point x="223" y="108"/>
      <point x="169" y="209"/>
      <point x="169" y="327" type="curve" smooth="yes"/>
      <point x="169" y="450"/>
      <point x="227" y="542"/>
      <point x="356" y="542" type="curve" smooth="yes"/>
      <point x="477" y="542"/>
      <point x="543" y="460"/>
    </contour>
    <contour>
      <point x="500" y="695" type="line"/>
      <point x="500" y="787"/>
      <point x="449" y="833"/>
      <point x="361" y="833" type="curve" smooth="yes"/>
      <point x="276" y="833"/>
      <point x="221" y="790"/>
      <point x="221" y="695" type="curve"/>
      <point x="323" y="695" type="line"/>
      <point x="323" y="727"/>
      <point x="333" y="756"/>
      <point x="361" y="756" type="curve" smooth="yes"/>
      <point x="387" y="756"/>
      <point x="398" y="731"/>
      <point x="398" y="695" type="curve"/>
    </contour>
  </outline>
</glyph>
<glyph name="FL1004" format="1">
  <advance width="523"/>
  <outline>
    <contour>
      <point x="503" y="225" type="curve" smooth="yes"/>
      <point x="503" y="352"/>
      <point x="425" y="461"/>
      <point x="262" y="461" type="curve" smooth="yes"/>
      <point x="100" y="461"/>
      <point x="20" y="352"/>
      <point x="20" y="220" type="curve" smooth="yes"/>
      <point x="20" y="75"/>
      <point x="116" y="-10"/>
      <point x="255" y="-10" type="curve" smooth="yes"/>
      <point x="399" y="-10"/>
      <point x="503" y="82"/>
    </contour>
    <contour>
      <point x="370" y="229" type="curve" smooth="yes"/>
      <point x="370" y="143"/>
      <point x="326" y="89"/>
      <point x="259" y="89" type="curve" smooth="yes"/>
      <point x="189" y="89"/>
      <point x="153" y="150"/>
      <point x="153" y="227" type="curve" smooth="yes"/>
      <point x="153" y="312"/>
      <point x="194" y="362"/>
      <point x="260" y="362" type="curve" smooth="yes"/>
      <point x="321" y="362"/>
      <point x="370" y="321"/>
    </contour>
    <contour>
      <point x="397" y="515" type="line"/>
      <point x="397" y="607"/>
      <point x="347" y="653"/>
      <point x="260" y="653" type="curve" smooth="yes"/>
      <point x="176" y="653"/>
      <point x="118" y="610"/>
      <point x="118" y="515" type="curve"/>
      <point x="220" y="515" type="line"/>
      <point x="220" y="547"/>
      <point x="230" y="576"/>
      <point x="258" y="576" type="curve" smooth="yes"/>
      <point x="284" y="576"/>
      <point x="295" y="551"/>
      <point x="295" y="515" type="curve"/>
    </contour>
  </outline>
</glyph>
<glyph name="FL991" format="1">
  <advance width="687"/>
  <outline>
    <contour>
      <point x="687" y="0" type="line"/>
      <point x="687" y="114" type="line"/>
      <point x="625" y="114" type="line"/>
      <point x="391" y="650" type="line"/>
      <point x="168" y="650" type="line"/>
      <point x="168" y="536" type="line"/>
      <point x="258" y="536" type="line"/>
      <point x="72" y="114" type="line"/>
      <point x="13" y="114" type="line"/>
      <point x="13" y="0" type="line"/>
      <point x="269" y="0" type="line"/>
      <point x="269" y="114" type="line"/>
      <point x="208" y="114" type="line"/>
      <point x="235" y="180" type="line"/>
      <point x="456" y="180" type="line"/>
      <point x="480" y="114" type="line"/>
      <point x="428" y="114" type="line"/>
      <point x="428" y="0" type="line"/>
    </contour>
    <contour>
      <point x="420" y="276" type="line"/>
      <point x="273" y="276" type="line"/>
      <point x="346" y="459" type="line"/>
      <point x="352" y="459" type="line"/>
    </contour>
    <contour>
      <point x="479" y="695" type="line"/>
      <point x="479" y="787"/>
      <point x="428" y="833"/>
      <point x="340" y="833" type="curve" smooth="yes"/>
      <point x="255" y="833"/>
      <point x="200" y="790"/>
      <point x="200" y="695" type="curve"/>
      <point x="302" y="695" type="line"/>
      <point x="302" y="727"/>
      <point x="312" y="756"/>
      <point x="340" y="756" type="curve" smooth="yes"/>
      <point x="366" y="756"/>
      <point x="377" y="731"/>
      <point x="377" y="695" type="curve"/>
    </contour>
  </outline>
</glyph>
<glyph name="FL996" format="1">
  <advance width="483"/>
  <outline>
    <contour>
      <point x="463" y="142" type="curve"/>
      <point x="355" y="162" type="line"/>
      <point x="350" y="135"/>
      <point x="331" y="92"/>
      <point x="262" y="92" type="curve" smooth="yes"/>
      <point x="197" y="92"/>
      <point x="163" y="129"/>
      <point x="156" y="199" type="curve"/>
      <point x="452" y="199" type="line"/>
      <point x="457" y="222"/>
      <point x="459" y="244"/>
      <point x="459" y="264" type="curve" smooth="yes"/>
      <point x="457" y="381"/>
      <point x="372" y="460"/>
      <point x="247" y="460" type="curve" smooth="yes"/>
      <point x="104" y="460"/>
      <point x="21" y="356"/>
      <point x="21" y="217" type="curve" smooth="yes"/>
      <point x="21" y="66"/>
      <point x="119" y="-10"/>
      <point x="253" y="-10" type="curve" smooth="yes"/>
      <point x="383" y="-10"/>
      <point x="457" y="62"/>
    </contour>
    <contour>
      <point x="326" y="274" type="curve"/>
      <point x="157" y="274" type="line"/>
      <point x="165" y="330"/>
      <point x="194" y="368"/>
      <point x="247" y="368" type="curve" smooth="yes"/>
      <point x="308" y="368"/>
      <point x="332" y="319"/>
    </contour>
    <contour>
      <point x="377" y="515" type="line"/>
      <point x="377" y="607"/>
      <point x="327" y="653"/>
      <point x="240" y="653" type="curve" smooth="yes"/>
      <point x="156" y="653"/>
      <point x="98" y="610"/>
      <point x="98" y="515" type="curve"/>
      <point x="200" y="515" type="line"/>
      <point x="200" y="547"/>
      <point x="210" y="576"/>
      <point x="238" y="576" type="curve" smooth="yes"/>
      <point x="264" y="576"/>
      <point x="275" y="551"/>
      <point x="275" y="515" type="curve"/>
    </contour>
  </outline>
</glyph>
<glyph name="FL997.c2sc" format="1">
  <advance width="317"/>
  <outline>
    <contour>
      <point x="38" y="98" type="line"/>
      <point x="94" y="98" type="line"/>
      <point x="94" y="423" type="line"/>
      <point x="38" y="423" type="line"/>
      <point x="38" y="521" type="line"/>
      <point x="278" y="521" type="line"/>
      <point x="278" y="423" type="line"/>
      <point x="223" y="423" type="line"/>
      <point x="223" y="98" type="line"/>
      <point x="278" y="98" type="line"/>
      <point x="278" y="0" type="line"/>
      <point x="38" y="0" type="line"/>
    </contour>
    <contour>
      <point x="146" y="607" type="line"/>
      <point x="-16" y="750" type="line"/>
      <point x="-83" y="649" type="line"/>
      <point x="112" y="558" type="line"/>
    </contour>
    <contour>
      <point x="281" y="592" type="line"/>
      <point x="180" y="783" type="line"/>
      <point x="82" y="712" type="line"/>
      <point x="232" y="558" type="line"/>
    </contour>
  </outline>
</glyph>
<glyph name="FL997" format="1">
  <advance width="352"/>
  <outline>
    <contour>
      <point x="313" y="0" type="line"/>
      <point x="313" y="114" type="line"/>
      <point x="243" y="114" type="line"/>
      <point x="243" y="536" type="line"/>
      <point x="313" y="536" type="line"/>
      <point x="313" y="650" type="line"/>
      <point x="39" y="650" type="line"/>
      <point x="39" y="536" type="line"/>
      <point x="109" y="536" type="line"/>
      <point x="109" y="114" type="line"/>
      <point x="39" y="114" type="line"/>
      <point x="39" y="0" type="line"/>
    </contour>
    <contour>
      <point x="324" y="727" type="line"/>
      <point x="195" y="906" type="line"/>
      <point x="111" y="821" type="line"/>
      <point x="281" y="687" type="line"/>
    </contour>
    <contour>
      <point x="188" y="745" type="line"/>
      <point x="-14" y="833" type="line"/>
      <point x="-43" y="716" type="line"/>
      <point x="172" y="688" type="line"/>
    </contour>
  </outline>
</glyph>
<glyph name="FL998" format="1">
  <advance width="299"/>
  <outline>
    <contour>
      <point x="32" y="98" type="line"/>
      <point x="92" y="98" type="line"/>
      <point x="92" y="353" type="line"/>
      <point x="27" y="353" type="line"/>
      <point x="27" y="451" type="line"/>
      <point x="221" y="451" type="line"/>
      <point x="221" y="98" type="line"/>
      <point x="281" y="98" type="line"/>
      <point x="281" y="0" type="line"/>
      <point x="32" y="0" type="line"/>
    </contour>
    <contour>
      <point x="138" y="557" type="line"/>
      <point x="-24" y="700" type="line"/>
      <point x="-91" y="599" type="line"/>
      <point x="104" y="508" type="line"/>
    </contour>
    <contour>
      <point x="273" y="542" type="line"/>
      <point x="172" y="733" type="line"/>
      <point x="74" y="662" type="line"/>
      <point x="224" y="508" type="line"/>
    </contour>
  </outline>
</glyph>
<glyph name="Iacute_Jacute.c2sc" format="1">
  <advance width="745"/>
  <outline>
    <contour>
      <point x="448" y="521" type="line"/>
      <point x="716" y="521" type="line"/>
      <point x="716" y="423" type="line"/>
      <point x="668" y="423" type="line"/>
      <point x="668" y="151" type="line" smooth="yes"/>
      <point x="668" y="44"/>
      <point x="592" y="-8"/>
      <point x="489" y="-8" type="curve" smooth="yes"/>
      <point x="389" y="-8"/>
      <point x="346" y="40"/>
      <point x="322" y="94" type="curve"/>
      <point x="412" y="155" type="line"/>
      <point x="430" y="107"/>
      <point x="459" y="99"/>
      <point x="483" y="99" type="curve" smooth="yes"/>
      <point x="523" y="99"/>
      <point x="539" y="121"/>
      <point x="539" y="150" type="curve" smooth="yes"/>
      <point x="539" y="423" type="line"/>
      <point x="448" y="423" type="line"/>
    </contour>
    <contour>
      <point x="38" y="98" type="line"/>
      <point x="94" y="98" type="line"/>
      <point x="94" y="423" type="line"/>
      <point x="38" y="423" type="line"/>
      <point x="38" y="521" type="line"/>
      <point x="278" y="521" type="line"/>
      <point x="278" y="423" type="line"/>
      <point x="223" y="423" type="line"/>
      <point x="223" y="98" type="line"/>
      <point x="278" y="98" type="line"/>
      <point x="278" y="0" type="line"/>
      <point x="38" y="0" type="line"/>
    </contour>
    <contour>
      <point x="315" y="648" type="line"/>
      <point x="248" y="749" type="line"/>
      <point x="86" y="606" type="line"/>
      <point x="120" y="557" type="line"/>
    </contour>
    <contour>
      <point x="748" y="648" type="line"/>
      <point x="681" y="749" type="line"/>
      <point x="519" y="606" type="line"/>
      <point x="553" y="557" type="line"/>
    </contour>
  </outline>
</glyph>
<glyph name="Igrave.c2sc" format="1">
  <advance width="316"/>
  <outline>
    <contour>
      <point x="38" y="98" type="line"/>
      <point x="94" y="98" type="line"/>
      <point x="94" y="423" type="line"/>
      <point x="38" y="423" type="line"/>
      <point x="38" y="521" type="line"/>
      <point x="278" y="521" type="line"/>
      <point x="278" y="423" type="line"/>
      <point x="223" y="423" type="line"/>
      <point x="223" y="98" type="line"/>
      <point x="278" y="98" type="line"/>
      <point x="278" y="0" type="line"/>
      <point x="38" y="0" type="line"/>
    </contour>
    <contour>
      <point x="239" y="606" type="line"/>
      <point x="77" y="749" type="line"/>
      <point x="10" y="648" type="line"/>
      <point x="205" y="557" type="line"/>
    </contour>
  </outline>
</glyph>
<glyph name="J.c2sc" format="1">
  <advance width="428"/>
  <outline>
    <contour>
      <point x="131" y="521" type="line"/>
      <point x="399" y="521" type="line"/>
      <point x="399" y="423" type="line"/>
      <point x="351" y="423" type="line"/>
      <point x="351" y="151" type="line" smooth="yes"/>
      <point x="351" y="44"/>
      <point x="275" y="-8"/>
      <point x="172" y="-8" type="curve" smooth="yes"/>
      <point x="72" y="-8"/>
      <point x="29" y="40"/>
      <point x="5" y="94" type="curve"/>
      <point x="95" y="155" type="line"/>
      <point x="113" y="107"/>
      <point x="142" y="99"/>
      <point x="166" y="99" type="curve" smooth="yes"/>
      <point x="206" y="99"/>
      <point x="222" y="121"/>
      <point x="222" y="150" type="curve" smooth="yes"/>
      <point x="222" y="423" type="line"/>
      <point x="131" y="423" type="line"/>
    </contour>
  </outline>
</glyph>
<glyph name="Lcaron.c2sc" format="1">
  <advance width="487"/>
  <outline>
    <contour>
      <point x="452" y="0" type="line"/>
      <point x="472" y="186" type="line"/>
      <point x="359" y="196" type="line"/>
      <point x="346" y="98" type="line"/>
      <point x="222" y="98" type="line"/>
      <point x="222" y="423" type="line"/>
      <point x="294" y="423" type="line"/>
      <point x="294" y="521" type="line"/>
      <point x="38" y="521" type="line"/>
      <point x="38" y="423" type="line"/>
      <point x="93" y="423" type="line"/>
      <point x="93" y="98" type="line"/>
      <point x="38" y="98" type="line"/>
      <point x="38" y="0" type="line"/>
    </contour>
    <contour>
      <point x="442" y="548" type="line"/>
      <point x="333" y="548" type="line"/>
      <point x="321" y="346" type="line"/>
      <point x="409" y="346" type="line"/>
    </contour>
  </outline>
</glyph>
